SplineFontDB: 3.2
FontName: FProject-Regular
FullName: FProject
FamilyName: FProject
Weight: Regular
Copyright: Created by Subhraman Sarkar, with FontForge 2.0 (http://fontforge.sf.net). This font is available under the SIL Open Font Licence.
Version: 2.202
ItalicAngle: 0
UnderlinePosition: -100
UnderlineWidth: 50
Ascent: 800
Descent: 200
InvalidEm: 0
sfntRevision: 0x00010000
LayerCount: 2
Layer: 0 0 "Back" 1
Layer: 1 0 "Fore" 0
XUID: [1021 177 -753856398 11660512]
StyleMap: 0x0000
FSType: 0
OS2Version: 4
OS2_WeightWidthSlopeOnly: 0
OS2_UseTypoMetrics: 1
CreationTime: 1412866884
ModificationTime: 1691746945
PfmFamily: 17
TTFWeight: 500
TTFWidth: 5
LineGap: 90
VLineGap: 0
Panose: 2 0 6 3 0 0 0 0 0 0
OS2TypoAscent: 800
OS2TypoAOffset: 0
OS2TypoDescent: -200
OS2TypoDOffset: 0
OS2TypoLinegap: 90
OS2WinAscent: 979
OS2WinAOffset: 0
OS2WinDescent: 716
OS2WinDOffset: 0
HheadAscent: 979
HheadAOffset: 0
HheadDescent: -716
HheadDOffset: 0
OS2SubXSize: 650
OS2SubYSize: 700
OS2SubXOff: 0
OS2SubYOff: 140
OS2SupXSize: 650
OS2SupYSize: 700
OS2SupXOff: 0
OS2SupYOff: 480
OS2StrikeYSize: 49
OS2StrikeYPos: 258
OS2CapHeight: 776
OS2XHeight: 403
OS2Vendor: 'PfEd'
OS2CodePages: 00000001.00000000
OS2UnicodeRanges: 00000001.00000000.00000000.00000000
MarkAttachClasses: 1
DEI: 91125
LangName: 1033 "" "" "" "FontForge 2.0 : FProject : 5-2-2015"
Encoding: UnicodeBmp
UnicodeInterp: none
NameList: AGL For New Fonts
DisplaySize: -48
AntiAlias: 1
FitToEm: 0
WinInfo: 0 27 10
BeginPrivate: 8
BlueValues 27 [-226 -198 403 403 776 783]
OtherBlues 11 [-687 -684]
BlueScale 9 0.0353571
BlueShift 1 2
StdHW 4 [75]
StdVW 4 [86]
StemSnapH 33 [72 75 76 77 78 83 88 97 102 134]
StemSnapV 24 [67 72 76 80 86 129 146]
EndPrivate
Grid
3054 575.200195312 m 0
 54 575.200195312 l 0
 3054 575.200195312 l 0
  Named: "Cap Height"
EndSplineSet
TeXData: 1 0 0 235929 117964 78643 217055 1048576 78643 783286 444596 497025 792723 393216 433062 380633 303038 157286 324010 404750 52429 2506097 1059062 262144

StartChar: .notdef
Encoding: 65536 -1 0
Width: 429
VWidth: 900
Flags: W
HStem: 130 50<106 322> 500 48<106 322>
VStem: 54 52<180 500> 322 51<180 500>
LayerCount: 2
Fore
SplineSet
106 180 m 1
 322 180 l 1
 322 500 l 1
 106 500 l 1
 106 180 l 1
54 130 m 1
 54 548 l 1
 373 548 l 1
 373 130 l 1
 54 130 l 1
EndSplineSet
Validated: 1
EndChar

StartChar: uni0000
Encoding: 0 -1 1
AltUni2: 000000.ffffffff.0
Width: 422
VWidth: 905
GlyphClass: 2
Flags: W
HStem: -8 83<186.76 255.42> 646 63<145.783 273.633>
VStem: 172 58<291.167 393.097> 182 79<-2.68063 70.3426> 190 36<145 235.833> 316 51<487.672 606.207>
LayerCount: 2
Fore
SplineSet
182 32 m 0xd4
 182 56 197 75 221 75 c 0
 244 75 261 56 261 34 c 0
 261 12 243 -8 219 -8 c 0
 196 -8 182 10 182 32 c 0xd4
208 709 m 0
 302 709 367 653 367 554 c 0
 367 511 354 467 340 447 c 0
 307 413 306 418 253 394 c 0
 245 387 230 393 230 374 c 0xe4
 230 371 229 364 231 357 c 2
 226 145 l 1
 190 139 l 1xcc
 172 388 l 2xe4
 172 416 182 438 214 450 c 1
 257 458 299 476 307 512 c 1
 315 526 316 534 316 541 c 0
 316 549 313 555 315 563 c 0
 310 592 296 612 267 629 c 0
 250 637 231 646 208 646 c 0
 157 646 133 617 111 579 c 0
 104 566 98 547 80 547 c 2
 77 547 l 2
 67 549 54 558 54 580 c 0
 54 584 54 588 54 591 c 0
 54 599 65 613 68 620 c 0
 78 637 86 649 99 663 c 0
 130 696 151 700 184 707 c 0
 192 709 200 709 208 709 c 0
EndSplineSet
Validated: 1
EndChar

StartChar: exclam
Encoding: 33 33 4
Width: 205
VWidth: 907
GlyphClass: 2
Flags: W
HStem: 8 99<62.8382 140.985>
VStem: 54 95<16.3241 98.6152> 61 82<434.745 698.625> 75 56<169.906 428.397>
LayerCount: 2
Fore
SplineSet
103 706 m 0xa0
 116 706 129 695 143 680 c 1
 143 654 l 2xa0
 143 487 134 354 131 209 c 1
 121 183 113 168 103 166 c 4
 95 168 87 182 75 211 c 1x90
 70 374 63 422 61 680 c 2
 61 682 l 1
 79 697 91 706 103 706 c 0xa0
149 59 m 0xc0
 149 32 131 8 102 8 c 0
 74 8 54 32 54 58 c 0
 54 85 75 107 104 107 c 0
 132 107 149 85 149 59 c 0xc0
EndSplineSet
Validated: 1
EndChar

StartChar: quotedbl
Encoding: 34 34 5
Width: 253
VWidth: 799
GlyphClass: 2
Flags: W
HStem: 430 194<58 93 158 193>
VStem: 58 35<430 623> 158 35<430 623>
LayerCount: 2
Fore
SplineSet
198 623 m 1
 193 430 l 1
 158 430 l 1
 154 624 l 1
 198 623 l 1
98 623 m 1
 93 430 l 1
 58 430 l 1
 54 624 l 1
 98 623 l 1
EndSplineSet
Validated: 1
EndChar

StartChar: numbersign
Encoding: 35 35 6
Width: 683
VWidth: 911
GlyphClass: 2
Flags: W
HStem: 204 54<54 169 243 361 435 588> 500 56<78 226 302 420 492 627>
LayerCount: 2
Fore
SplineSet
482 500 m 5
 435 258 l 5
 590 258 l 1
 588 204 l 1
 424 204 l 5
 384 -5 l 5
 319 -5 l 5
 361 204 l 5
 233 202 l 1
 195 5 l 1
 129 5 l 1
 169 202 l 1
 54 202 l 1
 54 258 l 1
 179 258 l 1
 226 498 l 1
 77 497 l 1
 78 552 l 1
 238 553 l 1
 276 743 l 1
 338 742 l 1
 302 553 l 1
 430 554 l 5
 466 733 l 5
 527 732 l 5
 492 556 l 5
 627 556 l 1
 627 500 l 1
 482 500 l 5
420 500 m 5
 364 500 347 498 291 498 c 1
 243 258 l 1
 372 258 l 5
 420 500 l 5
EndSplineSet
Validated: 1
EndChar

StartChar: dollar
Encoding: 36 36 7
Width: 581
VWidth: 918
GlyphClass: 2
Flags: W
HStem: 44 56<193.085 258 311 408.77> 340 56<311 434.28> 344 64<181.971 260> 670 59<205.602 260 311 398.125>
VStem: 54 53<156.895 222.672> 56 58<460.722 589.259> 260 51<0 44 105 340 408 670 728.576 767> 466 59<155.599 307.322>
LayerCount: 2
Fore
SplineSet
311 340 m 1xd3
 311 100 l 1
 318 100 323 99 330 99 c 0
 337 99 343 100 348 100 c 0
 366 100 382 104 409 122 c 1
 412 125 l 1
 448 143 466 189 466 233 c 0
 466 241 466 254 464 262 c 0
 464 291 428 340 389 340 c 2
 311 340 l 1xd3
260 408 m 1xb7
 260 670 l 5
 232 665 207 651 179 632 c 0
 136 603 114 568 114 524 c 2
 114 523 l 1
 119 508 112 483 144 451 c 0
 173 427 217 416 260 408 c 1xb7
98 230 m 1
 101 222 100 191 107 184 c 1
 107 178 l 1xdb
 139 137 199 115 258 105 c 1
 260 344 l 1
 189 352 120 375 72 439 c 1
 60 476 56 506 56 534 c 0xb7
 56 612 97 656 138 682 c 0
 180 708 220 724 261 729 c 1
 262 768 l 1
 311 767 l 1
 311 731 l 1
 355 728 399 711 447 682 c 0
 471 667 478 658 496 634 c 0
 499 629 501 627 501 624 c 0
 501 610 493 576 474 576 c 0
 471 576 469 576 466 578 c 2
 465 579 l 1
 434 645 369 670 311 673 c 1
 311 400 l 1
 333 397 353 398 367 396 c 2
 404 396 l 2
 483 396 524 314 524 268 c 0
 526 261 525 254 525 247 c 0
 525 172 491 96 440 73 c 1
 401 49 370 44 337 44 c 2
 311 44 l 1
 311 -2 l 1
 258 0 l 1
 258 48 l 1
 204 50 114 93 75 141 c 0
 73 143 72 143 70 145 c 0
 63 153 54 179 54 189 c 0xdb
 54 216 81 228 98 230 c 1
EndSplineSet
Validated: 1
EndChar

StartChar: percent
Encoding: 37 37 8
Width: 534
VWidth: 901
GlyphClass: 2
Flags: W
HStem: -20 54<320.43 395.794> 250 53<321.882 394.914> 380 56<128.111 205.761> 650 52<127.955 204.079>
VStem: 54 49<461.928 623.643> 230 54<461.188 622.856> 247 49<59.8129 223.123> 423 55<61.6484 220.427>
LayerCount: 2
Fore
SplineSet
456 672 m 1xf9
 134 -8 l 1
 77 8 l 1
 394 688 l 1
 456 672 l 1xf9
284 539 m 1xfd
 279 476 264 440 233 406 c 1
 211 389 192 380 172 380 c 0
 154 380 135 384 116 401 c 0
 78 432 54 472 54 533 c 0
 54 601 73 646 114 678 c 0
 134 693 152 702 170 702 c 0
 188 702 206 695 226 678 c 0
 265 646 284 603 284 539 c 1xfd
167 650 m 0
 157 650 144 645 134 635 c 0
 112 613 103 580 103 537 c 0
 103 498 114 471 134 451 c 0
 144 441 158 436 168 436 c 0
 180 436 192 444 204 456 c 0
 226 476 230 499 230 541 c 0
 230 582 221 612 199 634 c 0
 189 644 177 650 167 650 c 0
478 138 m 1
 473 75 455 41 424 7 c 1
 402 -10 383 -20 363 -20 c 0
 345 -20 326 -17 307 0 c 0
 271 29 247 67 247 122 c 0
 247 126 247 129 247 133 c 0xfb
 251 206 270 252 306 278 c 0
 326 293 345 303 363 303 c 0
 381 303 398 295 418 278 c 0
 457 246 478 202 478 138 c 1
359 250 m 0
 349 250 336 243 326 233 c 0
 304 211 296 179 296 136 c 0
 296 97 305 71 325 51 c 0
 335 41 350 34 360 34 c 0
 372 34 382 42 394 54 c 0
 416 74 423 97 423 139 c 0
 423 180 413 211 391 233 c 0
 381 243 369 250 359 250 c 0
EndSplineSet
Validated: 1
EndChar

StartChar: ampersand
Encoding: 38 38 9
Width: 595
VWidth: 911
GlyphClass: 2
Flags: W
HStem: -17 51<185.506 303.454> 699 51<215.742 355.559>
VStem: 54 53<110.696 253.581> 94 52<523.964 634.437> 347 115<574.571 667.342> 440 51<279.018 405> 486 53<-5.48054 70.0282>
LayerCount: 2
Fore
SplineSet
107 180 m 0xe0
 107 95 196 34 247 34 c 2
 253 34 l 1
 312 41 354 101 383 171 c 0
 381 173 385 170 383 172 c 0
 330 230 272 286 221 347 c 1
 133 284 107 228 107 180 c 0xe0
403 224 m 1
 434 319 437 393 440 408 c 1
 491 405 l 1
 491 396 l 2xd4
 491 393 483 283 446 178 c 1
 459 164 468 151 480 138 c 0
 499 119 539 58 539 12 c 0
 539 4 538 -7 536 -15 c 1
 485 -3 l 1
 487 0 486 4 486 9 c 0xc2
 486 27 466 78 440 104 c 1
 440 105 l 1
 433 112 429 120 424 125 c 1
 390 55 338 -7 260 -15 c 0
 255 -17 251 -17 246 -17 c 0
 164 -17 54 65 54 180 c 0xe4
 54 248 95 320 190 388 c 1
 157 432 127 477 103 530 c 1
 103 532 l 1
 96 546 94 562 94 576 c 0
 94 627 126 672 162 700 c 1
 195 731 243 750 291 750 c 0
 325 750 359 740 388 717 c 0
 400 709 412 697 422 687 c 0
 427 682 431 680 434 673 c 2
 434 671 l 1
 436 671 437 671 440 668 c 0xd4
 450 654 459 638 462 619 c 0
 462 617 462 613 462 610 c 0
 462 581 437 560 406 560 c 0
 373 560 347 588 347 626 c 0
 347 643 350 658 363 671 c 1
 346 688 317 699 289 699 c 0
 221 699 146 639 146 574 c 0xd8
 146 566 147 557 150 549 c 0
 206 427 306 328 403 224 c 1
EndSplineSet
Validated: 1
EndChar

StartChar: quotesingle
Encoding: 39 39 10
Width: 154
VWidth: 799
GlyphClass: 2
Flags: W
HStem: 430 194<58 93>
VStem: 58 35<430 623>
LayerCount: 2
Fore
SplineSet
98 623 m 1
 93 430 l 1
 58 430 l 1
 54 624 l 1
 98 623 l 1
EndSplineSet
Validated: 1
EndChar

StartChar: parenleft
Encoding: 40 40 11
Width: 419
VWidth: 912
GlyphClass: 2
Flags: W
HStem: -5 43<265.789 362.416> 711 35<294.117 356.904>
VStem: 54 68<226.724 499.407>
LayerCount: 2
Fore
SplineSet
363 13 m 0
 363 0 340 -5 332 -5 c 2
 330 -5 l 2
 287 -5 245 10 199 42 c 0
 105 108 54 240 54 371 c 1
 59 516 123 631 202 697 c 1
 246 728 290 746 332 746 c 2
 337 746 l 2
 354 744 357 737 357 729 c 2
 357 726 l 2
 355 714 350 724 332 711 c 1
 291 696 277 685 241 658 c 0
 166 598 122 486 122 370 c 0
 122 263 153 150 223 94 c 1
 247 63 301 38 337 38 c 0
 350 36 363 23 363 13 c 0
EndSplineSet
Validated: 1
EndChar

StartChar: parenright
Encoding: 41 41 12
Width: 417
VWidth: 912
GlyphClass: 2
Flags: W
HStem: -5 43<54.584 149.825> 711 35<60.096 123.946>
VStem: 296 66<224.401 499.407>
LayerCount: 2
Fore
SplineSet
85 -5 m 2
 77 -5 54 0 54 13 c 0
 54 23 67 36 80 38 c 0
 116 38 170 63 194 94 c 1
 264 150 296 263 296 370 c 0
 296 486 252 598 177 658 c 0
 141 685 126 696 85 711 c 1
 67 724 62 714 60 726 c 2
 60 729 l 2
 60 737 63 744 80 746 c 2
 85 746 l 2
 127 746 171 728 215 697 c 1
 294 631 357 516 362 371 c 1
 362 240 313 108 219 42 c 0
 173 10 130 -5 87 -5 c 2
 85 -5 l 2
EndSplineSet
Validated: 1
EndChar

StartChar: asterisk
Encoding: 42 42 13
Width: 462
VWidth: 779
GlyphClass: 2
Flags: W
HStem: 473 33<84 186 261 382>
VStem: 207 38<337 448 529 628>
LayerCount: 2
Fore
SplineSet
109 384 m 1
 186 473 l 1
 84 473 l 1
 55 489 l 1
 84 509 l 1
 186 506 l 1
 101 584 l 1
 95 616 l 1
 126 610 l 1
 207 529 l 1
 207 628 l 1
 225 653 l 1
 245 628 l 1
 241 528 l 1
 317 611 l 1
 348 614 l 1
 345 584 l 1
 261 507 l 1
 382 507 l 1
 407 493 l 1
 382 471 l 1
 260 474 l 1
 361 396 l 1
 365 366 l 1
 336 369 l 1
 245 448 l 1
 245 337 l 1
 230 316 l 1
 207 337 l 1
 205 450 l 1
 135 357 l 1
 104 351 l 1
 109 384 l 1
EndSplineSet
Validated: 1
EndChar

StartChar: plus
Encoding: 43 43 14
Width: 419
VWidth: 867
GlyphClass: 2
Flags: W
HStem: 301 56<54 175 233 363>
VStem: 175 58<153 301 357 495>
LayerCount: 2
Fore
SplineSet
175 357 m 1
 174 495 l 1
 230 495 l 1
 233 357 l 1
 363 357 l 1
 363 301 l 1
 233 301 l 1
 235 153 l 1
 177 153 l 1
 175 301 l 1
 54 301 l 1
 54 357 l 1
 175 357 l 1
EndSplineSet
Validated: 1
EndChar

StartChar: comma
Encoding: 44 44 15
Width: 208
VWidth: 628
GlyphClass: 2
Flags: W
HStem: -170 246
VStem: 73 80<10.375 71.9897> 89 60<-83.8656 9.06541>
LayerCount: 2
Fore
SplineSet
73 34 m 0xc0
 73 62 90 76 112 76 c 2
 114 76 l 2
 116 76 115 78 117 78 c 0
 120 78 120 77 122 75 c 0
 141 73 150 51 153 43 c 2
 153 36 l 2xc0
 153 28 152 15 149 8 c 0
 147 -60 116 -117 72 -170 c 1
 54 -144 l 1
 74 -111 89 -80 89 -44 c 4xa0
 89 -26 89 -10 82 10 c 0
 75 18 73 26 73 34 c 0xc0
EndSplineSet
Validated: 1
EndChar

StartChar: hyphen
Encoding: 45 45 16
Width: 419
VWidth: 869
GlyphClass: 2
Flags: W
HStem: 299 56<54 363>
VStem: 54 309<299 355>
LayerCount: 2
Fore
SplineSet
54 355 m 1
 363 355 l 1
 363 299 l 1
 54 299 l 1
 54 355 l 1
EndSplineSet
Validated: 1
EndChar

StartChar: period
Encoding: 46 46 17
Width: 213
VWidth: 691
GlyphClass: 2
Flags: W
HStem: -5 104<63.9172 145.676>
VStem: 54 102<5.47482 89.2654>
LayerCount: 2
Fore
SplineSet
54 46 m 0
 54 74 74 99 106 99 c 0
 137 99 156 75 156 48 c 0
 156 20 134 -5 103 -5 c 0
 72 -5 54 19 54 46 c 0
EndSplineSet
Validated: 1
EndChar

StartChar: slash
Encoding: 47 47 18
Width: 320
VWidth: 907
GlyphClass: 2
Flags: W
VStem: 54 210
LayerCount: 2
Fore
SplineSet
54 -12 m 1
 201 726 l 1
 264 724 l 1
 119 -12 l 1
 54 -12 l 1
EndSplineSet
Validated: 1
EndChar

StartChar: zero
Encoding: 48 48 19
Width: 633
VWidth: 892
GlyphClass: 2
Flags: W
HStem: -13 74<246.894 394.894> 629 70<250.358 388.101>
VStem: 54 68<197.423 469.779> 517 60<194.164 470.912>
LayerCount: 2
Fore
SplineSet
577 333 m 0
 577 190 549 118 459 48 c 0
 411 10 364 -13 318 -13 c 0
 279 -13 235 -4 192 32 c 0
 105 101 54 185 54 321 c 0
 54 471 97 573 189 646 c 0
 233 682 276 699 317 699 c 0
 358 699 401 681 445 645 c 0
 534 575 577 474 577 333 c 0
321 629 m 0
 288 629 254 614 221 586 c 0
 153 527 122 442 122 325 c 0
 122 216 152 158 216 104 c 0
 248 76 293 61 326 61 c 0
 362 61 396 79 432 110 c 0
 497 166 517 222 517 334 c 0
 517 446 485 527 419 585 c 0
 386 613 354 629 321 629 c 0
EndSplineSet
Validated: 1
EndChar

StartChar: one
Encoding: 49 49 20
Width: 249
VWidth: 883
GlyphClass: 2
Flags: W
VStem: 134 60<-3 556>
LayerCount: 2
Fore
SplineSet
134 694 m 2
 137 694 144 692 146 692 c 0
 158 692 155 694 182 694 c 2
 190 694 l 1
 194 -3 l 1
 134 -3 l 1
 129 556 l 1
 103 508 95 494 77 461 c 2
 72 449 l 1
 54 498 l 1
 134 694 l 2
EndSplineSet
Validated: 1
EndChar

StartChar: two
Encoding: 50 50 21
Width: 682
VWidth: 895
GlyphClass: 2
Flags: W
HStem: -22 53<298.58 510.367> 418 54<133.099 210.219> 644 53<205.235 381.881>
VStem: 62 54<489.04 574.132> 228 58<488.875 564.953> 488 56<382.332 548.153>
LayerCount: 2
Fore
SplineSet
62 529 m 0
 62 560 84 601 104 614 c 1
 104 615 l 1
 108 624 l 1
 147 663 210 697 281 697 c 0
 329 697 374 685 415 666 c 0
 448 651 497 624 517 576 c 0
 535 532 544 495 544 462 c 4
 544 426 533 392 511 344 c 0
 453 228 337 124 228 65 c 1
 243 63 259 62 274 59 c 2
 379 32 l 2
 389 30 400 31 410 31 c 0
 475 31 538 54 572 105 c 2
 578 114 l 1
 626 85 l 1
 618 75 l 1
 570 4 486 -22 408 -22 c 0
 396 -22 385 -22 373 -20 c 0
 329 -17 293 4 266 7 c 2
 262 7 l 2
 244 10 227 13 209 13 c 0
 170 13 129 3 88 -5 c 0
 86 -7 85 -5 83 -5 c 0
 69 -5 54 5 54 22 c 0
 54 54 120 66 128 74 c 0
 252 134 399 245 459 366 c 0
 479 409 488 434 488 462 c 0
 488 488 480 515 462 558 c 0
 452 584 421 602 389 619 c 0
 353 636 318 644 282 644 c 0
 254 644 228 638 204 625 c 1
 248 612 286 580 286 532 c 0
 286 529 286 526 286 523 c 0
 283 481 231 418 177 418 c 0
 117 418 62 471 62 529 c 0
174 472 m 0
 206 472 228 517 228 530 c 0
 228 558 194 578 165 578 c 0
 160 578 156 578 151 576 c 0
 149 576 146 574 139 576 c 1
 132 568 127 560 124 552 c 0
 121 544 116 537 116 529 c 0
 116 505 146 472 174 472 c 0
EndSplineSet
Validated: 1
EndChar

StartChar: three
Encoding: 51 51 22
Width: 553
VWidth: 895
GlyphClass: 2
Flags: W
HStem: -14 57<180.297 378.872> 316 61<177.175 275.413> 316 53<206.572 382.78> 634 58<180.446 360.248>
VStem: 54 58<99.584 210.612> 68 61<476.248 575.264> 437 59<97.6423 270.002 421.462 554.174>
LayerCount: 2
Fore
SplineSet
253 316 m 0xda
 222 316 175 318 175 347 c 0
 175 364 198 372 206 377 c 1xda
 218 374 243 369 277 369 c 0
 301 369 329 372 360 380 c 0
 408 398 434 434 434 482 c 0
 434 504 429 528 417 552 c 0
 389 594 398 591 350 620 c 1
 328 628 303 634 276 634 c 0
 205 634 129 604 129 539 c 0
 129 525 133 510 141 492 c 1
 136 469 125 456 108 456 c 4
 72 456 68 486 68 539 c 0xb6
 68 546 68 552 70 559 c 0
 94 587 111 687 276 692 c 1
 422 690 471 571 474 571 c 0
 484 538 490 510 490 484 c 0
 490 436 473 398 442 355 c 0
 434 341 437 347 434 340 c 1
 460 303 l 2
 487 262 496 228 496 189 c 0
 496 162 493 133 486 100 c 0
 469 40 428 17 396 0 c 1
 370 -8 341 -14 312 -14 c 0
 231 -14 151 11 151 14 c 0
 108 36 86 64 66 107 c 0
 59 125 54 141 54 158 c 0
 54 182 64 204 82 222 c 0
 90 230 99 235 107 235 c 0
 121 235 134 222 134 207 c 0
 134 189 112 173 112 153 c 0
 112 117 148 73 180 65 c 1
 211 51 241 43 274 43 c 0
 297 43 323 46 352 54 c 0
 413 71 437 116 437 186 c 0
 437 246 410 298 362 311 c 0
 349 316 330 318 310 318 c 0
 292 318 271 316 253 316 c 0xda
EndSplineSet
Validated: 1
EndChar

StartChar: four
Encoding: 52 52 23
Width: 665
VWidth: 895
GlyphClass: 2
Flags: W
HStem: 279 53<148 462 524 608.457>
VStem: 462 62<-10.3675 279 332 598.919>
LayerCount: 2
Fore
SplineSet
491 -12 m 0
 473 -12 468 -1 461 7 c 1
 462 279 l 1
 78 279 l 2
 73 281 70 282 65 284 c 2
 54 301 l 1
 56 306 55 311 58 314 c 2
 304 691 l 2
 309 699 322 704 332 704 c 0
 351 704 358 692 366 680 c 1
 292 576 221 437 148 332 c 1
 462 332 l 1
 462 575 l 2
 462 587 473 600 493 600 c 0
 512 600 524 588 524 575 c 2
 524 332 l 1
 583 332 l 2
 597 332 609 320 609 306 c 0
 609 292 597 279 583 279 c 2
 524 279 l 1
 522 12 l 2
 522 2 511 -12 491 -12 c 0
EndSplineSet
Validated: 1
EndChar

StartChar: five
Encoding: 53 53 24
Width: 600
VWidth: 874
GlyphClass: 2
Flags: W
HStem: -18 55<200.927 418.048> 398 53<156.361 373.948> 626 55<130.184 505.861>
VStem: 72 56<425 638> 489 57<128.284 311.33>
LayerCount: 2
Fore
SplineSet
515 641 m 1
 455 628 388 626 323 626 c 0
 258 626 192 630 128 638 c 1
 128 425 l 1
 160 439 209 451 265 451 c 4
 331 451 411 434 496 374 c 1
 532 338 536 284 544 230 c 0
 546 222 546 211 546 203 c 0
 546 92 447 -1 427 -2 c 0
 381 -5 344 -18 308 -18 c 0
 153 -18 78 78 61 102 c 2
 54 112 l 1
 78 125 l 2
 80 127 81 126 83 128 c 2
 103 139 l 1
 122 116 174 37 308 37 c 0
 337 37 369 41 405 51 c 0
 431 58 489 138 489 214 c 0
 489 220 489 226 488 232 c 0
 485 260 479 294 457 333 c 1
 383 382 318 398 264 398 c 0
 181 398 127 362 114 354 c 0
 111 352 107 349 100 349 c 0
 85 349 72 362 72 377 c 2
 72 670 l 2
 72 685 87 696 102 696 c 2
 106 696 l 1
 177 686 250 681 323 681 c 0
 383 681 449 683 505 696 c 1
 515 641 l 1
EndSplineSet
Validated: 1
EndChar

StartChar: six
Encoding: 54 54 25
Width: 559
VWidth: 901
GlyphClass: 2
Flags: W
HStem: -13 57<218.367 381.835> 340 56<199.931 372.267> 642 57<226.458 388.349>
VStem: 54 48<303.886 507.608> 451 45<530.046 580.916> 456 47<109.273 265.109>
LayerCount: 2
Fore
SplineSet
113 228 m 1xf4
 127 162 157 103 208 71 c 0
 234 53 264 44 296 44 c 0
 335 44 375 58 408 82 c 1
 408 83 l 1
 437 103 456 136 456 184 c 0
 456 233 435 280 403 298 c 0
 401 300 402 299 400 301 c 0
 366 327 325 340 284 340 c 0
 236 340 190 321 154 283 c 0
 137 263 125 246 113 228 c 1xf4
103 303 m 1
 144 364 213 396 281 396 c 0
 332 396 385 380 427 348 c 0
 476 316 503 250 503 184 c 0xf4
 503 118 479 67 435 36 c 0
 394 4 345 -13 296 -13 c 0
 146 -13 78 130 60 252 c 0
 57 272 56 291 54 313 c 0
 54 331 54 347 54 365 c 0
 54 408 55 453 68 497 c 0
 92 582 152 651 230 685 c 0
 258 695 284 699 310 699 c 0
 392 699 459 649 495 570 c 0
 497 567 496 561 496 558 c 0
 496 545 487 530 473 530 c 0
 465 530 454 537 451 547 c 0xf8
 422 610 371 642 311 642 c 4
 291 642 272 640 250 632 c 0
 186 604 133 549 113 479 c 0
 103 442 102 402 102 359 c 0
 102 345 102 328 102 314 c 0
 102 307 103 306 103 303 c 1
EndSplineSet
Validated: 1
EndChar

StartChar: seven
Encoding: 55 55 26
Width: 580
VWidth: 888
GlyphClass: 2
Flags: W
HStem: 638 56<104 464>
VStem: 54 52<584 638> 255 52<-12.8557 14.5484>
LayerCount: 2
Fore
SplineSet
54 583 m 1
 54 671 l 2
 54 688 70 692 78 692 c 2
 498 694 l 2
 508 694 524 687 524 672 c 0
 524 669 526 664 524 661 c 2
 307 -7 l 1
 299 -10 294 -14 282 -14 c 0
 280 -14 279 -13 277 -13 c 0
 264 -10 260 -2 255 8 c 1
 464 638 l 1
 104 638 l 1
 106 584 l 1
 54 583 l 1
EndSplineSet
Validated: 1
EndChar

StartChar: eight
Encoding: 56 56 27
Width: 516
VWidth: 903
GlyphClass: 2
Flags: W
HStem: -12 56<179.128 343.409> 649 55<180.539 316.623>
VStem: 54 54<111.063 240.725> 88 52<497.759 606.783> 360 54<479.822 602.505> 406 54<101.918 254.013>
LayerCount: 2
Fore
SplineSet
406 170 m 0xe4
 406 275 341 301 258 340 c 1
 156 287 108 230 108 186 c 0
 108 98 179 44 262 44 c 2
 266 44 l 2
 337 46 406 87 406 170 c 0xe4
175 625 m 1
 160 606 140 578 140 552 c 0
 140 508 186 461 256 410 c 1
 285 434 322 464 342 483 c 0
 356 496 360 518 360 538 c 0xd8
 360 555 356 571 348 586 c 0
 331 618 308 649 260 649 c 0
 238 649 203 638 175 625 c 1
256 704 m 0
 346 704 414 631 414 537 c 0xd8
 414 501 400 463 372 439 c 0
 352 421 323 395 300 376 c 1
 365 348 430 318 447 236 c 1
 457 223 460 195 460 175 c 2
 460 163 l 2
 457 42 352 -12 263 -12 c 2
 256 -12 l 2
 159 -9 54 58 54 186 c 2
 54 192 l 2xe4
 54 195 55 199 57 202 c 0
 55 207 56 212 56 217 c 0
 56 276 123 326 206 369 c 1
 213 374 l 1
 150 416 88 484 88 553 c 0
 88 579 95 607 115 636 c 0
 122 646 130 656 140 666 c 0
 147 674 160 680 170 683 c 0
 198 693 232 704 256 704 c 0
EndSplineSet
Validated: 1
EndChar

StartChar: nine
Encoding: 57 57 28
Width: 560
VWidth: 901
GlyphClass: 2
Flags: W
HStem: -13 56<159.228 330.251> 289 56<188.144 358.893> 641 58<176.254 346.018>
VStem: 54 49<93.6223 147.4 420.891 577.779> 456 49<178.392 383.168>
LayerCount: 2
Fore
SplineSet
446 459 m 1
 427 551 374 641 264 641 c 0
 225 641 184 628 151 604 c 1
 150 604 l 1
 121 584 103 550 103 502 c 0
 103 453 124 406 156 388 c 0
 158 386 157 387 159 385 c 0
 193 359 235 345 276 345 c 0
 324 345 369 365 405 403 c 0
 422 423 434 441 446 459 c 1
456 384 m 1
 417 324 344 289 276 289 c 0
 225 289 173 306 131 338 c 0
 82 370 54 436 54 502 c 0
 54 568 79 619 123 650 c 0
 164 682 215 699 264 699 c 0
 412 699 480 557 498 436 c 0
 501 416 503 396 505 374 c 2
 505 321 l 2
 505 278 504 234 491 190 c 0
 467 105 408 37 330 3 c 0
 302 -7 276 -13 250 -13 c 0
 168 -13 93 29 57 108 c 0
 55 111 54 117 54 120 c 0
 54 133 63 148 77 148 c 0
 85 148 96 141 99 131 c 0
 128 68 188 43 248 43 c 0
 268 43 288 46 310 54 c 0
 374 82 425 137 445 207 c 0
 455 244 456 285 456 328 c 2
 456 384 l 1
EndSplineSet
Validated: 1
EndChar

StartChar: colon
Encoding: 58 58 29
Width: 215
VWidth: 808
GlyphClass: 2
Flags: W
HStem: 3 107<68.0521 149.34> 263 104<63.6192 146.34>
VStem: 57 102<12.7346 99.6641 274.238 355.803>
LayerCount: 2
Fore
SplineSet
57 54 m 0
 57 82 77 110 109 110 c 0
 140 110 159 83 159 56 c 0
 159 28 138 3 107 3 c 0
 76 3 57 27 57 54 c 0
54 314 m 0
 54 342 74 367 106 367 c 0
 137 367 156 341 156 314 c 0
 156 286 135 263 104 263 c 0
 73 263 54 287 54 314 c 0
EndSplineSet
Validated: 1
EndChar

StartChar: semicolon
Encoding: 59 59 30
Width: 218
VWidth: 757
GlyphClass: 2
Flags: W
HStem: -209 21G<57 94> 221 107<71.8145 153.34>
VStem: 61 102<230.387 317.98> 88 60<-123.389 -2.47091>
LayerCount: 2
Fore
SplineSet
61 273 m 0xe0
 61 301 81 328 113 328 c 0
 144 328 163 301 163 274 c 0
 163 246 142 221 111 221 c 0
 80 221 61 246 61 273 c 0xe0
68 2 m 0
 68 30 89 52 116 52 c 4
 149 52 159 30 159 -2 c 0
 159 -12 155 -25 148 -32 c 1
 146 -100 116 -156 72 -209 c 1
 54 -185 l 1
 74 -152 88 -121 88 -85 c 0xd0
 88 -67 85 -51 78 -31 c 1
 70 -23 68 -10 68 2 c 0
EndSplineSet
Validated: 1
EndChar

StartChar: less
Encoding: 60 60 31
Width: 406
VWidth: 828
GlyphClass: 2
Flags: W
HStem: 175 303
VStem: 54 296
LayerCount: 2
Fore
SplineSet
146 328 m 1
 350 226 l 1
 323 175 l 1
 240 216 160 257 77 298 c 1
 65 303 l 1
 54 324 l 1
 70 354 l 1
 153 396 238 436 321 478 c 1
 347 427 l 1
 146 328 l 1
EndSplineSet
Validated: 1
EndChar

StartChar: equal
Encoding: 61 61 32
Width: 419
VWidth: 834
GlyphClass: 2
Flags: W
HStem: 247 59<54 363> 354 57<54 363>
VStem: 54 309<247 306 354 411>
LayerCount: 2
Fore
SplineSet
54 411 m 1
 363 411 l 1
 363 354 l 1
 54 354 l 1
 54 411 l 1
54 306 m 1
 363 306 l 1
 363 247 l 1
 54 247 l 1
 54 306 l 1
EndSplineSet
Validated: 1
EndChar

StartChar: greater
Encoding: 62 62 33
Width: 406
VWidth: 824
GlyphClass: 2
Flags: W
HStem: 175 304
VStem: 54 296
LayerCount: 2
Fore
SplineSet
258 328 m 1
 58 428 l 1
 83 479 l 1
 166 437 252 396 335 354 c 1
 350 324 l 1
 340 303 l 1
 255 259 169 218 82 175 c 1
 54 226 l 1
 258 328 l 1
EndSplineSet
Validated: 1
EndChar

StartChar: question
Encoding: 63 63 34
Width: 422
VWidth: 905
GlyphClass: 2
Flags: W
HStem: -8 83<171.76 240.42> 646 63<145.783 273.633>
VStem: 167 79<-2.68063 70.3426> 172 58<139 373.179> 316 51<484.336 605.753>
LayerCount: 2
Fore
SplineSet
167 32 m 0xe8
 167 56 182 75 206 75 c 0
 229 75 246 56 246 34 c 0
 246 12 228 -8 204 -8 c 0
 181 -8 167 10 167 32 c 0xe8
208 709 m 0
 302 709 367 652 367 553 c 0
 367 510 359 462 345 442 c 0
 312 408 306 398 253 374 c 0
 243 370 230 373 230 354 c 0
 230 351 229 344 231 337 c 2
 229 139 l 1
 175 139 l 1
 172 368 l 2xd8
 172 396 182 418 214 430 c 1
 257 438 299 476 307 512 c 1
 315 526 316 534 316 541 c 0
 316 549 313 555 315 563 c 0
 310 592 296 612 267 629 c 0
 250 637 231 646 208 646 c 0
 157 646 133 617 111 579 c 0
 104 566 98 547 80 547 c 2
 77 547 l 2
 67 549 54 558 54 580 c 0
 54 584 54 588 54 591 c 0
 54 599 65 613 68 620 c 0
 78 637 86 649 99 663 c 0
 130 696 151 700 184 707 c 0
 192 709 200 709 208 709 c 0
EndSplineSet
Validated: 1
EndChar

StartChar: at
Encoding: 64 64 35
Width: 751
VWidth: 915
GlyphClass: 2
Flags: W
HStem: 3 55<273.908 450.082> 148 64<310.453 438.297> 568 58<319.722 443.658> 696 59<286.215 462.38>
VStem: 54 59<235.434 509.102> 168 67<292.197 484.159> 511 55<285.805 500.176 571 592> 634 61<247.424 510.956>
LayerCount: 2
Fore
SplineSet
536 700 m 0
 643 629 695 525 695 382 c 0
 695 238 645 135 536 64 c 0
 477 25 419 3 360 3 c 0
 307 3 257 20 204 56 c 0
 99 126 54 234 54 370 c 0
 54 520 105 627 215 701 c 0
 269 737 320 755 374 755 c 0
 428 755 482 736 536 700 c 0
505 650 m 0
 462 679 417 696 374 696 c 0
 331 696 288 680 245 651 c 0
 153 588 113 499 113 370 c 0
 113 253 150 162 235 102 c 0
 278 73 320 58 362 58 c 0
 408 58 455 77 503 110 c 0
 592 171 634 256 634 380 c 0
 634 501 592 589 505 650 c 0
304 238 m 0
 328 221 351 212 374 212 c 0
 397 212 421 221 445 238 c 0
 493 272 515 323 515 394 c 0
 515 460 496 509 450 542 c 0
 426 559 405 568 383 568 c 0
 359 568 332 556 306 538 c 0
 258 505 235 457 235 389 c 0
 235 321 256 272 304 238 c 0
270 182 m 0
 201 226 168 295 168 385 c 0
 168 477 201 544 271 588 c 0
 308 612 346 626 383 626 c 0
 416 626 450 615 483 593 c 0
 493 586 503 578 511 571 c 1
 511 594 l 1
 566 592 l 1
 562 177 l 1
 506 180 l 1
 510 211 l 1
 498 201 488 190 475 182 c 0
 441 160 407 148 373 148 c 0
 339 148 304 159 270 182 c 0
EndSplineSet
Validated: 1
EndChar

StartChar: A
Encoding: 65 65 36
Width: 575
VWidth: 734
GlyphClass: 2
Flags: HW
HStem: 224 53<196 376>
LayerCount: 2
Fore
SplineSet
286 523 m 1
 196 277 l 1
 376 277 l 1
 286 523 l 1
465 3 m 1
 391 224 l 1
 177 224 l 1
 108 3 l 1
 45 3 l 1
 248 577 l 1
 326 577 l 1
 527 3 l 1
 465 3 l 1
EndSplineSet
Validated: 1
EndChar

StartChar: B
Encoding: 66 66 37
Width: 524
VWidth: 733
GlyphClass: 2
Flags: HW
HStem: 4 40<112 358> 264 53<113 337> 527 46<116 305>
VStem: 54 59<46 262 314 530> 370 63<348 470> 407 54<91 214>
LayerCount: 2
Fore
SplineSet
394 282 m 1xf8
 438 243 461 196 461 150 c 0xf4
 461 104 422 4 344 4 c 0
 343 4 l 1
 54 4 l 1
 54 573 l 1
 258 573 l 2
 356 573 433 478 433 425 c 0
 433 379 427 335 394 282 c 1xf8
297 317 m 2
 354 318 370 393 370 422 c 0xf8
 370 455 316 526 251 527 c 2
 116 530 l 1
 113 314 l 1
 297 317 l 2
313 44 m 2
 314 44 l 0
 371 44 407 117 407 152 c 0xf4
 407 202 354 264 314 264 c 2
 113 262 l 1
 112 46 l 1
 313 44 l 2
EndSplineSet
Validated: 1
EndChar

StartChar: C
Encoding: 67 67 38
Width: 587
VWidth: 729
GlyphClass: 2
Flags: HW
HStem: -4 46<252 416> 523 43<250 413>
VStem: 54 68<166 396>
LayerCount: 2
Fore
SplineSet
335 43 m 2
 384 43 478 72 505 103 c 1
 517 97 531 84 531 70 c 2
 531 63 l 1
 464 21 371 -4 325 -4 c 2
 321 -4 l 2
 278 -4 235 8 189 34 c 0
 95 87 54 165 54 270 c 0
 54 385 93 473 192 528 c 0
 240 554 284 566 327 566 c 0
 395 566 485 526 529 487 c 1
 521 481 511 465 503 459 c 1
 471 481 394 523 332 523 c 0
 295 523 259 513 223 491 c 0
 148 443 122 367 122 274 c 0
 122 188 153 120 223 75 c 0
 257 54 292 43 328 43 c 2
 335 43 l 2
EndSplineSet
Validated: 1
EndChar

StartChar: D
Encoding: 68 68 39
Width: 618
VWidth: 732
GlyphClass: 2
Flags: HW
HStem: 1 48<129 387> 522 54<121 344>
VStem: 54 63<51 522> 495 67<151 388>
LayerCount: 2
Fore
SplineSet
54 570 m 1
 87 572 125 575 158 575 c 0
 206 575 248 572 272 570 c 0
 318 566 366 559 414 530 c 0
 513 474 562 391 562 277 c 0
 560 160 515 64 447 33 c 1
 388 2 279 1 192 1 c 0
 168 1 143 2 124 2 c 2
 54 2 l 1
 54 570 l 1
226 521 m 0
 200 521 154 522 120 522 c 5
 117 62 l 4
 117 58 121 53 128 51 c 0
 145 49 164 49 183 49 c 0
 192 49 202 49 211 49 c 0
 288 49 368 50 405 75 c 0
 479 122 495 186 495 279 c 0
 495 372 457 441 383 489 c 0
 347 512 264 519 226 521 c 0
EndSplineSet
Validated: 1
EndChar

StartChar: E
Encoding: 69 69 40
Width: 460
VWidth: 736
GlyphClass: 2
Flags: HW
HStem: 4 49<117 398> 261 48<118 404> 526 49<119 397>
VStem: 56 61<53 261 309 526>
LayerCount: 2
Fore
SplineSet
54 572 m 1
 69 574 91 573 109 575 c 2
 396 575 l 1
 398 561 398 542 398 526 c 1
 119 526 l 1
 119 522 l 2
 119 452 118 383 118 313 c 2
 118 309 l 1
 403 309 l 1
 404 302 404 294 404 286 c 0
 404 278 404 269 404 261 c 1
 117 261 l 1
 117 53 l 1
 398 53 l 1
 398 4 l 1
 116 4 l 1
 56 4 l 1
 54 572 l 1
EndSplineSet
Validated: 1
EndChar

StartChar: F
Encoding: 70 70 41
Width: 460
VWidth: 736
GlyphClass: 2
Flags: HW
HStem: 261 48<118 404> 526 49<119 397>
VStem: 54 63<4 261 309 526>
LayerCount: 2
Fore
SplineSet
403 309 m 1
 404 302 404 294 404 286 c 0
 404 278 404 269 404 261 c 1
 117 261 l 1
 117 57 l 1
 116 4 l 1
 54 4 l 1
 54 572 l 1
 391 575 l 2
 396 575 l 1
 398 561 398 542 398 526 c 1
 119 526 l 1
 119 522 l 2
 119 452 118 383 118 313 c 2
 118 309 l 1
 403 309 l 1
EndSplineSet
Validated: 1
EndChar

StartChar: G
Encoding: 71 71 42
Width: 598
VWidth: 728
GlyphClass: 2
Flags: HW
HStem: -8 49<252 422> 201 46<332 480> 522 43<261 421>
VStem: 54 69<163 387> 480 62<73 202>
LayerCount: 2
Fore
SplineSet
335 40 m 2
 374 40 441 60 480 81 c 1
 480 202 l 1
 332 201 l 1
 332 247 l 1
 402 247 472 247 542 247 c 1
 542 76 l 1
 498 17 410 -8 352 -8 c 0
 342 -8 330 -8 322 -6 c 0
 279 -6 235 7 189 33 c 0
 95 86 54 164 54 269 c 0
 54 384 101 473 200 528 c 0
 248 554 292 565 335 565 c 0
 403 565 492 526 536 487 c 1
 528 477 522 449 514 441 c 1
 495 456 471 490 430 501 c 1
 401 515 366 522 338 522 c 0
 301 522 267 511 231 489 c 0
 156 441 123 365 123 272 c 0
 123 186 153 118 223 73 c 0
 257 52 292 40 328 40 c 2
 335 40 l 2
EndSplineSet
Validated: 1
EndChar

StartChar: H
Encoding: 72 72 43
Width: 573
VWidth: 734
GlyphClass: 2
Flags: HW
HStem: 253 57<117 456>
VStem: 54 61<2 253 310 575> 456 61<2 253 312 576>
LayerCount: 2
Fore
SplineSet
55 2 m 1
 54 58 54 111 54 163 c 0
 54 248 55 330 55 415 c 0
 55 467 55 519 54 575 c 1
 118 575 l 1
 118 571 l 2
 117 310 l 1
 456 312 l 1
 455 576 l 1
 514 576 l 1
 514 572 l 2
 514 504 517 403 517 336 c 2
 517 313 l 2
 515 218 515 56 515 4 c 2
 515 2 l 1
 457 2 l 1
 456 253 l 1
 116 253 l 1
 116 232 115 213 115 195 c 0
 115 146 117 107 117 59 c 0
 117 41 116 22 116 2 c 1
 55 2 l 1
EndSplineSet
Validated: 1
EndChar

StartChar: I
Encoding: 73 73 44
Width: 292
VWidth: 721
GlyphClass: 2
Flags: HW
HStem: -14 35<57 116 179 235> 541 29<66 118 177 233>
VStem: 116 63<21 541>
LayerCount: 2
Fore
SplineSet
236 21 m 1
 235 -14 l 1
 184 -12 l 1
 54 -14 l 1
 57 21 l 1
 116 21 l 1
 118 541 l 1
 66 541 l 1
 66 570 l 1
 233 570 l 1
 233 542 l 1
 177 541 l 1
 179 21 l 1
 236 21 l 1
EndSplineSet
Validated: 1
EndChar

StartChar: J
Encoding: 74 74 45
Width: 494
VWidth: 728
GlyphClass: 2
Flags: HW
HStem: -11 46<166 302>
VStem: 376 58<87 572>
LayerCount: 2
Fore
SplineSet
434 109 m 1
 406 39 350 -5 235 -11 c 0
 192 -11 150 1 102 27 c 0
 66 46 34 94 34 104 c 0
 34 112 51 126 68 126 c 0
 83 126 114 82 136 68 c 0
 172 46 208 35 242 35 c 2
 247 35 l 2
 295 35 348 78 376 108 c 1
 376 574 l 1
 398 574 422 574 439 572 c 1
 434 109 l 1
EndSplineSet
Validated: 1
EndChar

StartChar: K
Encoding: 75 75 46
Width: 493
VWidth: 731
GlyphClass: 2
Flags: HW
VStem: 54 59<0 242 330 574>
LayerCount: 2
Fore
SplineSet
56 575 m 1
 76 575 98 575 113 573 c 1
 111 330 l 1
 368 573 l 1
 432 573 l 1
 140 289 l 1
 437 -1 l 1
 414 -1 383 1 366 1 c 5
 113 242 l 1
 113 0 l 1
 54 0 l 1
 56 575 l 1
EndSplineSet
Validated: 1
EndChar

StartChar: L
Encoding: 76 76 47
Width: 513
VWidth: 735
GlyphClass: 2
Flags: HW
HStem: 4 49<113 455>
VStem: 56 57<4 7 53 571>
LayerCount: 2
Fore
SplineSet
457 53 m 1
 455 35 456 18 454 4 c 1
 113 7 l 1
 113 4 l 1
 56 4 l 1
 54 571 l 1
 64 571 75 571 85 571 c 0
 95 571 105 571 113 570 c 1
 113 53 l 1
 457 53 l 1
EndSplineSet
Validated: 1
EndChar

StartChar: M
Encoding: 77 77 48
Width: 716
VWidth: 725
GlyphClass: 2
Flags: HW
VStem: 54 63<-1 523> 61 58<-9 523> 607 57<-7 539>
LayerCount: 2
Fore
SplineSet
669 574 m 1xa0
 667 486 666 42 664 -7 c 1
 607 -7 l 1
 607 27 l 2
 607 117 609 63 609 187 c 0
 609 246 609 345 607 519 c 2
 607 539 l 1
 366 138 l 1
 114 523 l 1
 116 504 l 2
 117 485 117 463 117 442 c 0
 117 421 117 402 117 384 c 2
 117 330 l 2xa0
 117 242 119 99 119 11 c 2
 119 -9 l 1
 61 -10 l 1x60
 59 179 56 388 54 574 c 1
 57 574 60 574 64 574 c 0
 78 574 95 572 113 572 c 0
 126 572 138 572 146 570 c 1
 366 227 l 1
 561 578 l 1
 669 574 l 1xa0
EndSplineSet
Validated: 1
EndChar

StartChar: N
Encoding: 78 78 49
Width: 573
VWidth: 734
GlyphClass: 2
Flags: HW
VStem: 53 58<-1 465> 456 59<113 573>
LayerCount: 2
Fore
SplineSet
56 -1 m 1
 54 201 55 371 53 573 c 1
 116 573 l 1
 461 97 l 1
 455 575 l 1
 514 574 l 1
 515 1 l 1
 457 1 l 1
 455 4 l 1
 110 487 l 1
 114 -1 l 1
 56 -1 l 1
EndSplineSet
Validated: 1
EndChar

StartChar: O
Encoding: 79 79 50
Width: 689
VWidth: 728
GlyphClass: 2
Flags: HW
HStem: -10 53<260 436> 524 50<268 426>
VStem: 58 70<164 370> 568 61<163 374>
LayerCount: 2
Fore
SplineSet
58 263 m 0
 58 413 155 574 344 574 c 0
 529 574 629 416 629 272 c 0
 629 118 537 -10 345 -10 c 0
 175 -10 58 131 58 263 c 0
568 264 m 0
 568 378 493 524 349 524 c 0
 198 524 128 376 128 256 c 0
 128 114 237 43 347 43 c 0
 457 43 568 116 568 264 c 0
EndSplineSet
Validated: 1
EndChar

StartChar: P
Encoding: 80 80 51
Width: 560
VWidth: 731
GlyphClass: 2
Flags: HW
HStem: 228 43<116 368> 526 48<116 345>
VStem: 60 56<2 230 272 454 458 526> 445 60<327 456>
LayerCount: 2
Fore
SplineSet
243 228 m 2
 116 230 l 1
 116 142 116 90 116 2 c 1
 54 2 l 1
 60 454 l 2
 62 456 60 456 62 458 c 2
 62 574 l 1
 121 574 l 2
 198 573 353 577 404 550 c 0
 478 512 505 449 505 379 c 0
 505 308 472 287 393 253 c 0
 352 235 289 228 248 228 c 0
 245 228 245 228 243 228 c 2
269 272 m 0
 298 272 351 278 379 294 c 0
 399 305 445 331 445 384 c 0
 445 437 417 482 359 508 c 0
 331 522 304 528 276 528 c 0
 248 528 180 528 116 526 c 1
 116 274 l 1
 148 272 178 271 205 271 c 0
 233 271 255 272 269 272 c 0
EndSplineSet
Validated: 1
EndChar

StartChar: Q
Encoding: 81 81 52
Width: 716
VWidth: 720
GlyphClass: 2
Flags: HW
HStem: -19 56<259 418> 517 50<269 424>
VStem: 54 69<159 375> 572 61<172 378>
LayerCount: 2
Fore
SplineSet
517 124 m 1
 551 162 572 204 572 270 c 0
 572 363 535 432 461 480 c 0
 424 503 386 517 348 517 c 0
 310 517 273 505 236 482 c 0
 160 433 123 360 123 263 c 0
 123 173 157 118 228 71 c 0
 265 48 301 37 338 37 c 0
 379 37 421 50 460 76 c 2
 475 87 l 1
 355 180 l 5
 397 216 l 5
 517 124 l 1
633 269 m 0
 633 190 607 137 563 90 c 1
 660 17 l 1
 618 -20 l 1
 521 53 l 1
 508 45 497 38 483 30 c 0
 429 -1 381 -19 330 -19 c 0
 286 -19 240 -5 192 24 c 0
 93 80 54 149 54 260 c 0
 54 384 102 468 204 527 c 0
 252 556 297 568 343 568 c 0
 389 568 437 555 485 525 c 0
 584 468 633 385 633 269 c 0
EndSplineSet
Validated: 1
EndChar

StartChar: R
Encoding: 82 82 53
Width: 560
VWidth: 731
GlyphClass: 2
Flags: HW
HStem: 235 42<116 164 236 366> 529 46<114 353>
VStem: 54 62<237 456 528 575> 445 60<334 460>
LayerCount: 2
Fore
SplineSet
159 236 m 1
 116 237 l 1
 116 149 116 87 116 -1 c 1
 54 -1 l 1
 55 575 l 1
 225 575 l 0
 380 575 479 520 479 392 c 0
 479 293 352 235 236 235 c 1
 501 -1 l 1
 422 -1 l 1
 159 236 l 1
269 285 m 0
 328 285 419 321 419 397 c 0
 419 452 362 523 290 523 c 0
 285 523 281 523 276 522 c 1
 114 521 l 1
 116 287 l 1
 269 285 l 0
EndSplineSet
Validated: 1
EndChar

StartChar: S
Encoding: 83 83 54
Width: 633
VWidth: 729
GlyphClass: 2
Flags: HW
HStem: -9 49<224 441> 245 49<223 445> 529 51<233 426>
VStem: 57 65<357 454> 512 39<446 469> 515 62<97 203>
LayerCount: 2
Fore
SplineSet
53 116 m 0xf4
 53 128 69 134 75 134 c 0
 91 134 107 118 112 114 c 1
 114 109 l 1
 157 66 254 37 339 37 c 0
 424 37 516 70 516 155 c 0
 516 208 438 245 371 245 c 0
 238 245 57 262 57 405 c 0
 57 529 212 578 320 580 c 0
 321 580 322 580 323 580 c 0
 371 580 513 552 551 484 c 0
 552 482 553 479 553 477 c 0
 553 468 544 460 535 460 c 0
 533 460 530 461 528 462 c 0
 456 504 373 529 325 529 c 0
 241 529 122 476 122 396 c 0
 122 304 287 294 386 294 c 0
 507 294 578 215 578 139 c 0
 578 51 467 -9 364 -9 c 0
 249 -9 146 8 77 76 c 0
 69 82 53 102 53 116 c 0xf4
EndSplineSet
Validated: 1
EndChar

StartChar: T
Encoding: 84 84 55
Width: 654
VWidth: 720
GlyphClass: 2
Flags: HW
HStem: 518 50<54 297 358 598>
VStem: 292 63<-1 518>
LayerCount: 2
Fore
SplineSet
598 566 m 1
 598 558 598 549 598 540 c 0
 598 531 598 523 597 517 c 1
 358 518 l 1
 355 -1 l 1
 292 -1 l 1
 297 518 l 1
 54 518 l 1
 54 568 l 1
 598 566 l 1
EndSplineSet
Validated: 1
EndChar

StartChar: U
Encoding: 85 85 56
Width: 606
VWidth: 718
GlyphClass: 2
Flags: HW
HStem: -9 58<237 402>
VStem: 58 63<153 573> 484 67<130 190 234 573>
LayerCount: 2
Fore
SplineSet
171 26 m 0
 92 76 66 152 58 251 c 1
 54 573 l 1
 119 574 l 1
 121 261 l 2
 122 181 152 101 207 78 c 4
 241 64 272 48 301 48 c 4
 330 48 382 48 414 73 c 4
 447 99 484 151 484 193 c 2
 484 573 l 1
 543 574 l 1
 546 462 551 354 551 234 c 0
 551 208 550 183 548 157 c 1
 519 57 436 -9 334 -9 c 0
 326 -9 210 0 171 26 c 0
EndSplineSet
Validated: 1
EndChar

StartChar: V
Encoding: 86 86 57
Width: 595
VWidth: 725
GlyphClass: 2
Flags: HW
LayerCount: 2
Fore
SplineSet
270 -5 m 1
 54 575 l 1
 113 575 l 1
 302 88 l 1
 481 575 l 1
 539 575 l 1
 333 -5 l 1
 270 -5 l 1
EndSplineSet
Validated: 1
EndChar

StartChar: W
Encoding: 87 87 58
Width: 785
VWidth: 730
GlyphClass: 2
Flags: HW
VStem: 54 41<549 571> 689 40<547 572>
LayerCount: 2
Fore
SplineSet
393 483 m 1
 270 -1 l 1
 224 -1 l 1
 54 571 l 1
 95 571 l 1
 247 104 l 1
 371 567 l 1
 412 567 l 1
 558 104 l 1
 689 572 l 1
 729 572 l 1
 585 -1 l 1
 539 -1 l 1
 393 483 l 1
EndSplineSet
Validated: 1
EndChar

StartChar: X
Encoding: 88 88 59
Width: 578
VWidth: 724
GlyphClass: 2
Flags: HW
LayerCount: 2
Fore
SplineSet
522 -10 m 1
 455 -10 l 1
 292 252 l 1
 133 -10 l 1
 58 -10 l 1
 257 298 l 1
 54 573 l 1
 122 573 l 1
 287 342 l 1
 445 574 l 1
 519 576 l 1
 326 294 l 1
 522 -10 l 1
EndSplineSet
Validated: 1
EndChar

StartChar: Y
Encoding: 89 89 60
Width: 573
VWidth: 731
GlyphClass: 2
Flags: HW
VStem: 252 63<-2 276>
LayerCount: 2
Fore
SplineSet
313 277 m 1
 315 -2 l 1
 252 -2 l 1
 251 276 l 1
 54 566 l 1
 122 566 l 1
 281 342 l 1
 444 570 l 1
 517 570 l 1
 313 277 l 1
EndSplineSet
Validated: 1
EndChar

StartChar: Z
Encoding: 90 90 61
Width: 606
VWidth: 731
GlyphClass: 2
Flags: HW
HStem: 0 54<159 551> 520 54<58 425>
LayerCount: 2
Fore
SplineSet
54 0 m 1
 425 520 l 1
 404 520 l 2
 58 518 l 1
 58 574 l 1
 536 573 l 1
 411 400 290 222 159 53 c 1
 180 53 l 2
 551 52 l 1
 551 0 l 1
 386 0 219 0 54 0 c 1
EndSplineSet
Validated: 1
EndChar

StartChar: bracketleft
Encoding: 91 91 62
Width: 230
VWidth: 908
GlyphClass: 2
Flags: W
HStem: -7 44<117 174> 690 38<116 172>
VStem: 54 63<37 690>
LayerCount: 2
Fore
SplineSet
54 -5 m 1
 57 727 l 1
 172 728 l 1
 172 691 l 1
 116 690 l 1
 117 37 l 1
 174 37 l 1
 174 -7 l 1
 54 -5 l 1
EndSplineSet
Validated: 1
EndChar

StartChar: backslash
Encoding: 92 92 63
Width: 315
VWidth: 912
GlyphClass: 2
Flags: W
VStem: 54 206
LayerCount: 2
Fore
SplineSet
54 741 m 1
 107 741 l 1
 260 0 l 1
 210 -2 l 1
 54 741 l 1
EndSplineSet
Validated: 1
EndChar

StartChar: bracketright
Encoding: 93 93 64
Width: 231
VWidth: 908
GlyphClass: 2
Flags: W
HStem: -7 38<58 114> 685 43<56 113>
VStem: 114 60<32 685>
LayerCount: 2
Fore
SplineSet
175 727 m 1
 174 -5 l 1
 58 -7 l 1
 58 31 l 1
 114 32 l 1
 113 685 l 1
 54 685 l 1
 56 728 l 1
 175 727 l 1
EndSplineSet
Validated: 1
EndChar

StartChar: asciicircum
Encoding: 94 94 65
Width: 460
VWidth: 1091
GlyphClass: 2
Flags: HW
HStem: 695 243
LayerCount: 2
Fore
SplineSet
182 784 m 5
 267 784 l 5
 404 609 l 5
 335 609 l 5
 233 732 l 5
 220 733 l 5
 121 611 l 5
 54 611 l 5
 182 784 l 5
EndSplineSet
Validated: 1
EndChar

StartChar: underscore
Encoding: 95 95 66
Width: 496
VWidth: 681
GlyphClass: 2
Flags: W
HStem: -238 66<54 440>
LayerCount: 2
Fore
SplineSet
54 -172 m 1
 440 -172 l 1
 440 -238 l 1
 54 -238 l 1
 54 -172 l 1
EndSplineSet
Validated: 1
EndChar

StartChar: grave
Encoding: 96 96 67
Width: 262
VWidth: 1116
GlyphClass: 2
Flags: W
HStem: 808 148
VStem: 54 152
LayerCount: 2
Fore
SplineSet
54 956 m 1
 134 956 l 1
 206 808 l 1
 174 811 l 1
 54 956 l 1
EndSplineSet
Validated: 1
EndChar

StartChar: a
Encoding: 97 97 68
Width: 494
VWidth: 940
GlyphClass: 2
Flags: W
HStem: -13 54<177.344 308.477> 405 56<186.349 310.918>
VStem: 48 54<123.126 316.41> 386 46<-15 56 126.337 324.613 398 454>
LayerCount: 2
Fore
SplineSet
250 405 m 0
 226 405 200 394 174 375 c 0
 126 339 102 289 102 219 c 0
 102 149 125 102 173 66 c 4
 196 49 220 41 243 41 c 0
 266 41 289 48 312 65 c 0
 363 101 384 152 384 226 c 0
 384 294 365 345 317 379 c 0
 293 397 272 405 250 405 c 0
255 461 m 0
 299 461 357 427 386 398 c 1
 386 456 l 1
 432 454 l 1
 432 -17 l 1
 386 -15 l 1
 386 56 l 1
 354 24 295 -13 246 -13 c 0
 214 -13 181 -1 148 22 c 0
 80 66 48 131 48 221 c 0
 48 311 80 378 148 422 c 0
 184 446 219 461 255 461 c 0
EndSplineSet
Validated: 1
EndChar

StartChar: b
Encoding: 98 98 69
Width: 512
VWidth: 905
GlyphClass: 2
Flags: W
HStem: -13 54<197.945 326.385> 408 54<195.983 316.749>
VStem: 68 50<-14 56 127.79 324.31 400 750> 403 53<124.625 317.857>
LayerCount: 2
Fore
SplineSet
120 228 m 0
 120 154 142 102 193 66 c 0
 216 49 238 41 261 41 c 0
 284 41 308 49 331 66 c 0
 379 102 403 153 403 223 c 0
 403 293 378 341 330 377 c 0
 304 396 279 408 255 408 c 0
 233 408 212 399 188 381 c 0
 140 347 120 296 120 228 c 0
118 400 m 1
 149 431 204 462 250 462 c 0
 286 462 321 449 357 425 c 0
 425 381 456 313 456 223 c 0
 456 133 425 66 357 22 c 0
 324 -1 291 -13 259 -13 c 0
 210 -13 149 25 118 56 c 1
 118 -14 l 1
 68 -14 l 1
 68 750 l 1
 120 750 l 1
 118 400 l 1
EndSplineSet
Validated: 1
EndChar

StartChar: c
Encoding: 99 99 70
Width: 461
VWidth: 939
GlyphClass: 2
Flags: W
HStem: -2 55<176.707 352.433> 405 52<192.832 313.644>
VStem: 54 60<116.343 319.612> 297 108<305.384 385.529>
LayerCount: 2
Fore
SplineSet
368 84 m 1
 381 82 395 65 395 48 c 0
 395 43 393 39 390 36 c 0
 353 12 319 -2 283 -2 c 0
 251 -2 178 6 146 28 c 0
 80 72 54 127 54 214 c 0
 54 309 85 375 155 423 c 0
 188 445 220 457 252 457 c 0
 303 457 370 421 398 384 c 0
 403 379 405 372 405 364 c 0
 405 359 404 354 404 347 c 0
 404 325 401 313 383 303 c 0
 373 298 362 293 352 293 c 0
 344 293 333 298 323 303 c 0
 303 313 297 325 297 345 c 0
 297 363 303 376 315 386 c 1
 295 398 275 405 256 405 c 0
 233 405 210 397 187 379 c 0
 136 343 114 291 114 217 c 0
 114 149 129 108 177 74 c 0
 200 57 266 53 288 53 c 0
 315 53 339 66 368 84 c 1
EndSplineSet
Validated: 1
EndChar

StartChar: d
Encoding: 100 100 71
Width: 512
VWidth: 907
GlyphClass: 2
Flags: W
HStem: -20 53<186.597 313.32> 400 56<192.049 318.735>
VStem: 54 54<117.444 311.671> 394 50<-22 48 118.351 319.613 393 737>
LayerCount: 2
Fore
SplineSet
257 400 m 0
 233 400 206 389 180 370 c 0
 132 334 108 286 108 216 c 0
 108 146 132 95 180 59 c 0
 203 42 227 33 250 33 c 0
 273 33 297 42 320 59 c 0
 371 95 393 147 393 221 c 0
 393 289 373 340 325 374 c 0
 301 392 279 400 257 400 c 0
262 456 m 0
 308 456 363 424 394 393 c 1
 394 737 l 1
 444 737 l 1
 444 -22 l 1
 394 -22 l 1
 394 48 l 1
 362 16 302 -20 253 -20 c 0
 221 -20 187 -9 154 14 c 0
 86 58 54 126 54 216 c 0
 54 306 87 372 155 416 c 0
 191 440 226 456 262 456 c 0
EndSplineSet
Validated: 1
EndChar

StartChar: e
Encoding: 101 101 72
Width: 480
VWidth: 938
GlyphClass: 2
Flags: W
HStem: -17 55<176.606 335.984> 196 62<103 383> 406 55<178.296 306.08>
VStem: 43 60<258 324.813>
LayerCount: 2
Fore
SplineSet
103 258 m 1
 383 258 l 1
 375 312 353 351 312 380 c 0
 288 398 265 406 242 406 c 0
 219 406 198 399 174 381 c 0
 133 352 110 312 103 258 c 1
437 228 m 0
 437 219 438 213 438 206 c 0
 438 203 438 199 437 196 c 2
 102 196 l 1
 107 140 127 96 168 65 c 0
 192 47 238 38 261 38 c 0
 262 38 l 0
 325 38 369 82 378 90 c 0
 379 91 381 92 383 92 c 0
 393 92 406 74 406 61 c 0
 406 12 309 -14 256 -17 c 0
 254 -17 251 -17 249 -17 c 0
 213 -17 164 -3 134 18 c 0
 74 59 47 117 42 192 c 0
 42 214 42 236 42 258 c 1
 43 258 l 1
 51 332 82 387 141 426 c 0
 174 448 207 461 240 461 c 0
 273 461 305 448 338 425 c 0
 397 386 427 331 435 260 c 1
 435 255 l 2
 437 250 437 240 437 228 c 0
EndSplineSet
Validated: 1
EndChar

StartChar: f
Encoding: 102 102 73
Width: 422
VWidth: 902
GlyphClass: 2
Flags: W
HStem: 360 45<56 163 218 341> 674 50<225.026 310.173>
VStem: 164 50<0 360 404 662.406> 315 51<604.557 666.656>
LayerCount: 2
Fore
SplineSet
315 639 m 4
 315 657 286 674 270 674 c 4
 241 674 214 652 214 623 c 6
 216 404 l 1
 341 405 l 1
 341 360 l 1
 218 360 l 1
 220 0 l 1
 166 0 l 1
 163 360 l 1
 56 360 l 1
 56 402 l 1
 166 403 l 1
 164 621 l 5
 164 623 l 6
 164 680 212 721 266 724 c 5
 270 724 l 6
 315 724 366 687 366 639 c 4
 366 620 357 604 339 604 c 4
 325 604 314 615 314 629 c 4
 314 632 315 635 315 639 c 4
EndSplineSet
Validated: 1
EndChar

StartChar: g
Encoding: 103 103 74
Width: 475
VWidth: 838
GlyphClass: 2
Flags: W
HStem: -381 48<169.223 327.635> -53 50<171.936 339.785> 27 53<148.631 288.504> 393 49<153.455 291.531>
VStem: 12 65<146.531 319.914> 27 58<-261.81 -132.012> 94 54<-30.3467 36.701> 367 62<153.716 320.446> 412 64<-262.237 -118.764>
LayerCount: 2
Fore
SplineSet
148 37 m 1xfb
 151 32 153 27 153 22 c 0
 153 14 148 27 148 15 c 2
 148 3 l 2
 148 -7 148 -17 143 -31 c 1
 181 -14 216 -3 253 -3 c 0
 290 -3 328 -14 366 -32 c 0
 441 -68 476 -120 476 -191 c 0
 476 -264 439 -314 364 -350 c 0
 323 -369 283 -381 242 -381 c 0
 205 -381 170 -372 133 -354 c 0
 59 -318 27 -266 27 -197 c 0xf680
 27 -146 44 -106 77 -73 c 1
 78 -73 l 1
 93 -40 94 -25 94 3 c 0
 94 40 82 49 68 83 c 1
 68 83 70 82 68 84 c 0
 27 122 12 171 12 230 c 0
 12 314 46 372 117 413 c 0
 151 433 185 442 219 442 c 0
 255 442 291 431 327 411 c 0
 329 414 373 502 383 522 c 1
 459 522 l 1
 373 376 l 1
 410 339 429 295 429 236 c 0
 429 157 393 99 323 60 c 0
 282 38 248 27 210 27 c 0
 190 27 167 30 148 37 c 1xfb
256 -53 m 0
 166 -53 85 -124 85 -199 c 0
 85 -250 119 -286 172 -313 c 0
 198 -326 222 -333 248 -333 c 0
 276 -333 304 -323 333 -309 c 0
 387 -282 412 -244 412 -190 c 0
 412 -136 386 -98 333 -71 c 0
 307 -58 282 -53 256 -53 c 0
151 370 m 0
 100 339 77 296 77 233 c 0
 77 175 97 130 145 102 c 0
 169 88 192 80 216 80 c 0
 242 80 267 88 294 105 c 0
 342 134 367 175 367 236 c 0xfb
 367 296 344 340 296 369 c 0
 272 383 248 393 224 393 c 0
 200 393 175 385 151 370 c 0
EndSplineSet
Validated: 1
EndChar

StartChar: h
Encoding: 104 104 75
Width: 516
VWidth: 913
GlyphClass: 2
Flags: W
HStem: 405 52<200.452 325.607>
VStem: 70 52<0 328.863 396 753> 407 53<0 321.361>
LayerCount: 2
Fore
SplineSet
97 753 m 2
 121 753 l 1
 122 396 l 1
 136 403 l 1
 168 431 217 457 261 457 c 0
 294 457 328 446 361 423 c 0
 427 379 457 318 460 230 c 1
 458 -1 l 1
 403 0 l 1
 405 43 407 187 407 207 c 2
 407 233 l 2
 404 298 383 344 335 377 c 0
 311 394 289 405 265 405 c 0
 242 405 218 396 194 379 c 0
 163 357 135 327 125 291 c 1
 122 254 120 162 120 94 c 0
 120 66 120 44 122 31 c 2
 122 0 l 1
 70 0 l 1
 70 5 l 2
 70 163 68 590 68 748 c 2
 68 755 l 1
 76 753 89 753 97 753 c 2
EndSplineSet
Validated: 1
EndChar

StartChar: i
Encoding: 105 105 76
Width: 207
VWidth: 884
GlyphClass: 2
Flags: W
HStem: 558 100<64.3431 141.606>
VStem: 54 97<567.735 648.35> 73 55<-2 461>
LayerCount: 2
Fore
SplineSet
131 461 m 1xa0
 128 -2 l 1
 73 -2 l 1
 73 461 l 5
 131 461 l 1xa0
54 605 m 0xc0
 54 632 75 658 104 658 c 0
 132 658 151 635 151 609 c 0
 151 582 129 558 100 558 c 0
 72 558 54 579 54 605 c 0xc0
EndSplineSet
Validated: 1
EndChar

StartChar: j
Encoding: 106 106 77
Width: 215
VWidth: 819
GlyphClass: 2
Flags: W
HStem: 558 102<75.0147 154.18>
VStem: 67 97<568.014 650.265> 85 56<-250.697 456>
LayerCount: 2
Fore
SplineSet
16 -348 m 1xa0
 53 -294 80 -236 85 -172 c 0
 85 456 l 1
 143 456 l 5
 141 -172 l 4
 139 -242 85 -315 41 -366 c 1
 16 -348 l 1xa0
67 609 m 0xc0
 67 636 85 660 114 660 c 0
 142 660 164 635 164 609 c 0
 164 582 141 558 112 558 c 0
 84 558 67 583 67 609 c 0xc0
EndSplineSet
Validated: 1
EndChar

StartChar: k
Encoding: 107 107 78
Width: 435
VWidth: 912
GlyphClass: 2
Flags: W
VStem: 57 49<-3 218.321 280 755>
LayerCount: 2
Fore
SplineSet
106 160 m 1
 108 -3 l 1
 57 -3 l 1
 54 755 l 1
 106 755 l 1
 106 280 l 1
 325 459 l 1
 403 462 l 1
 173 266 l 5
 406 0 l 1
 338 -3 l 1
 134 221 l 1
 100 211 113 182 106 160 c 1
EndSplineSet
Validated: 1
EndChar

StartChar: l
Encoding: 108 108 79
Width: 170
VWidth: 976
GlyphClass: 2
Flags: W
VStem: 57 57<-2 640>
LayerCount: 2
Fore
SplineSet
114 640 m 1
 114 576 l 2
 114 369 112 233 112 3 c 2
 112 -2 l 1
 54 -2 l 1
 57 640 l 1
 114 640 l 1
EndSplineSet
Validated: 1
EndChar

StartChar: m
Encoding: 109 109 80
Width: 878
VWidth: 923
GlyphClass: 2
Flags: W
HStem: 393 61<174.905 328.214> 400 50<548.599 684.998>
VStem: 54 69<400 451> 54 59<-2 343.066> 403 65<-2 323.753> 752 65<-2 336.115>
LayerCount: 2
Fore
SplineSet
123 400 m 1x6c
 156 428 212 454 256 454 c 0xac
 292 454 327 443 363 420 c 0
 380 410 392 397 406 385 c 0
 414 382 424 376 434 376 c 0
 465 376 486 403 506 416 c 0
 543 438 577 450 613 450 c 0
 649 450 683 440 720 418 c 0
 780 382 819 326 822 241 c 1
 819 173 819 77 817 8 c 2
 817 -2 l 1
 752 -2 l 1
 752 8 l 2
 754 56 756 215 758 243 c 0
 755 303 737 345 689 376 c 0
 665 391 641 400 617 400 c 0x6c
 553 400 472 329 471 278 c 2
 468 65 l 2
 468 -2 l 1
 403 -2 l 1
 403 5 l 2
 403 272 l 0
 402 319 368 346 332 369 c 0
 308 384 282 393 258 393 c 0
 197 393 133 360 116 316 c 1
 113 -2 l 1
 54 -2 l 1x9c
 54 451 l 1
 123 451 l 1
 123 400 l 1x6c
EndSplineSet
Validated: 1
EndChar

StartChar: n
Encoding: 110 110 81
Width: 514
VWidth: 923
GlyphClass: 2
Flags: W
HStem: 398 61<205.872 333.925>
VStem: 68 69<405 456> 68 59<1 326.646> 412 62<-1 319.766>
LayerCount: 2
Fore
SplineSet
412 -1 m 1xd0
 412 35 412 187 412 207 c 2
 412 233 l 2
 409 296 389 340 341 372 c 0
 317 389 294 398 270 398 c 0
 246 398 223 389 199 372 c 0
 167 350 140 324 130 291 c 1
 127 1 l 1
 68 1 l 1xb0
 68 456 l 1
 137 456 l 1
 137 405 l 1
 145 412 155 418 163 425 c 0
 199 447 233 459 267 459 c 0
 301 459 336 448 372 425 c 0
 438 382 470 318 473 233 c 1
 474 -1 l 1
 412 -1 l 1xd0
EndSplineSet
Validated: 1
EndChar

StartChar: o
Encoding: 111 111 82
Width: 473
VWidth: 921
GlyphClass: 2
Flags: W
HStem: -10 64<166.227 301.51> 398 61<172.22 304.376>
VStem: 30 68<122.926 318.385> 380 63<130.794 318.847>
LayerCount: 2
Fore
SplineSet
132 425 m 0
 168 447 203 459 237 459 c 0
 271 459 305 448 341 425 c 0
 410 381 443 313 443 223 c 0
 443 133 411 72 341 28 c 0
 303 4 265 -10 227 -10 c 0
 194 -10 158 2 124 24 c 0
 56 68 30 129 30 216 c 0
 30 310 61 377 132 425 c 0
311 82 m 0
 359 115 380 156 380 224 c 0
 380 290 359 339 311 372 c 0
 287 389 263 398 239 398 c 0
 215 398 193 391 169 374 c 0
 118 340 98 288 98 218 c 0
 98 153 115 111 163 78 c 0
 187 61 209 54 232 54 c 0
 258 54 285 64 311 82 c 0
EndSplineSet
Validated: 1
EndChar

StartChar: p
Encoding: 112 112 83
Width: 525
VWidth: 930
GlyphClass: 2
Flags: W
HStem: 0 54<204.862 328.895> 408 54<210.2 336.354>
VStem: 68 62<-364 61 128.504 323.509 393 464> 415 54<138.573 324.02>
LayerCount: 2
Fore
SplineSet
342 84 m 0
 390 120 415 157 415 227 c 0
 415 297 392 345 344 381 c 0
 320 399 298 408 274 408 c 0
 250 408 227 399 203 382 c 0
 152 346 131 296 131 222 c 0
 131 156 150 114 198 80 c 0
 221 63 243 54 266 54 c 0
 292 54 316 66 342 84 c 0
261 0 m 0
 215 0 161 30 130 61 c 1
 130 -364 l 1
 68 -364 l 1
 68 464 l 1
 130 464 l 1
 130 393 l 1
 163 426 216 462 270 462 c 0
 303 462 336 450 369 427 c 0
 437 383 469 316 469 226 c 0
 469 136 436 82 368 38 c 0
 331 14 297 0 261 0 c 0
EndSplineSet
Validated: 1
EndChar

StartChar: q
Encoding: 113 113 84
Width: 515
VWidth: 929
GlyphClass: 2
Flags: W
HStem: -3 56<188.5 324.076> 405 52<189.62 315.142>
VStem: 54 55<132.327 320.34> 394 53<-360 58 124.504 320.079 389 461>
LayerCount: 2
Fore
SplineSet
321 379 m 0
 297 397 275 405 251 405 c 0
 227 405 204 394 180 377 c 0
 132 341 109 293 109 223 c 0
 109 153 132 116 180 80 c 0
 206 62 231 53 257 53 c 0
 280 53 302 59 326 76 c 0
 374 110 394 152 394 218 c 0
 394 292 372 343 321 379 c 0
394 58 m 1
 365 29 310 -3 264 -3 c 0
 228 -3 193 10 156 34 c 0
 88 78 54 133 54 223 c 0
 54 313 87 379 155 423 c 0
 188 446 220 457 253 457 c 0
 286 457 319 447 352 425 c 0
 369 415 381 402 394 389 c 1
 394 461 l 1
 447 462 l 1
 447 -360 l 1
 394 -360 l 1
 394 58 l 1
EndSplineSet
Validated: 1
EndChar

StartChar: r
Encoding: 114 114 85
Width: 490
VWidth: 925
GlyphClass: 2
Flags: W
HStem: 403 53<200.176 327.669>
VStem: 68 63<59.6875 339.628 398 454> 68 53<-7 287.217> 341 93<229.89 290.987 291 308.439>
LayerCount: 2
Fore
SplineSet
431 296 m 1028x90
131 398 m 1xd0
 160 427 216 456 260 456 c 0
 293 456 326 445 359 422 c 0
 395 400 426 369 431 291 c 0
 434 291 434 273 434 270 c 0
 434 244 414 222 386 222 c 0
 357 222 341 245 341 269 c 0
 341 292 355 311 377 318 c 1
 362 351 372 350 334 377 c 0
 310 394 287 403 264 403 c 0
 241 403 216 394 193 377 c 0
 162 355 135 325 125 289 c 1
 122 252 120 148 120 80 c 0
 120 66 120 59 120 55 c 0
 120 51 120 48 121 42 c 2
 121 -7 l 1
 68 -7 l 1xb0
 68 454 l 1
 131 454 l 1
 131 398 l 1xd0
EndSplineSet
Validated: 1
EndChar

StartChar: s
Encoding: 115 115 86
Width: 468
VWidth: 923
GlyphClass: 2
Flags: W
HStem: -14 55<167.506 333.814> 401 55<159.782 295.95>
VStem: 63 59<290.395 368.75> 353 56<60.8396 153.651>
LayerCount: 2
Fore
SplineSet
353 115 m 0
 353 130 322 171 307 176 c 0
 208 209 87 174 64 296 c 0
 63 303 63 308 63 315 c 0
 63 357 77 400 114 421 c 0
 155 445 196 456 235 456 c 0
 280 456 374 422 374 362 c 0
 374 350 353 346 342 346 c 0
 335 346 331 347 329 349 c 0
 301 377 279 401 236 401 c 0
 208 401 181 394 153 375 c 0
 134 362 122 356 122 324 c 2
 122 323 l 2
 125 309 128 305 146 283 c 0
 178 246 289 243 315 238 c 0
 381 224 409 159 409 121 c 0
 409 70 390 30 349 7 c 0
 317 -11 295 -14 269 -14 c 2
 230 -14 l 2
 175 -14 102 13 68 56 c 1
 68 58 l 1
 61 61 61 69 61 76 c 2
 61 82 l 2
 61 99 79 110 98 110 c 0
 103 110 105 110 108 107 c 0
 137 70 203 41 251 41 c 0
 311 41 353 54 353 115 c 0
EndSplineSet
Validated: 1
EndChar

StartChar: t
Encoding: 116 116 87
Width: 428
VWidth: 948
GlyphClass: 2
Flags: W
HStem: -7 60<204.382 305.89> 401 58<29 141 200 330>
VStem: 129 56<74.226 272.172> 136 56<173.151 382.912> 144 56<171.882 400.857 461 578>
LayerCount: 2
Fore
SplineSet
372 71 m 1xe0
 364 61 318 0 264 -5 c 0
 257 -7 249 -7 242 -7 c 0
 210 -7 180 2 165 26 c 0
 138 65 134 113 129 166 c 1
 129 172 l 2xe0
 129 196 136 256 136 273 c 0xd0
 138 324 141 361 141 384 c 0
 141 392 141 398 139 401 c 2
 29 401 l 1
 29 456 l 1
 144 459 l 1
 144 579 l 1
 200 578 l 1
 200 461 l 1
 330 459 l 1
 330 405 l 1
 200 403 l 1xc8
 201 401 201 401 201 399 c 0
 201 397 201 395 201 393 c 0
 201 374 197 337 192 274 c 0xd0
 192 260 185 189 185 171 c 0
 185 135 190 99 204 73 c 0
 212 58 230 53 250 53 c 2
 261 53 l 2
 300 56 341 107 355 126 c 0
 359 132 363 134 367 134 c 0
 377 134 386 119 386 109 c 0
 386 108 386 108 386 107 c 0
 382 84 378 83 372 71 c 1xe0
EndSplineSet
Validated: 1
EndChar

StartChar: u
Encoding: 117 117 88
Width: 533
VWidth: 913
GlyphClass: 2
Flags: W
HStem: -17 58<193.53 325.766>
VStem: 56 61<119.63 456> 394 71<-17 34.4198> 396 61<238.727 461>
LayerCount: 2
Fore
SplineSet
457 461 m 1xd0
 460 310 462 138 465 -17 c 1
 394 -17 l 1
 394 36 l 1xe0
 358 7 310 -20 262 -20 c 0
 229 -20 194 -9 160 13 c 0
 92 55 61 114 56 197 c 1
 56 273 54 380 54 456 c 1
 117 459 l 1
 117 201 l 2
 120 140 142 96 190 65 c 0
 214 48 238 41 260 41 c 0
 323 41 385 103 400 151 c 1
 396 461 l 1
 457 461 l 1xd0
EndSplineSet
Validated: 1
EndChar

StartChar: v
Encoding: 118 118 89
Width: 601
VWidth: 928
GlyphClass: 2
Flags: W
LayerCount: 2
Fore
SplineSet
546 456 m 1
 340 -3 l 1
 272 -3 l 1
 54 454 l 1
 116 454 l 1
 306 61 l 1
 485 456 l 1
 546 456 l 1
EndSplineSet
Validated: 1
EndChar

StartChar: w
Encoding: 119 119 90
Width: 813
VWidth: 926
GlyphClass: 2
Flags: W
LayerCount: 2
Fore
SplineSet
544 10 m 1
 406 382 l 1
 276 10 l 1
 221 10 l 1
 54 459 l 1
 108 459 l 1
 248 89 l 1
 381 459 l 1
 384 459 l 2
 397 459 412 461 425 461 c 2
 434 461 l 1
 432 454 l 1
 571 88 l 1
 704 459 l 1
 757 459 l 1
 600 10 l 1
 544 10 l 1
EndSplineSet
Validated: 1
EndChar

StartChar: x
Encoding: 120 120 91
Width: 545
VWidth: 923
GlyphClass: 2
Flags: W
LayerCount: 2
Fore
SplineSet
485 5 m 1
 413 5 l 1
 272 187 l 1
 131 5 l 1
 54 5 l 1
 235 235 l 1
 61 461 l 1
 131 461 l 1
 270 279 l 1
 413 462 l 1
 490 462 l 1
 308 232 l 1
 485 5 l 1
EndSplineSet
Validated: 1
EndChar

StartChar: y
Encoding: 121 121 92
Width: 554
VWidth: 827
GlyphClass: 2
Flags: W
HStem: -232 61<184.554 340.108> 8 61<188.102 353.287>
VStem: 60 61<136.062 456> 418 60<32.75 64 116.088 392.111> 427 59<123.651 461>
LayerCount: 2
Back
SplineSet
140 -372 m 1
 116 -370 93 -371 69 -369 c 1
 219 3 l 1
 -1 456 l 1
 61 456 l 1
 250 69 l 1
 429 456 l 1
 490 456 l 1
 285 3 l 1
 140 -372 l 1
EndSplineSet
Fore
SplineSet
418 64 m 1xf0
 382 35 304 8 256 8 c 0
 148 8 66 102 60 197 c 1
 60 273 54 380 54 456 c 1
 117 456 l 1
 121 201 l 1
 124 136 183 69 254 69 c 0
 317 69 409 103 424 151 c 1
 427 461 l 1
 486 461 l 1xe8
 478 -83 l 1
 437 -181 396 -232 266 -232 c 0
 158 -232 86 -179 80 -115 c 1
 141 -111 l 1
 148 -124 194 -171 264 -171 c 0
 332 -171 401 -118 414 -61 c 1
 418 64 l 1xf0
EndSplineSet
Validated: 1
EndChar

StartChar: z
Encoding: 122 122 93
Width: 537
VWidth: 923
GlyphClass: 2
Flags: W
HStem: 7 58<165 480> 410 56<63 358>
LayerCount: 2
Fore
SplineSet
358 410 m 1
 261 412 162 411 63 413 c 1
 63 467 l 1
 475 466 l 1
 370 333 264 201 165 65 c 1
 481 63 l 1
 480 7 l 1
 54 7 l 1
 154 141 258 276 358 410 c 1
EndSplineSet
Validated: 1
EndChar

StartChar: braceleft
Encoding: 123 123 94
Width: 327
VWidth: 913
GlyphClass: 2
Flags: W
HStem: -2 56<233.661 262> 695 56<242.812 265.75>
VStem: 180 50<59.1753 238.435 432.03 686.069> 190 52<107.042 310.977>
LayerCount: 2
Fore
SplineSet
230 100 m 0xe0
 230 71 238 59 269 54 c 1
 261 -2 l 1
 195 8 180 61 180 110 c 0xe0
 180 153 190 203 190 240 c 0xd0
 190 272 184 298 164 316 c 0
 151 326 131 345 131 345 c 1
 54 377 l 1
 131 400 l 2
 133 400 151 427 164 437 c 0
 178 450 180 472 180 503 c 0
 180 534 177 569 177 605 c 0
 177 673 191 739 265 751 c 1
 271 695 l 1
 238 687 230 658 230 620 c 0xe0
 230 589 236 553 236 517 c 0
 236 473 229 427 196 394 c 0
 188 386 178 381 168 376 c 1
 178 371 187 368 195 360 c 0
 232 328 242 284 242 241 c 0xd0
 242 190 230 144 230 100 c 0xe0
EndSplineSet
Validated: 1
EndChar

StartChar: bar
Encoding: 124 124 95
Width: 162
VWidth: 918
GlyphClass: 2
Flags: W
VStem: 54 52<0 767>
LayerCount: 2
Fore
SplineSet
54 0 m 1
 57 768 l 1
 106 767 l 1
 106 -2 l 1
 54 0 l 1
EndSplineSet
Validated: 1
EndChar

StartChar: braceright
Encoding: 125 125 96
Width: 327
VWidth: 913
GlyphClass: 2
Flags: W
HStem: -2 56<64 92.2739> 695 56<60.125 83.1881>
VStem: 83 51<107.042 309.119> 90 55<433.919 618.543> 97 48<59.3789 238.435 518.687 683.398>
LayerCount: 2
Fore
SplineSet
97 100 m 0xc8
 97 144 83 190 83 241 c 0xe0
 83 284 94 328 131 360 c 0
 139 368 148 371 158 376 c 1
 148 381 137 386 129 394 c 0
 96 427 90 473 90 517 c 0
 90 553 95 589 95 620 c 0
 95 658 87 687 54 695 c 1
 61 751 l 1
 135 739 149 673 149 605 c 0
 149 569 145 534 145 503 c 0xd0
 145 472 148 450 162 437 c 0
 175 427 193 400 195 400 c 2
 271 377 l 1
 195 345 l 1
 195 345 175 326 162 316 c 0
 142 298 134 272 134 240 c 0xe0
 134 203 145 153 145 110 c 0
 145 61 131 8 65 -2 c 1
 57 54 l 1
 88 59 97 71 97 100 c 0xc8
EndSplineSet
Validated: 1
EndChar

StartChar: asciitilde
Encoding: 126 126 97
Width: 596
VWidth: 920
GlyphClass: 2
Flags: HW
LayerCount: 2
Fore
SplineSet
195 400 m 0
 168 400 130 376 82 328 c 2
 79 326 l 1
 51 374 l 1
 69 392 139 458 196 458 c 0
 234 458 272 439 328 402 c 0
 348 389 377 378 398 378 c 0
 459 378 496 434 503 450 c 2
 504 453 l 1
 544 424 l 1
 544 423 l 2
 544 395 488 324 400 324 c 0
 366 324 338 333 305 355 c 0
 251 391 222 400 195 400 c 0
EndSplineSet
Validated: 1
EndChar

StartChar: exclamdown
Encoding: 161 161 99
Width: 205
VWidth: 907
GlyphClass: 2
Flags: W
HStem: 607 99<62.8382 140.985>
VStem: 54 95<615.385 697.676> 61 82<15.375 279.255> 75 56<285.603 543.25>
LayerCount: 2
Fore
SplineSet
103 8 m 0xa0
 91 8 79 17 61 32 c 1
 61 34 l 2xa0
 63 292 70 340 75 503 c 1
 87 532 95 545 103 547 c 0
 113 545 121 531 131 505 c 1x90
 134 360 143 227 143 60 c 2
 143 34 l 1
 129 19 116 8 103 8 c 0xa0
149 655 m 0xc0
 149 629 132 607 104 607 c 0
 75 607 54 629 54 656 c 0
 54 682 74 706 102 706 c 0
 131 706 149 682 149 655 c 0xc0
EndSplineSet
Validated: 1
EndChar

StartChar: cent
Encoding: 162 162 100
Width: 488
VWidth: 916
GlyphClass: 2
Flags: W
HStem: 172 52<270 335.536> 592 49<265 343.52>
VStem: 54 60<305.419 504.705> 202 63<25.25 174.991 238 564 638.296 762> 210 62<3 172> 373 31<261.411 278.942> 399 33<508.575 533.119>
LayerCount: 2
Fore
SplineSet
54 400 m 0xec
 54 516 108 593 202 632 c 1
 202 762 l 1
 265 762 l 1
 265 641 l 1
 323 634 400 618 429 529 c 0
 431 526 432 525 432 523 c 0
 432 510 416 500 399 492 c 1
 391 555 323 592 279 592 c 2
 265 592 l 1
 265 224 l 1xf2
 272 224 l 2
 309 226 359 251 373 282 c 0
 376 284 376 284 378 284 c 0
 390 284 404 262 404 247 c 0
 404 240 403 238 398 235 c 0
 378 206 318 179 270 172 c 1
 272 0 l 1
 210 3 l 1
 206 181 l 1
 186 188 167 191 149 204 c 0
 83 248 54 313 54 400 c 0xec
189 564 m 1
 138 528 114 479 114 405 c 0
 114 334 139 278 190 247 c 1
 202 238 l 1
 205 564 l 1
 189 564 l 1
EndSplineSet
Validated: 1
EndChar

StartChar: yen
Encoding: 165 165 101
Width: 573
VWidth: 913
GlyphClass: 2
Flags: W
HStem: 173 58<134 251 315 442> 275 57<128 251 313 435>
VStem: 251 62<-3 173 231 275 332 382>
LayerCount: 2
Fore
SplineSet
313 275 m 1
 313 231 l 1
 442 231 l 1
 442 173 l 1
 315 173 l 1
 315 -3 l 1
 252 -3 l 1
 252 173 l 1
 134 173 l 1
 134 231 l 1
 251 231 l 1
 251 275 l 1
 128 275 l 1
 128 332 l 1
 251 332 l 1
 251 382 l 1
 54 746 l 1
 122 746 l 1
 281 466 l 1
 444 748 l 1
 517 750 l 1
 313 384 l 1
 313 332 l 1
 435 332 l 1
 435 275 l 1
 313 275 l 1
EndSplineSet
Validated: 1
EndChar

StartChar: brokenbar
Encoding: 166 166 102
Width: 190
VWidth: 916
GlyphClass: 2
Flags: W
VStem: 54 74<481 806> 61 67<-2 388 481 759.571>
LayerCount: 2
Fore
SplineSet
61 481 m 1x40
 54 806 l 1
 128 806 l 1x80
 129 481 l 1
 61 481 l 1x40
128 388 m 1x40
 134 -2 l 1
 62 -2 l 1
 61 388 l 1
 128 388 l 1x40
EndSplineSet
Validated: 1
EndChar

StartChar: section
Encoding: 167 167 103
Width: 476
VWidth: 900
GlyphClass: 2
Flags: W
HStem: -14 55<230.338 333.18> -13 61<165.336 259.847> 201 59<160.906 286.39> 636 56<163.349 312.196>
VStem: 54 57<496.605 593.565> 62 55<308.257 381.773> 355 58<285.182 385.406> 363 57<72.1595 172.273>
LayerCount: 2
Fore
SplineSet
287 253 m 0x36
 328 253 355 315 355 354 c 0
 355 369 332 392 308 400 c 0
 272 412 236 413 202 416 c 1
 188 411 174 406 160 398 c 0
 128 379 117 358 117 330 c 0
 120 322 119 316 122 308 c 1
 150 284 196 260 224 260 c 0
 227 260 238 259 245 257 c 0
 260 255 274 253 287 253 c 0x36
88 242 m 0
 81 247 62 282 62 289 c 2
 62 296 l 2
 62 299 62 305 65 308 c 0
 63 311 62 315 62 318 c 0
 62 366 78 414 117 440 c 1xb5
 90 457 54 481 54 530 c 0
 54 579 73 631 116 655 c 0
 157 679 196 692 235 692 c 0
 274 692 313 680 354 656 c 0
 372 646 370 651 383 634 c 0
 396 617 398 606 398 598 c 0
 398 584 384 579 372 579 c 0
 365 579 361 579 359 581 c 0
 331 609 281 636 238 636 c 0
 210 636 183 627 154 609 c 0
 122 590 111 571 111 543 c 0
 114 529 110 520 128 498 c 0
 140 484 167 478 195 473 c 1
 212 476 225 479 242 479 c 0
 284 479 336 460 367 441 c 0
 390 428 413 389 413 357 c 0xba
 413 314 396 261 367 233 c 1
 403 210 420 172 420 144 c 0
 420 93 398 30 357 8 c 0
 325 -10 302 -14 276 -14 c 0xb1
 264 -14 254 -13 241 -13 c 2
 238 -13 l 2
 233 -13 222 -12 219 -12 c 0
 176 -12 106 22 77 58 c 0
 70 61 68 69 68 76 c 2
 68 83 l 2
 68 100 87 110 106 110 c 0
 111 110 113 110 116 107 c 0
 138 79 197 48 230 48 c 0x71
 237 48 257 42 260 42 c 0
 270 42 277 41 284 41 c 0
 286 41 287 41 289 41 c 0
 300 41 309 42 325 54 c 0
 347 71 363 113 363 141 c 0xb1
 363 156 339 179 315 187 c 0
 288 195 265 201 233 201 c 2
 230 201 l 2
 225 201 214 201 211 201 c 0
 194 201 175 207 155 214 c 0
 141 219 117 219 88 242 c 0
EndSplineSet
Validated: 1
EndChar

StartChar: dieresis
Encoding: 168 168 104
Width: 475
VWidth: 1106
GlyphClass: 2
Flags: W
HStem: 803 102<64.0732 151.664 327.023 407.303>
VStem: 54 108<813.387 893.948> 315 104<815.66 898.995>
LayerCount: 2
Fore
SplineSet
106 905 m 0
 134 905 162 885 162 853 c 0
 162 822 135 803 108 803 c 0
 80 803 54 824 54 855 c 0
 54 886 79 905 106 905 c 0
366 908 m 0
 394 908 419 889 419 857 c 0
 419 826 394 806 367 806 c 0
 339 806 315 827 315 858 c 0
 315 889 339 908 366 908 c 0
EndSplineSet
Validated: 1
EndChar

StartChar: copyright
Encoding: 169 169 105
Width: 694
VWidth: 878
GlyphClass: 2
Flags: W
HStem: -13 51<245.543 429.314> 84 52<282.247 409.014> 502 50<286.866 413.811> 587 45<255.47 441.604>
VStem: 60 40<189.503 427.008> 150 56<214.008 415.14> 598 35<208.236 418.861>
LayerCount: 2
Fore
SplineSet
475 547 m 0
 444 567 397 587 349 587 c 0
 308 587 266 575 224 549 c 0
 136 495 100 417 100 307 c 0
 100 208 132 127 215 76 c 0
 257 50 298 38 338 38 c 0
 383 38 428 55 474 83 c 0
 559 137 598 209 598 314 c 0
 598 418 557 493 475 547 c 0
451 390 m 0
 418 390 398 412 398 441 c 0
 398 458 403 469 411 478 c 2
 415 482 l 1
 409 485 l 2
 391 494 372 502 353 502 c 0
 329 502 305 493 280 476 c 0
 229 440 206 386 206 314 c 0
 206 244 226 197 274 163 c 0
 299 146 322 136 345 136 c 0
 371 136 398 149 424 167 c 0
 427 169 428 168 429 168 c 0
 438 168 454 148 454 133 c 0
 454 128 451 125 448 122 c 0
 411 97 376 84 340 84 c 0
 308 84 275 94 243 116 c 0
 178 159 150 227 150 313 c 0
 150 408 182 472 251 518 c 0
 285 541 316 552 349 552 c 0
 399 552 468 517 496 479 c 0
 502 472 502 467 502 459 c 2
 502 451 l 1
 498 451 l 1
 493 451 l 1
 493 446 l 1
 493 439 l 1
 493 434 l 1
 498 434 l 1
 500 434 l 1
 497 420 492 404 482 400 c 0
 472 395 462 390 451 390 c 0
491 586 m 0
 588 525 633 436 633 313 c 0
 633 190 587 101 489 40 c 0
 435 7 385 -13 333 -13 c 0
 287 -13 242 3 194 34 c 0
 101 94 60 184 60 303 c 0
 60 433 105 523 204 586 c 0
 252 617 299 632 347 632 c 0
 395 632 443 617 491 586 c 0
EndSplineSet
Validated: 1
EndChar

StartChar: ordfeminine
Encoding: 170 170 106
Width: 280
VWidth: 1065
GlyphClass: 2
Flags: W
HStem: 619 36<58 223> 683 38<105.985 175.806> 852 37<109.317 176.094>
VStem: 54 38<733.777 834.609> 190 34<683 701 736.142 837.647 874 886>
LayerCount: 2
Fore
SplineSet
190 787 m 0
 190 818 174 852 143 852 c 0
 135 852 125 847 117 840 c 0
 99 827 92 811 92 785 c 0
 92 754 109 721 140 721 c 0
 173 721 190 754 190 787 c 0
145 889 m 0
 160 889 176 882 190 874 c 1
 190 887 l 1
 224 886 l 1
 224 682 l 1
 190 683 l 1
 190 701 l 1
 176 691 158 683 141 683 c 0
 127 683 108 689 94 699 c 0
 65 718 54 747 54 785 c 0
 54 823 69 853 98 872 c 0
 113 882 128 889 145 889 c 0
58 655 m 1
 223 655 l 1
 223 619 l 1
 58 619 l 1
 58 655 l 1
EndSplineSet
Validated: 1
EndChar

StartChar: guillemotleft
Encoding: 171 171 107
Width: 600
VWidth: 879
GlyphClass: 2
Flags: W
HStem: 314 306
LayerCount: 2
Fore
SplineSet
146 468 m 1
 350 366 l 1
 323 314 l 1
 240 355 160 396 77 437 c 2
 63 444 l 1
 54 464 l 1
 70 493 l 1
 153 535 238 578 321 620 c 1
 347 568 l 1
 146 468 l 1
340 468 m 1
 544 367 l 1
 519 314 l 1
 436 355 354 396 271 437 c 1
 260 445 l 1
 248 464 l 1
 264 495 l 1
 347 537 432 578 515 620 c 1
 542 569 l 1
 340 468 l 1
EndSplineSet
Validated: 1
EndChar

StartChar: logicalnot
Encoding: 172 172 108
Width: 498
VWidth: 867
GlyphClass: 2
Flags: W
HStem: 289 66<54 373>
VStem: 376 66<173 289>
LayerCount: 2
Fore
SplineSet
54 355 m 1
 439 355 l 1
 442 173 l 1
 376 173 l 1
 373 289 l 1
 54 289 l 1
 54 355 l 1
EndSplineSet
Validated: 1
EndChar

StartChar: uni00AD
Encoding: 173 173 109
Width: 496
VWidth: 906
GlyphClass: 2
Flags: W
HStem: 289 66<54 440>
LayerCount: 2
Fore
SplineSet
54 355 m 1
 440 355 l 1
 440 289 l 1
 54 289 l 1
 54 355 l 1
EndSplineSet
Validated: 1
EndChar

StartChar: registered
Encoding: 174 174 110
Width: 718
VWidth: 907
GlyphClass: 2
Flags: W
HStem: 13 38<261.926 430.145> 334 33<284 306 352 421.152> 531 38<282 417.811> 654 47<266.292 445.847>
VStem: 52 50<214.775 479.066> 248 36<156 334 367.526 530.94> 455 38<395.488 495.778> 616 50<230.135 478.257>
LayerCount: 2
Fore
SplineSet
512 653 m 0
 616 588 666 490 666 360 c 0
 666 227 617 133 512 68 c 0
 456 32 400 13 344 13 c 0
 293 13 245 29 194 61 c 0
 94 126 52 224 52 349 c 0
 52 487 98 585 205 654 c 0
 256 686 305 701 358 701 c 0
 411 701 461 686 512 653 c 0
486 610 m 0
 444 638 401 654 359 654 c 0
 317 654 272 640 230 612 c 0
 140 552 102 467 102 345 c 0
 102 233 136 150 220 92 c 0
 262 64 306 51 347 51 c 0
 391 51 437 68 485 99 c 0
 573 158 616 237 616 354 c 0
 616 470 573 551 486 610 c 0
306 334 m 1
 284 334 l 1
 284 156 l 1
 284 153 l 1
 281 153 l 1
 247 153 l 1
 243 153 l 1
 245 156 l 1
 248 484 l 1
 248 486 l 1
 248 487 l 1
 248 566 l 1
 248 570 l 1
 252 569 l 1
 282 568 l 2
 287 569 295 569 305 569 c 0
 315 569 326 569 340 569 c 0
 373 569 415 566 437 551 c 0
 479 524 493 487 493 439 c 0
 493 391 472 373 430 349 c 0
 408 337 372 333 352 333 c 1
 491 158 l 1
 496 153 l 1
 490 153 l 1
 451 153 l 1
 450 153 l 1
 449 153 l 1
 306 334 l 1
364 367 m 2
 379 367 407 372 420 382 c 0
 432 390 455 407 455 441 c 0
 455 475 439 500 410 518 c 0
 396 526 380 530 367 530 c 0
 358 530 337 531 315 531 c 0
 304 531 292 531 282 530 c 1
 284 369 l 1
 302 367 314 367 328 367 c 2
 364 367 l 2
EndSplineSet
Validated: 1
EndChar

StartChar: macron
Encoding: 175 175 111
Width: 496
VWidth: 1139
GlyphClass: 2
Flags: W
HStem: 904 67<54 440>
LayerCount: 2
Fore
SplineSet
54 971 m 1
 440 971 l 1
 440 904 l 1
 54 904 l 1
 54 971 l 1
EndSplineSet
Validated: 1
EndChar

StartChar: degree
Encoding: 176 176 112
Width: 292
VWidth: 1091
GlyphClass: 2
Flags: W
HStem: 714 41<107.729 181.635> 880 40<111.961 182.035>
VStem: 54 43<763.616 866.716> 196 40<770.169 866.935>
LayerCount: 2
Fore
SplineSet
54 814 m 0
 54 867 87 920 145 920 c 0
 160 920 175 914 190 904 c 0
 219 885 236 856 236 818 c 0
 236 765 197 714 141 714 c 0
 126 714 111 721 97 729 c 0
 68 748 54 778 54 814 c 0
97 816 m 0
 97 784 112 755 144 755 c 0
 152 755 162 758 170 765 c 0
 188 778 196 792 196 818 c 0
 196 847 177 880 146 880 c 0
 138 880 130 877 122 870 c 0
 104 857 97 843 97 816 c 0
EndSplineSet
Validated: 1
EndChar

StartChar: plusminus
Encoding: 177 177 113
Width: 433
VWidth: 809
GlyphClass: 2
Flags: W
HStem: -2 55<54 182 240 378> 201 57<60 180 238 368>
VStem: 180 58<53 201 258 395>
LayerCount: 2
Fore
SplineSet
180 258 m 1
 179 395 l 1
 236 395 l 1
 238 258 l 1
 368 258 l 1
 368 201 l 1
 238 201 l 1
 240 53 l 1
 378 56 l 1
 378 -2 l 1
 54 -5 l 1
 54 51 l 1
 182 53 l 1
 180 201 l 1
 60 201 l 1
 60 258 l 1
 180 258 l 1
EndSplineSet
Validated: 1
EndChar

StartChar: uni00B2
Encoding: 178 178 114
Width: 343
VWidth: 1076
GlyphClass: 2
Flags: W
HStem: 650 26<160 244.252> 655 33<83.0923 119.795> 660 16<160 170.812> 803 27<88.0613 120.831> 885 26<128.665 190.483>
VStem: 57 30<831.111 859.397> 122 31<830.88 859.314> 225 30<786.218 859.471>
LayerCount: 2
Fore
SplineSet
97 860 m 2x1f
 92 860 87 850 87 847 c 0
 87 840 98 830 106 830 c 0
 116 830 122 844 122 847 c 0
 122 854 112 860 102 860 c 2
 97 860 l 2x1f
197 676 m 0x9f
 226 676 249 685 262 707 c 1
 287 694 l 1
 282 687 l 2
 265 664 234 650 197 650 c 0
 192 650 189 650 184 650 c 0x9f
 166 652 149 658 141 660 c 2
 140 660 l 2x3f
 133 662 125 661 118 661 c 0
 103 661 89 658 72 655 c 2
 68 655 l 2
 61 655 54 662 54 670 c 0
 54 684 78 688 83 691 c 0
 85 689 85 688 88 688 c 0x5f
 112 688 211 781 214 788 c 0
 222 803 225 815 225 823 c 0
 225 831 222 842 215 857 c 0
 212 865 187 876 187 876 c 2
 173 883 161 885 148 885 c 0
 141 885 135 885 128 882 c 1
 142 875 153 864 153 847 c 2
 153 844 l 2
 151 826 130 803 107 803 c 0
 81 803 57 824 57 847 c 0
 57 859 67 873 75 880 c 0
 89 898 119 911 148 911 c 0
 167 911 184 907 201 900 c 0
 214 895 235 884 243 865 c 0
 250 848 255 836 255 823 c 0
 255 809 249 796 241 778 c 0
 219 737 178 707 139 687 c 1
 142 685 142 688 145 686 c 2
 160 676 l 1
 185 677 l 2
 190 677 194 676 197 676 c 0x9f
EndSplineSet
Validated: 1
EndChar

StartChar: uni00B3
Encoding: 179 179 115
Width: 313
VWidth: 1071
GlyphClass: 2
Flags: W
HStem: 622 31<101.637 209.312> 755 29<108.228 208.478> 884 31<105.289 204.019>
VStem: 54 34<666.605 719.723> 61 34<830.328 858.858> 224 33<667.684 744.841 797.363 864.284>
LayerCount: 2
Fore
SplineSet
156 784 m 0xf4
 190 784 221 794 221 826 c 0
 221 834 220 844 215 852 c 0
 203 870 209 869 187 879 c 0
 179 882 168 884 156 884 c 0
 124 884 95 871 95 849 c 0
 95 844 97 837 100 830 c 1
 97 820 93 811 83 811 c 0
 64 811 61 828 61 848 c 0
 61 851 59 856 61 859 c 0xec
 69 869 80 915 155 915 c 0
 215 915 240 873 245 865 c 1
 246 865 l 1
 251 851 253 838 253 826 c 0
 253 804 243 787 230 768 c 1
 241 756 l 2
 254 739 257 723 257 706 c 0
 257 647 225 622 172 622 c 0
 135 622 101 634 99 634 c 0
 76 644 54 664 54 695 c 0
 54 708 64 729 82 729 c 0
 90 729 97 722 97 714 c 0
 97 704 88 697 88 692 c 0
 88 665 128 653 155 653 c 0
 182 653 212 663 219 680 c 0
 222 688 224 698 224 706 c 0
 224 738 206 755 170 755 c 2
 141 755 l 2
 128 755 108 757 108 772 c 0
 108 782 121 785 124 787 c 0
 131 785 139 784 156 784 c 0xf4
EndSplineSet
Validated: 1
EndChar

StartChar: acute
Encoding: 180 180 116
Width: 294
VWidth: 1099
GlyphClass: 2
Flags: W
HStem: 753 168
VStem: 54 184
LayerCount: 2
Fore
SplineSet
238 892 m 1
 92 753 l 1
 54 763 l 1
 169 921 l 1
 238 892 l 1
EndSplineSet
Validated: 1
EndChar

StartChar: uni00B5
Encoding: 181 181 117
Width: 549
VWidth: 750
GlyphClass: 2
Flags: W
HStem: -16 61<186.234 318.06>
VStem: 54 57<118.406 441> 61 58<-247 40 178.659 384.646> 394 62<-16.2751 50.7656 121.122 434>
LayerCount: 2
Fore
SplineSet
394 51 m 1xd0
 361 18 303 -16 250 -16 c 0
 202 -16 154 11 118 40 c 1
 119 -247 l 5
 61 -247 l 1
 61 -196 l 2xb0
 61 -40 54 237 54 392 c 2
 54 441 l 1
 114 441 l 1
 114 428 113 416 113 403 c 0
 111 386 111 358 111 330 c 0
 111 312 111 294 111 278 c 0
 111 254 111 230 111 209 c 0
 111 188 111 169 112 156 c 0
 127 108 189 45 252 45 c 0
 274 45 298 52 322 69 c 0
 370 100 391 143 394 204 c 2
 394 438 l 1
 457 434 l 1
 457 358 456 277 456 201 c 0
 456 194 453 189 455 184 c 0
 456 179 456 174 456 168 c 0
 456 162 456 157 456 152 c 0
 456 128 454 103 454 79 c 0
 454 38 460 -2 493 -36 c 1
 429 -37 l 1
 409 -18 394 5 394 36 c 0
 394 41 392 46 394 51 c 1xd0
EndSplineSet
Validated: 1
EndChar

StartChar: paragraph
Encoding: 182 182 118
Width: 621
VWidth: 918
GlyphClass: 2
Flags: W
HStem: 286 481<190.497 332.615>
VStem: 54 385<413.052 634.948> 379 63<77.5556 349> 388 54<0 271.444> 502 52<301.583 721> 514 50<2 421.417>
LayerCount: 2
Fore
SplineSet
270 767 m 0xc0
 303 767 506 762 506 762 c 1
 554 760 l 1xc8
 564 0 l 1
 514 2 l 1x84
 502 721 l 1
 439 721 l 9xc8
 442 0 l 1
 388 0 l 1x90
 379 349 l 1xa0
 367 337 364 328 352 320 c 0
 320 298 289 286 258 286 c 0
 224 286 190 300 154 324 c 0
 86 368 54 434 54 524 c 0
 54 614 87 680 153 724 c 0
 186 747 238 767 270 767 c 0xc0
EndSplineSet
Validated: 1
EndChar

StartChar: periodcentered
Encoding: 183 183 119
Width: 213
VWidth: 892
GlyphClass: 2
Flags: W
HStem: 268 104<63.9172 145.979>
VStem: 54 102<277.794 362.613>
LayerCount: 2
Fore
SplineSet
54 319 m 0
 54 347 74 372 106 372 c 0
 137 372 156 347 156 320 c 0
 156 292 134 268 103 268 c 0
 72 268 54 292 54 319 c 0
EndSplineSet
Validated: 1
EndChar

StartChar: cedilla
Encoding: 184 184 120
Width: 224
VWidth: 655
GlyphClass: 2
Flags: W
HStem: -309 328
VStem: 73 80<-183.157 -68.3325> 90 59<-222.342 -105.375>
LayerCount: 2
Fore
SplineSet
77 -84 m 2xc0
 131 19 l 1
 168 0 l 1
 134 -68 l 1
 146 -75 151 -88 153 -95 c 2
 153 -104 l 2xc0
 153 -112 152 -123 149 -130 c 0
 147 -198 116 -256 72 -309 c 1
 54 -283 l 1
 74 -250 90 -220 90 -184 c 0xa0
 90 -166 89 -149 82 -129 c 0
 75 -121 73 -113 73 -105 c 0
 73 -97 74 -89 77 -84 c 2xc0
EndSplineSet
Validated: 1
EndChar

StartChar: uni00B9
Encoding: 185 185 121
Width: 238
VWidth: 1074
GlyphClass: 2
Flags: W
HStem: 666 216<136 179>
VStem: 136 46<666 844>
LayerCount: 2
Fore
SplineSet
136 844 m 1
 109 826 88 815 68 802 c 1
 54 819 l 1
 128 882 l 1
 179 882 l 1
 182 666 l 1
 136 666 l 1
 136 844 l 1
EndSplineSet
Validated: 1
EndChar

StartChar: ordmasculine
Encoding: 186 186 122
Width: 292
VWidth: 1069
GlyphClass: 2
Flags: W
HStem: 630 36<60 224> 692 41<108.249 179.801> 859 40<110.453 180.741>
VStem: 54 43<742.201 846.51> 196 40<749.924 843.413>
LayerCount: 2
Fore
SplineSet
99 884 m 0
 114 892 130 899 145 899 c 0
 160 899 175 894 190 884 c 0
 219 865 236 835 236 797 c 0
 236 759 219 731 190 711 c 0
 173 701 158 692 141 692 c 0
 126 692 111 699 97 707 c 0
 68 726 54 758 54 794 c 0
 54 833 68 864 99 884 c 0
97 794 m 0
 97 763 113 733 144 733 c 0
 152 733 162 738 170 745 c 0
 188 758 196 771 196 797 c 0
 196 821 187 836 170 849 c 0
 162 856 154 859 146 859 c 0
 138 859 130 857 122 850 c 0
 104 837 97 821 97 794 c 0
60 666 m 1
 224 666 l 1
 224 630 l 1
 60 630 l 1
 60 666 l 1
EndSplineSet
Validated: 1
EndChar

StartChar: guillemotright
Encoding: 187 187 123
Width: 600
VWidth: 879
GlyphClass: 2
Flags: W
HStem: 314 306
LayerCount: 2
Fore
SplineSet
452 468 m 1
 252 568 l 1
 277 620 l 1
 360 578 446 535 529 493 c 1
 544 464 l 1
 536 444 l 1
 522 437 l 2
 439 396 359 355 276 314 c 1
 248 366 l 1
 452 468 l 1
258 468 m 1
 57 569 l 1
 83 620 l 1
 166 578 252 537 335 495 c 1
 350 464 l 1
 338 445 l 1
 327 437 l 1
 244 396 163 355 80 314 c 1
 54 367 l 1
 258 468 l 1
EndSplineSet
Validated: 1
EndChar

StartChar: onequarter
Encoding: 188 188 124
Width: 789
VWidth: 901
GlyphClass: 2
Flags: W
HStem: 141 39<465 648 684 732.98>
VStem: 162 46<291 629> 648 36<-33.9546 141 180 346.992>
LayerCount: 2
Fore
SplineSet
97 3 m 1
 544 707 l 1
 603 706 l 1
 158 3 l 1
 97 3 l 1
665 -34 m 0
 655 -34 651 -27 648 -20 c 2
 648 141 l 1
 425 141 l 2
 422 143 421 142 418 144 c 2
 412 156 l 2
 414 159 412 164 414 167 c 2
 557 427 l 2
 560 434 565 436 572 436 c 0
 582 436 589 426 592 418 c 1
 549 339 507 260 465 181 c 1
 648 180 l 1
 648 328 l 2
 648 336 654 347 666 347 c 0
 676 347 684 336 684 328 c 2
 684 180 l 1
 718 180 l 2
 726 180 733 171 733 161 c 0
 733 151 726 141 718 141 c 2
 684 141 l 1
 684 -15 l 2
 684 -23 677 -34 665 -34 c 0
164 719 m 2
 167 719 176 719 179 719 c 0
 191 719 191 719 204 721 c 1
 208 291 l 1
 162 289 l 1
 156 629 l 1
 118 593 106 585 77 559 c 1
 54 593 l 1
 164 719 l 2
EndSplineSet
Validated: 1
EndChar

StartChar: onehalf
Encoding: 189 189 125
Width: 779
VWidth: 916
GlyphClass: 2
Flags: W
HStem: 10 29<540.235 651.734> 250 30<411.013 463.185> 380 31<456.506 576.198>
VStem: 180 38<366 694> 367 34<288.415 341.687> 473 35<286.844 336.277> 636 34<221.075 333.142>
LayerCount: 2
Fore
SplineSet
168 742 m 1
 179 742 l 2
 191 742 180 743 206 743 c 2
 215 743 l 1
 218 365 l 1
 180 366 l 1
 179 694 l 1
 151 662 128 622 104 602 c 1
 88 630 l 1
 168 742 l 1
54 7 m 1
 522 755 l 1
 585 752 l 1
 118 7 l 1
 54 7 l 1
723 71 m 1
 691 29 640 10 587 10 c 0
 580 10 571 10 564 12 c 0
 536 14 513 25 496 27 c 2
 495 27 l 2
 488 29 481 29 474 29 c 0
 469 29 465 29 460 29 c 0
 434 29 409 25 383 20 c 0
 381 18 381 20 379 20 c 0
 371 20 363 28 363 36 c 0
 363 56 403 59 410 66 c 0
 488 100 580 149 618 219 c 0
 631 243 636 258 636 275 c 0
 636 290 633 306 621 330 c 0
 608 358 547 380 506 380 c 0
 488 380 471 377 456 370 c 1
 484 362 508 341 508 314 c 0
 508 312 508 313 508 311 c 0
 505 285 473 250 440 250 c 0
 403 250 367 281 367 314 c 0
 367 331 381 355 394 362 c 1
 394 365 l 1
 396 369 l 1
 420 392 462 411 506 411 c 0
 535 411 564 403 590 393 c 0
 610 385 642 370 655 342 c 0
 667 316 670 296 670 277 c 0
 670 257 665 235 651 207 c 0
 615 141 542 93 473 60 c 1
 483 58 492 58 502 56 c 2
 567 41 l 2
 574 39 580 39 587 39 c 0
 633 39 671 56 694 88 c 1
 723 71 l 1
439 280 m 0
 458 280 473 306 473 314 c 0
 473 331 451 342 432 342 c 0
 429 342 427 344 424 342 c 0
 422 342 420 340 417 342 c 1
 412 334 401 326 401 314 c 0
 401 300 421 280 439 280 c 0
EndSplineSet
Validated: 1
EndChar

StartChar: threequarters
Encoding: 190 190 126
Width: 813
VWidth: 908
GlyphClass: 2
Flags: W
HStem: 191 36<494 654 695 751.995> 297 33<128.474 265.556> 488 30<134.349 264.798> 672 34<129.57 247.179>
VStem: 61 34<358.13 428.251> 69 38<590.423 629.812> 294 36<353.958 468.032 543.029 631.05> 654 41<2.01169 191 227 420.991>
LayerCount: 2
Fore
SplineSet
330 412 m 0xf7
 330 324 281 297 218 297 c 0
 168 297 119 312 119 312 c 1
 93 326 79 341 67 366 c 0
 63 377 61 387 61 396 c 0
 61 414 74 440 92 440 c 0
 100 440 108 432 108 423 c 0
 108 412 95 404 95 392 c 0xfb
 95 370 119 347 139 342 c 0
 158 334 175 330 195 330 c 0
 209 330 224 332 242 337 c 0
 278 346 294 364 294 411 c 0
 294 447 279 478 248 485 c 0
 240 488 228 488 216 488 c 2
 179 488 l 2
 164 488 134 488 134 506 c 0
 134 515 148 520 152 523 c 0
 160 521 175 518 196 518 c 0
 210 518 228 519 247 524 c 0
 275 533 292 558 292 585 c 0
 292 597 289 610 281 624 c 0
 264 649 270 647 241 665 c 0
 227 670 213 672 196 672 c 0
 154 672 107 655 107 617 c 0
 107 609 109 599 113 590 c 1
 109 576 104 568 94 568 c 0
 74 568 69 583 69 617 c 0
 69 621 68 626 69 630 c 0
 83 646 95 703 195 706 c 1
 284 704 314 637 316 637 c 0
 322 618 326 600 326 585 c 0
 326 558 315 537 296 511 c 0
 291 503 294 505 292 502 c 2
 308 481 l 2
 325 458 330 435 330 412 c 0xf7
147 -2 m 1
 616 734 l 1
 678 732 l 1
 211 -2 l 1
 147 -2 l 1
674 2 m 0
 662 2 657 6 654 13 c 2
 654 191 l 1
 450 191 l 2
 447 193 443 192 440 194 c 2
 433 206 l 2
 435 209 433 211 435 214 c 2
 600 495 l 2
 603 500 611 503 618 503 c 0
 631 503 636 494 639 486 c 1
 591 413 542 301 494 227 c 1
 654 227 l 1
 654 401 l 2
 654 409 662 421 675 421 c 0
 688 421 695 409 695 401 c 2
 695 227 l 1
 735 227 l 2
 745 227 752 219 752 209 c 0
 752 199 745 191 735 191 c 2
 695 191 l 1
 695 17 l 2
 695 9 687 2 674 2 c 0
EndSplineSet
Validated: 1
EndChar

StartChar: questiondown
Encoding: 191 191 127
Width: 422
VWidth: 892
GlyphClass: 2
Flags: W
HStem: -192 62<149.046 276.013> 441 83<165.58 234.967>
VStem: 54 52<-89.6798 29.8191> 160 80<445.657 518.681> 192 58<123.81 215.8> 195 35<290.2 371>
LayerCount: 2
Fore
SplineSet
240 484 m 0xf0
 240 460 224 441 200 441 c 0
 177 441 160 460 160 482 c 0
 160 504 178 524 202 524 c 0
 225 524 240 506 240 484 c 0xf0
214 -192 m 0
 120 -192 54 -136 54 -37 c 0
 54 6 68 49 82 69 c 0
 115 103 115 98 168 122 c 0
 176 129 192 124 192 143 c 0xe8
 192 146 192 153 190 160 c 2
 195 371 l 1
 230 377 l 1xe4
 250 129 l 2xe8
 250 101 240 78 208 66 c 1
 165 58 122 41 114 5 c 1
 106 -9 106 -17 106 -24 c 0
 106 -32 109 -38 107 -46 c 0
 112 -75 125 -95 154 -112 c 0
 171 -120 191 -130 214 -130 c 0
 265 -130 289 -101 311 -63 c 0
 318 -50 324 -31 342 -31 c 2
 345 -31 l 2
 355 -33 367 -42 367 -64 c 0
 367 -68 367 -72 367 -75 c 0
 367 -83 356 -97 353 -104 c 0
 343 -121 335 -132 322 -146 c 0
 291 -179 271 -184 238 -191 c 0
 230 -193 222 -192 214 -192 c 0
EndSplineSet
Validated: 1
EndChar

StartChar: Aring
Encoding: 197 197 133
Width: 575
VWidth: 929
GlyphClass: 2
Flags: HW
HStem: 221 52<196 376> 651 32<255.071 326.274> 784 32<256.314 327.403>
VStem: 200 42<691.718 774.35> 342 39<696.689 772.455>
LayerCount: 2
Fore
SplineSet
286 594 m 0
 309 594 328 617 328 639 c 0
 328 661 313 680 287 680 c 0
 261 680 248 660 248 637 c 0
 248 613 260 594 286 594 c 0
212 637 m 0
 212 675 244 708 287 708 c 0
 329 708 362 675 362 639 c 0
 362 613 346 590 322 577 c 1
 326 577 l 1
 527 3 l 1
 465 3 l 1
 391 224 l 1
 177 224 l 1
 108 3 l 1
 45 3 l 1
 248 577 l 1
 226 589 212 612 212 637 c 0
286 523 m 1
 196 277 l 1
 376 277 l 1
 286 523 l 1
EndSplineSet
Validated: 1
EndChar

StartChar: Ccedilla
Encoding: 199 199 134
Width: 587
VWidth: 865
GlyphClass: 2
Flags: W
HStem: -14 46<242.23 317> 543 43<244.708 417.1>
VStem: 54 68<153.825 398.594> 265 79<-166.345 -88.2344> 282 58<-200.269 -105.327>
LayerCount: 2
Fore
SplineSet
505 94 m 1xf0
 517 86 531 73 531 59 c 2
 531 54 l 2
 529 52 529 53 527 51 c 0
 486 21 392 -8 338 -13 c 1
 359 -22 l 1
 325 -75 l 1
 337 -80 342 -94 344 -99 c 2
 344 -104 l 2xf0
 344 -111 343 -120 340 -125 c 0xe8
 338 -179 309 -226 265 -268 c 1xf0
 247 -247 l 1
 267 -221 282 -195 282 -167 c 0xe8
 282 -153 279 -141 272 -124 c 0
 265 -117 265 -112 265 -105 c 0
 265 -98 266 -93 269 -88 c 1
 267 -88 l 1
 317 -14 l 1
 275 -13 234 -1 189 24 c 0
 95 77 54 155 54 260 c 0
 54 376 93 493 192 547 c 0
 240 573 284 586 327 586 c 0
 395 586 485 546 529 507 c 1
 521 500 509 487 501 482 c 1
 483 495 457 510 418 522 c 1
 389 536 360 543 332 543 c 0
 295 543 259 532 223 510 c 0
 148 462 122 357 122 263 c 0
 122 178 153 108 223 64 c 0
 257 44 292 32 328 32 c 2
 335 32 l 2
 386 32 470 61 502 89 c 1
 505 94 l 1xf0
EndSplineSet
Validated: 1
EndChar

StartChar: Egrave
Encoding: 200 200 135
Width: 460
VWidth: 913
GlyphClass: 2
Flags: W
HStem: 2 47<117 396.799> 298 47<118 404> 564 46<119 396.799>
VStem: 56 61<0 2 49 298 345 564>
LayerCount: 2
Fore
SplineSet
54 609 m 1
 88 609 l 2
 95 609 102 608 109 610 c 2
 396 610 l 1
 398 596 398 581 398 564 c 1
 119 564 l 1
 119 558 l 2
 119 489 118 418 118 349 c 2
 118 345 l 1
 403 345 l 1
 404 338 404 331 404 323 c 0
 404 315 404 306 404 298 c 1
 117 298 l 1
 117 49 l 1
 396 49 l 1
 398 35 398 19 398 2 c 1
 116 2 l 1
 116 0 l 1
 56 0 l 1
 54 609 l 1
118 767 m 1
 196 767 l 1
 269 648 l 1
 236 649 l 1
 118 767 l 1
EndSplineSet
Validated: 1
EndChar

StartChar: Eacute
Encoding: 201 201 136
Width: 460
VWidth: 920
GlyphClass: 2
Flags: W
HStem: 0 48<117 396.799> 298 47<118 404> 563 46<119 396.731> 762 20G<313.732 386.4>
VStem: 56 61<48 298 345 563>
LayerCount: 2
Fore
SplineSet
396 48 m 1
 398 34 398 17 398 0 c 1
 284 0 170 0 56 0 c 1
 54 609 l 1
 57 609 60 610 63 610 c 0
 71 610 79 608 89 608 c 0
 92 608 96 609 100 609 c 0
 199 609 297 609 396 609 c 1
 398 595 398 580 398 563 c 1
 119 563 l 1
 119 558 l 2
 119 489 118 418 118 349 c 2
 118 345 l 1
 403 345 l 1
 404 338 404 331 404 323 c 0
 404 315 404 306 404 298 c 1
 117 298 l 1
 117 48 l 1
 396 48 l 1
400 757 m 1
 253 648 l 1
 216 655 l 1
 332 782 l 1
 400 757 l 1
EndSplineSet
Validated: 1
EndChar

StartChar: Edieresis
Encoding: 203 203 138
Width: 475
VWidth: 900
GlyphClass: 2
Flags: W
HStem: -2 50<128 406.799> 296 48<128 412.799> 561 48<128 406.799> 648 81<60.8848 155.329 322.695 411.702>
VStem: 54 108<656.71 720.315> 66 62<48 296 344 561> 315 104<658.108 724.615>
LayerCount: 2
Fore
SplineSet
65 607 m 1xf6
 69 608 75 608 80 608 c 0
 86 608 91 608 97 608 c 0
 104 608 112 608 119 609 c 2
 406 609 l 1
 408 595 408 578 408 561 c 1
 128 561 l 1
 128 488 128 417 128 344 c 1
 412 344 l 1
 414 330 414 313 414 296 c 1
 128 296 l 1
 128 48 l 1
 406 48 l 1
 408 34 408 15 408 -2 c 1
 294 -2 180 -2 66 -2 c 1
 65 607 l 1xf6
106 729 m 0
 134 729 162 713 162 687 c 0
 162 663 135 648 108 648 c 0
 80 648 54 666 54 690 c 0xfa
 54 714 79 729 106 729 c 0
366 732 m 0
 394 732 419 717 419 691 c 0
 419 667 394 650 367 650 c 0
 339 650 315 668 315 692 c 0
 315 716 339 732 366 732 c 0
EndSplineSet
Validated: 1
EndChar

StartChar: Igrave
Encoding: 204 204 139
Width: 331
VWidth: 907
GlyphClass: 2
Flags: W
HStem: -3 35<95 154 218 274> 547 29<106 158 215 272>
VStem: 154 64<32 546>
LayerCount: 2
Fore
SplineSet
276 32 m 1
 274 -3 l 1
 223 -2 l 1
 94 -3 l 1
 95 32 l 1
 154 32 l 1
 158 547 l 1
 106 547 l 1
 106 576 l 1
 272 576 l 1
 272 547 l 1
 215 546 l 1
 218 32 l 1
 276 32 l 1
54 755 m 1
 133 755 l 1
 205 636 l 1
 172 638 l 1
 54 755 l 1
EndSplineSet
Validated: 1
EndChar

StartChar: Iacute
Encoding: 205 205 140
Width: 353
VWidth: 913
GlyphClass: 2
Flags: W
HStem: -12 35<56 116 179 235> 538 30<66 118 177 233>
VStem: 116 63<23 537>
LayerCount: 2
Fore
SplineSet
236 23 m 1
 235 -12 l 1
 184 -10 l 1
 54 -12 l 1
 56 23 l 1
 116 23 l 1
 118 538 l 1
 66 538 l 1
 66 568 l 1
 233 568 l 1
 233 539 l 1
 177 537 l 1
 179 23 l 1
 236 23 l 1
297 738 m 1
 150 627 l 1
 113 635 l 1
 228 762 l 1
 297 738 l 1
EndSplineSet
Validated: 1
EndChar

StartChar: Idieresis
Encoding: 207 207 142
Width: 475
VWidth: 893
GlyphClass: 2
Flags: W
HStem: -3 35<144 202 265 322> 547 29<154 205 264 320> 636 81<60.8848 155.568 324.07 410.335>
VStem: 54 108<644.71 708.722> 202 63<32 546> 315 104<647.108 713.615>
LayerCount: 2
Fore
SplineSet
323 32 m 1
 322 -3 l 1
 270 -2 l 1
 143 -3 l 1
 144 32 l 1
 202 32 l 1
 205 547 l 1
 154 547 l 1
 154 576 l 1
 320 576 l 1
 320 547 l 1
 264 546 l 1
 265 32 l 1
 323 32 l 1
106 717 m 0
 134 717 162 702 162 676 c 0
 162 652 135 636 108 636 c 0
 80 636 54 654 54 678 c 0
 54 702 79 717 106 717 c 0
366 721 m 0
 394 721 419 706 419 680 c 0
 419 656 394 639 367 639 c 0
 339 639 315 657 315 681 c 0
 315 705 339 721 366 721 c 0
EndSplineSet
Validated: 1
EndChar

StartChar: Ograve
Encoding: 210 210 144
Width: 689
VWidth: 906
GlyphClass: 2
Flags: W
HStem: -24 53<256.161 427.063> 529 51<263 434.304>
VStem: 54 70<162.782 387.366> 572 61<170.271 388.205>
LayerCount: 2
Fore
SplineSet
54 268 m 0
 54 393 102 478 204 538 c 0
 252 567 298 580 344 580 c 0
 390 580 437 566 485 537 c 0
 584 479 633 395 633 278 c 0
 633 161 586 82 486 23 c 0
 432 -9 381 -24 332 -24 c 0
 288 -24 243 -11 195 18 c 0
 98 74 54 156 54 268 c 0
340 29 m 0
 381 29 422 44 461 70 c 0
 535 118 572 185 572 279 c 0
 572 373 535 444 461 492 c 0
 424 516 387 529 349 529 c 0
 311 529 273 516 236 492 c 0
 160 443 124 371 124 272 c 0
 124 182 159 113 230 65 c 0
 267 42 303 29 340 29 c 0
209 734 m 1
 287 734 l 1
 360 615 l 1
 327 619 l 1
 209 734 l 1
EndSplineSet
Validated: 1
EndChar

StartChar: Oacute
Encoding: 211 211 145
Width: 689
VWidth: 912
GlyphClass: 2
Flags: W
HStem: -17 55<254.228 427.063> 538 51<261.029 432.328>
VStem: 54 70<171.145 396.126> 572 61<179.271 397.002>
LayerCount: 2
Fore
SplineSet
54 277 m 0
 54 402 102 486 204 546 c 0
 252 575 298 589 344 589 c 0
 390 589 437 575 485 546 c 0
 584 488 633 404 633 287 c 0
 633 170 586 91 486 32 c 0
 432 0 381 -17 332 -17 c 0
 288 -17 243 -3 195 26 c 0
 98 82 54 165 54 277 c 0
340 38 m 0
 381 38 422 53 461 79 c 0
 535 127 572 194 572 288 c 0
 572 382 535 452 461 500 c 0
 424 524 387 538 349 538 c 0
 311 538 273 526 236 502 c 0
 160 453 124 379 124 280 c 0
 124 190 159 121 230 73 c 0
 267 50 303 38 340 38 c 0
491 737 m 1
 344 626 l 1
 307 634 l 1
 422 762 l 1
 491 737 l 1
EndSplineSet
Validated: 1
EndChar

StartChar: Ocircumflex
Encoding: 212 212 146
Width: 689
VWidth: 938
GlyphClass: 2
Flags: W
HStem: 2 54<256.161 427.063> 556 51<263.877 432.328>
VStem: 54 70<188.86 413.366> 572 61<196.771 414.638>
LayerCount: 2
Fore
SplineSet
54 294 m 0
 54 419 102 504 204 564 c 0
 252 593 298 607 344 607 c 0
 390 607 437 593 485 564 c 0
 584 506 633 421 633 304 c 0
 633 187 586 108 486 49 c 0
 432 17 381 2 332 2 c 0
 288 2 243 14 195 43 c 0
 98 99 54 182 54 294 c 0
340 56 m 0
 381 56 422 71 461 97 c 0
 535 145 572 212 572 306 c 0
 572 400 535 470 461 518 c 0
 424 542 387 556 349 556 c 0
 311 556 273 542 236 518 c 0
 160 469 124 397 124 298 c 0
 124 208 159 140 230 92 c 0
 267 69 303 56 340 56 c 0
301 838 m 1
 384 838 l 1
 519 644 l 1
 450 645 l 1
 352 796 l 1
 338 797 l 1
 236 646 l 1
 169 644 l 1
 301 838 l 1
EndSplineSet
Validated: 1
EndChar

StartChar: Otilde
Encoding: 213 213 147
Width: 689
VWidth: 900
GlyphClass: 2
Flags: W
HStem: -3 54<256.161 427.063> 551 51<263.877 432.328> 639 39<372.687 510.83> 706 36<189.708 302.858>
VStem: 54 70<185.009 409.368> 572 61<194.808 412.314>
LayerCount: 2
Fore
SplineSet
54 291 m 0
 54 416 102 499 204 559 c 0
 252 588 298 602 344 602 c 0
 390 602 437 587 485 558 c 0
 584 500 633 416 633 299 c 0
 633 182 586 105 486 46 c 0
 432 14 381 -3 332 -3 c 0
 288 -3 243 10 195 39 c 0
 98 95 54 179 54 291 c 0
340 51 m 0
 381 51 422 66 461 92 c 0
 535 140 572 209 572 303 c 0
 572 397 535 465 461 513 c 0
 424 537 387 551 349 551 c 0
 311 551 273 537 236 513 c 0
 160 464 124 393 124 294 c 0
 124 204 159 135 230 87 c 0
 267 64 303 51 340 51 c 0
242 706 m 0
 214 706 174 683 126 644 c 1
 100 677 l 1
 106 680 l 1
 162 723 201 742 242 742 c 0
 279 742 317 726 373 697 c 0
 393 687 423 678 445 678 c 0
 508 678 545 724 552 737 c 1
 558 737 l 2
 573 737 587 725 587 717 c 0
 587 697 533 639 446 639 c 0
 412 639 386 645 353 663 c 0
 299 691 270 706 242 706 c 0
EndSplineSet
Validated: 1
EndChar

StartChar: Odieresis
Encoding: 214 214 148
Width: 689
VWidth: 892
GlyphClass: 2
Flags: W
HStem: -5 53<256.161 427.063> 548 51<261.029 436.281> 636 81<169.01 262.568 431.07 517.335>
VStem: 54 70<182.43 407.366> 162 107<644.518 708.722> 422 104<647.108 713.615> 572 61<190.068 408.069>
LayerCount: 2
Fore
SplineSet
54 288 m 0
 54 413 102 498 204 558 c 0
 252 587 298 599 344 599 c 0
 390 599 437 585 485 556 c 0
 584 498 633 415 633 298 c 0
 633 181 586 102 486 43 c 0
 432 11 381 -5 332 -5 c 0
 288 -5 243 8 195 37 c 0
 98 93 54 176 54 288 c 0
340 48 m 0
 381 48 422 63 461 89 c 0
 535 137 572 205 572 299 c 0
 572 393 535 464 461 512 c 0
 424 536 387 548 349 548 c 0
 311 548 273 536 236 512 c 0
 160 463 124 391 124 292 c 0
 124 202 159 132 230 84 c 0
 267 61 303 48 340 48 c 0
213 717 m 0
 241 717 269 702 269 676 c 0
 269 652 242 636 215 636 c 0
 187 636 162 654 162 678 c 0
 162 702 186 717 213 717 c 0
473 721 m 0
 501 721 526 706 526 680 c 0
 526 656 501 639 474 639 c 0
 446 639 422 657 422 681 c 0
 422 705 446 721 473 721 c 0
EndSplineSet
Validated: 1
EndChar

StartChar: multiply
Encoding: 215 215 149
Width: 521
VWidth: 941
GlyphClass: 2
Flags: W
LayerCount: 2
Fore
SplineSet
465 136 m 1
 415 102 l 1
 261 284 l 1
 106 102 l 1
 54 140 l 1
 219 332 l 1
 63 517 l 1
 106 558 l 1
 258 376 l 1
 415 558 l 1
 465 518 l 1
 301 329 l 1
 465 136 l 1
EndSplineSet
Validated: 1
EndChar

StartChar: Uacute
Encoding: 218 218 151
Width: 606
GlyphClass: 2
HStem: -12 62<227.726 406.391> 629 146
VStem: 58 63<162.498 596> 264 152 484 67<136.884 478.623> 484 59<373.468 596>
LayerCount: 2
Fore
SplineSet
171 26 m 4xf8
 92 80 66 161 58 267 c 5
 54 596 l 5
 119 597 l 5
 121 278 l 6
 122 192 152 106 207 81 c 4
 241 66 274 50 303 50 c 4
 305 50 307 50 309 50 c 0
 339 50 384 51 414 76 c 4
 447 103 484 160 484 205 c 6xf8
 484 596 l 5
 543 597 l 5xf4
 546 477 551 378 551 249 c 4
 551 222 550 193 548 166 c 5
 519 59 436 -12 334 -12 c 4
 326 -12 210 -2 171 26 c 4xf8
EndSplineSet
Refer: 213 769 S 1 0 0 1 210 -150 2
Validated: 1
EndChar

StartChar: Udieresis
Encoding: 220 220 153
Width: 606
GlyphClass: 2
HStem: -12 62<227.726 406.391> 658 102<125.073 212.664 388.023 468.303>
VStem: 58 63<162.498 596> 115 108<668.387 748.948> 376 104<670.66 753.995> 484 67<136.884 478.623> 484 59<373.468 596>
LayerCount: 2
Fore
SplineSet
167 760 m 4xd8
 195 760 223 740 223 708 c 4
 223 677 196 658 169 658 c 4
 141 658 115 679 115 710 c 4
 115 741 140 760 167 760 c 4xd8
427 763 m 4
 455 763 480 744 480 712 c 4
 480 681 455 661 428 661 c 4
 400 661 376 682 376 713 c 4
 376 744 400 763 427 763 c 4
171 26 m 4
 92 80 66 161 58 267 c 5
 54 596 l 5
 119 597 l 5
 121 278 l 6
 122 192 152 106 207 81 c 4
 241 66 272 50 301 50 c 4
 303 50 305 50 307 50 c 4
 337 50 384 51 414 76 c 4
 447 103 484 160 484 205 c 6xec
 484 596 l 5
 543 597 l 5xca
 546 477 551 378 551 249 c 4xcc
 551 222 550 193 548 166 c 5
 519 59 436 -12 334 -12 c 4
 326 -12 210 -2 171 26 c 4
EndSplineSet
Validated: 1
EndChar

StartChar: Yacute
Encoding: 221 221 154
Width: 573
VWidth: 918
GlyphClass: 2
Flags: W
VStem: 252 63<-5 303>
LayerCount: 2
Fore
SplineSet
313 303 m 1
 315 -5 l 1
 252 -5 l 1
 251 303 l 1
 54 594 l 1
 122 594 l 1
 281 369 l 1
 444 595 l 1
 517 595 l 1
 313 303 l 1
430 745 m 1
 282 635 l 1
 247 643 l 1
 362 770 l 1
 430 745 l 1
EndSplineSet
Validated: 1
EndChar

StartChar: agrave
Encoding: 224 224 155
Width: 494
VWidth: 928
GlyphClass: 2
Flags: W
HStem: 2 52<185.213 313.351> 421 56<192.349 317.087>
VStem: 54 54<138.41 332.795> 393 46<-2 70 140.79 337.88 415 471>
LayerCount: 2
Fore
SplineSet
126 671 m 1
 204 671 l 1
 276 523 l 1
 243 524 l 1
 126 671 l 1
256 421 m 0
 232 421 206 410 180 391 c 0
 132 355 108 306 108 236 c 0
 108 166 131 116 179 80 c 0
 202 63 227 54 250 54 c 0
 273 54 295 62 318 79 c 0
 369 115 391 167 391 241 c 0
 391 309 371 361 323 395 c 0
 299 413 278 421 256 421 c 0
261 477 m 0
 305 477 364 444 393 415 c 1
 393 472 l 1
 439 471 l 1
 439 -3 l 1
 393 -2 l 1
 393 70 l 1
 361 38 303 2 252 2 c 0
 220 2 187 13 154 36 c 0
 86 80 54 147 54 237 c 0
 54 327 86 395 154 439 c 0
 190 463 225 477 261 477 c 0
EndSplineSet
Validated: 1
EndChar

StartChar: aacute
Encoding: 225 225 156
Width: 494
VWidth: 935
GlyphClass: 2
Flags: W
HStem: 8 53<185.213 314.661> 428 55<192.349 314.841>
VStem: 54 54<144.695 339.08> 393 46<5 76 147.243 344.31 421 477>
LayerCount: 2
Fore
SplineSet
256 428 m 0
 232 428 206 417 180 398 c 0
 132 362 108 312 108 242 c 0
 108 172 131 123 179 87 c 0
 202 70 227 61 250 61 c 0
 273 61 295 68 318 85 c 0
 369 121 391 174 391 248 c 0
 391 316 371 367 323 401 c 0
 299 419 278 428 256 428 c 0
261 483 m 0
 305 483 364 450 393 421 c 1
 393 478 l 1
 439 477 l 1
 439 3 l 1
 393 5 l 1
 393 76 l 1
 361 44 301 8 252 8 c 0
 220 8 187 19 154 42 c 0
 86 86 54 153 54 243 c 0
 54 333 86 401 154 445 c 0
 190 469 225 483 261 483 c 0
408 666 m 1
 261 529 l 1
 224 539 l 1
 338 697 l 1
 408 666 l 1
EndSplineSet
Validated: 1
EndChar

StartChar: acircumflex
Encoding: 226 226 157
Width: 494
VWidth: 959
GlyphClass: 2
Flags: W
HStem: -3 51<185.213 311.072> 416 55<192.349 317.087>
VStem: 54 54<132.805 327.125> 393 46<-7 65 135.79 332.88 410 464>
LayerCount: 2
Fore
SplineSet
218 758 m 1
 301 758 l 1
 434 517 l 1
 366 518 l 1
 269 707 l 1
 253 709 l 1
 151 520 l 1
 87 518 l 1
 218 758 l 1
256 416 m 0
 232 416 206 405 180 386 c 0
 132 350 108 301 108 231 c 0
 108 161 131 110 179 74 c 0
 202 57 227 48 250 48 c 0
 273 48 295 57 318 74 c 0
 369 110 391 162 391 236 c 0
 391 304 371 356 323 390 c 0
 299 408 278 416 256 416 c 0
261 471 m 0
 305 471 364 439 393 410 c 1
 393 467 l 1
 439 464 l 1
 439 -8 l 1
 393 -7 l 1
 393 65 l 1
 361 33 303 -3 252 -3 c 0
 220 -3 187 8 154 31 c 0
 86 75 54 141 54 231 c 0
 54 321 86 388 154 432 c 0
 190 456 225 471 261 471 c 0
EndSplineSet
Validated: 1
EndChar

StartChar: atilde
Encoding: 227 227 158
Width: 596
VWidth: 923
GlyphClass: 2
Flags: W
HStem: -5 53<222.61 349.746> 416 55<231.713 353.768> 519 49<347.365 479.795> 602 46<161.469 274.358>
VStem: 92 53<132.229 325.461> 429 47<-8 64 132.781 336.892 408 464> 523 36<613.502 637.889>
LayerCount: 2
Fore
SplineSet
292 416 m 0
 268 416 244 404 218 385 c 0
 170 349 145 300 145 230 c 0
 145 160 168 110 216 74 c 0
 239 57 264 48 287 48 c 0
 310 48 332 56 355 73 c 0
 406 109 428 162 428 236 c 0
 428 304 410 355 362 389 c 0
 338 407 314 416 292 416 c 0
298 471 m 0
 342 471 400 437 429 408 c 1
 429 466 l 1
 476 464 l 1
 476 -8 l 1
 429 -8 l 1
 429 64 l 1
 397 32 338 -5 289 -5 c 0
 257 -5 223 6 190 29 c 0
 122 73 92 141 92 231 c 0
 92 321 122 388 190 432 c 0
 226 456 262 471 298 471 c 0
213 602 m 0
 185 602 146 573 98 525 c 1
 72 566 l 1
 78 570 l 1
 134 624 173 648 214 648 c 0
 251 648 289 628 345 591 c 0
 365 578 394 568 416 568 c 0
 479 568 516 624 523 641 c 1
 530 641 l 2
 545 641 559 624 559 616 c 0
 559 590 505 519 418 519 c 0
 384 519 357 527 324 549 c 0
 270 585 241 602 213 602 c 0
EndSplineSet
Validated: 1
EndChar

StartChar: adieresis
Encoding: 228 228 159
Width: 499
VWidth: 913
GlyphClass: 2
Flags: W
HStem: -13 52<186.531 311.072> 406 56<190.907 319.773> 507 103<88.2639 174.664 352.214 431.164>
VStem: 54 54<124.41 318.456> 77 108<518.154 599.186> 338 106<521.917 602.779> 393 47<-15 56 126.79 326.207 400 456>
LayerCount: 2
Fore
SplineSet
256 406 m 0xf0
 232 406 206 396 180 377 c 0
 132 341 108 292 108 222 c 0
 108 152 131 102 179 66 c 0
 202 49 227 39 250 39 c 0
 273 39 295 48 318 65 c 0
 369 101 391 153 391 227 c 0
 391 295 373 347 325 381 c 0
 301 399 278 406 256 406 c 0xf0
261 462 m 0
 305 462 364 429 393 400 c 1
 393 457 l 1
 440 456 l 1
 440 -17 l 1
 393 -15 l 1
 393 56 l 1xf2
 361 24 303 -13 252 -13 c 0
 220 -13 187 -1 154 22 c 0
 86 66 54 133 54 223 c 0
 54 313 86 379 154 423 c 0
 190 447 225 462 261 462 c 0
129 610 m 0
 157 610 185 590 185 558 c 0
 185 527 158 507 131 507 c 0
 103 507 77 530 77 561 c 0xe8
 77 592 102 610 129 610 c 0
389 614 m 0
 417 614 444 593 444 561 c 0
 444 530 418 512 391 512 c 0
 363 512 338 533 338 564 c 0xe4
 338 595 362 614 389 614 c 0
EndSplineSet
Validated: 1
EndChar

StartChar: aring
Encoding: 229 229 160
Width: 494
VWidth: 946
GlyphClass: 2
Flags: HW
HStem: 8 53<186.531 311.072> 428 56<189.466 317.64> 530 40<224.695 295.716> 696 40<226.555 296.435>
VStem: 54 54<146.014 340.696> 170 43<580.888 683.562> 311 39<585.855 681.851> 393 46<7 78 148.337 345.45 422 478>
LayerCount: 2
Fore
SplineSet
256 428 m 0
 232 428 206 419 180 400 c 0
 132 364 108 313 108 243 c 0
 108 173 131 124 179 88 c 0
 202 71 227 61 250 61 c 0
 273 61 295 70 318 87 c 0
 369 123 391 174 391 248 c 0
 391 316 371 369 323 403 c 0
 299 421 278 428 256 428 c 0
261 484 m 0
 305 484 364 451 393 422 c 1
 393 479 l 1
 439 478 l 1
 439 5 l 1
 393 7 l 1
 393 78 l 1
 361 46 303 8 252 8 c 0
 220 8 187 20 154 43 c 0
 86 87 54 155 54 245 c 0
 54 335 86 402 154 446 c 0
 190 470 225 484 261 484 c 0
176 631 m 4
 176 684 209 736 267 736 c 4
 282 736 298 731 313 721 c 4
 342 702 356 672 356 634 c 4
 356 581 319 530 263 530 c 4
 209 530 176 582 176 631 c 4
317 634 m 4
 317 662 297 696 268 696 c 4
 260 696 252 694 244 687 c 4
 226 674 219 658 219 631 c 4
 219 607 225 591 242 579 c 4
 250 572 256 570 264 570 c 4
 272 570 284 574 292 581 c 4
 310 594 317 608 317 634 c 4
EndSplineSet
Validated: 1
EndChar

StartChar: ccedilla
Encoding: 231 231 161
Width: 461
VWidth: 888
GlyphClass: 2
Flags: W
HStem: 405 52<192.832 313.644>
VStem: 54 60<114.697 320.211> 174 79<-140.626 -99.2358> 190 60<-234.866 -141.935> 297 108<305.418 385.53>
LayerCount: 2
Fore
SplineSet
328 69 m 1xe8
 341 67 355 50 355 33 c 0
 355 28 353 23 350 20 c 0
 322 2 294 -10 267 -15 c 1
 235 -82 l 1
 247 -89 251 -103 253 -110 c 2
 253 -117 l 2xe8
 253 -125 253 -136 250 -143 c 0xd8
 248 -211 218 -268 174 -321 c 1xe8
 156 -296 l 1
 176 -263 190 -232 190 -196 c 0xd8
 190 -178 189 -161 182 -141 c 0
 175 -133 174 -127 174 -119 c 0
 174 -111 176 -104 179 -99 c 1
 177 -99 l 1
 221 -15 l 1
 197 -12 173 0 149 17 c 0
 83 61 54 127 54 214 c 0
 54 309 85 377 155 425 c 0
 188 447 220 457 252 457 c 0
 303 457 370 421 398 384 c 0
 403 379 405 372 405 364 c 0
 405 359 404 355 404 348 c 0
 404 326 401 313 383 303 c 0
 373 298 362 294 352 294 c 0
 344 294 333 298 323 303 c 0
 303 313 297 327 297 347 c 0
 297 365 303 376 315 386 c 1
 295 398 275 405 256 405 c 0
 233 405 210 397 187 379 c 0
 136 343 114 292 114 218 c 0
 114 150 132 98 180 64 c 0
 203 47 226 38 248 38 c 0
 275 38 299 51 328 69 c 1xe8
EndSplineSet
Validated: 1
EndChar

StartChar: egrave
Encoding: 232 232 162
Width: 506
VWidth: 926
GlyphClass: 2
Flags: W
HStem: -7 56<188.235 338.87> 207 62<116 394> 418 53<192.587 317.464>
VStem: 56 60<269 338.699>
LayerCount: 2
Fore
SplineSet
116 269 m 1
 394 269 l 1
 386 323 366 362 325 391 c 0
 301 409 278 418 255 418 c 0
 232 418 209 409 185 391 c 0
 144 362 123 323 116 269 c 1
450 238 m 0
 450 225 452 217 450 207 c 1
 114 207 l 1
 119 151 139 107 180 76 c 0
 204 58 251 49 274 49 c 0
 298 49 324 60 350 78 c 0
 353 80 357 82 360 82 c 0
 373 82 389 66 389 51 c 0
 389 44 384 37 376 32 c 0
 339 8 305 -7 269 -7 c 0
 237 -7 180 7 148 29 c 0
 88 70 59 129 54 204 c 0
 54 226 54 247 54 269 c 1
 56 269 l 1
 64 343 95 398 154 437 c 0
 187 459 219 471 252 471 c 0
 285 471 317 459 350 436 c 0
 409 397 441 343 449 272 c 1
 449 265 l 2
 451 260 450 250 450 238 c 0
117 666 m 1
 196 666 l 1
 269 517 l 1
 236 518 l 1
 117 666 l 1
EndSplineSet
Validated: 1
EndChar

StartChar: eacute
Encoding: 233 233 163
Width: 506
VWidth: 933
GlyphClass: 2
Flags: W
HStem: 2 54<188.235 338.87> 212 63<116 394> 425 52<189.386 317.464>
VStem: 56 60<275 344.972>
LayerCount: 2
Fore
SplineSet
116 275 m 1
 394 275 l 1
 386 329 366 369 325 398 c 0
 301 416 278 425 255 425 c 0
 232 425 209 418 185 400 c 0
 144 371 123 329 116 275 c 1
450 246 m 0
 450 237 451 229 451 222 c 0
 451 218 451 215 450 212 c 2
 114 212 l 1
 119 156 139 114 180 83 c 0
 204 65 251 56 274 56 c 0
 298 56 324 67 350 85 c 0
 353 87 357 88 360 88 c 0
 373 88 389 74 389 59 c 0
 389 52 384 44 376 39 c 0
 339 15 305 2 269 2 c 0
 237 2 180 14 148 36 c 0
 88 77 59 136 54 211 c 0
 54 233 54 253 54 275 c 1
 56 275 l 1
 64 349 95 405 154 444 c 0
 187 466 219 477 252 477 c 0
 285 477 317 465 350 442 c 0
 409 403 441 349 449 278 c 1
 449 273 l 2
 451 268 450 258 450 246 c 0
399 661 m 1
 252 523 l 1
 215 533 l 1
 330 691 l 1
 399 661 l 1
EndSplineSet
Validated: 1
EndChar

StartChar: ecircumflex
Encoding: 234 234 164
Width: 506
VWidth: 907
GlyphClass: 2
Flags: W
HStem: -13 55<188.235 338.87> 199 63<116 394> 411 53<190.708 317.464>
VStem: 56 60<262 331.699>
LayerCount: 2
Fore
SplineSet
116 262 m 1
 394 262 l 1
 386 316 366 355 325 384 c 0
 301 402 278 411 255 411 c 0
 232 411 209 403 185 385 c 0
 144 356 123 316 116 262 c 1
450 232 m 0
 450 223 451 216 451 209 c 0
 451 206 451 202 450 199 c 2
 114 199 l 1
 119 143 139 100 180 69 c 0
 204 51 251 42 274 42 c 0
 298 42 324 53 350 71 c 0
 353 73 357 74 360 74 c 0
 373 74 389 59 389 44 c 0
 389 37 384 31 376 26 c 0
 339 2 305 -13 269 -13 c 0
 237 -13 180 1 148 23 c 0
 88 64 59 121 54 196 c 0
 54 218 54 240 54 262 c 1
 56 262 l 1
 64 336 95 391 154 430 c 0
 187 452 219 464 252 464 c 0
 285 464 317 453 350 430 c 0
 409 391 441 335 449 264 c 1
 449 258 l 2
 451 253 450 244 450 232 c 0
209 752 m 1
 292 752 l 1
 427 510 l 1
 358 513 l 1
 260 700 l 1
 246 701 l 1
 144 513 l 1
 77 512 l 1
 209 752 l 1
EndSplineSet
Validated: 1
EndChar

StartChar: edieresis
Encoding: 235 235 165
Width: 506
VWidth: 912
GlyphClass: 2
Flags: W
HStem: -8 56<186.928 340.312> 204 64<116 394> 416 53<190.708 319.344> 515 102<80.4748 167.033 342.829 422.762>
VStem: 56 60<268 337.699> 70 107<525.021 606.378> 330 104<528.021 610.765>
LayerCount: 2
Fore
SplineSet
116 268 m 1xfa
 394 268 l 1
 386 322 366 361 325 390 c 0
 301 408 278 416 255 416 c 0
 232 416 209 408 185 390 c 0
 144 361 123 322 116 268 c 1xfa
450 237 m 0
 450 228 451 221 451 214 c 0
 451 211 451 207 450 204 c 2
 114 204 l 1
 119 148 139 105 180 74 c 0
 204 56 251 48 274 48 c 0
 298 48 324 58 350 76 c 0
 353 78 357 80 360 80 c 0
 373 80 389 64 389 49 c 0
 389 42 384 36 376 31 c 0
 339 7 305 -8 269 -8 c 0
 237 -8 180 6 148 28 c 0
 88 69 59 127 54 202 c 0
 54 224 54 246 54 268 c 1
 56 268 l 1
 64 342 95 397 154 436 c 0
 187 458 219 469 252 469 c 0
 285 469 317 458 350 435 c 0
 409 396 441 340 449 269 c 1
 449 264 l 2
 451 259 450 249 450 237 c 0
121 617 m 0
 149 617 177 598 177 566 c 0
 177 535 150 515 123 515 c 0
 95 515 70 537 70 568 c 0xf6
 70 599 94 617 121 617 c 0
381 620 m 0
 409 620 434 601 434 569 c 0
 434 538 410 518 383 518 c 0
 355 518 330 540 330 571 c 0
 330 602 354 620 381 620 c 0
EndSplineSet
Validated: 1
EndChar

StartChar: igrave
Encoding: 236 236 166
Width: 274
VWidth: 933
GlyphClass: 2
Flags: W
VStem: 160 55<17 476>
LayerCount: 2
Fore
SplineSet
218 476 m 1
 215 17 l 1
 160 17 l 1
 160 477 l 1
 218 476 l 1
54 672 m 1
 133 672 l 1
 205 523 l 1
 172 525 l 1
 54 672 l 1
EndSplineSet
Validated: 1
EndChar

StartChar: iacute
Encoding: 237 237 167
Width: 294
VWidth: 939
GlyphClass: 2
Flags: W
VStem: 63 55<23 482>
LayerCount: 2
Fore
SplineSet
121 482 m 1
 118 23 l 1
 63 23 l 1
 63 484 l 1
 121 482 l 1
238 668 m 1
 92 530 l 1
 54 539 l 1
 169 699 l 1
 238 668 l 1
EndSplineSet
Validated: 1
EndChar

StartChar: icircumflex
Encoding: 238 238 168
Width: 460
VWidth: 912
GlyphClass: 2
Flags: W
VStem: 201 56<-3 456>
LayerCount: 2
Fore
SplineSet
258 456 m 1
 257 -3 l 1
 201 -3 l 1
 201 457 l 1
 258 456 l 1
185 746 m 1
 270 746 l 1
 404 503 l 1
 335 507 l 1
 236 694 l 1
 223 696 l 1
 121 507 l 1
 54 505 l 1
 185 746 l 1
EndSplineSet
Validated: 1
EndChar

StartChar: idieresis
Encoding: 239 239 169
Width: 475
VWidth: 918
GlyphClass: 2
Flags: W
HStem: 508 104<65.6214 150.852 327.922 406.487>
VStem: 54 108<519.538 600.65> 209 56<3 462> 315 104<522.299 605.634>
LayerCount: 2
Fore
SplineSet
266 462 m 1
 265 3 l 1
 209 3 l 1
 209 462 l 1
 266 462 l 1
106 612 m 0
 134 612 162 591 162 559 c 0
 162 528 135 508 108 508 c 0
 80 508 54 532 54 563 c 0
 54 594 79 612 106 612 c 0
366 615 m 0
 394 615 419 595 419 563 c 0
 419 532 394 513 367 513 c 0
 339 513 315 533 315 564 c 0
 315 595 339 615 366 615 c 0
EndSplineSet
Validated: 1
EndChar

StartChar: ntilde
Encoding: 241 241 170
Width: 596
VWidth: 923
GlyphClass: 2
Flags: W
HStem: 408 61<231.571 360.925> 515 49<331.061 461.795> 599 46<145.477 256.358>
VStem: 95 69<416 467> 95 58<7 336.646> 439 61<7 329.766> 505 36<610.749 634.715>
LayerCount: 2
Fore
SplineSet
435 3 m 1xf6
 435 39 439 198 439 218 c 2
 439 243 l 2
 436 306 416 350 368 382 c 0
 344 399 321 408 297 408 c 0
 273 408 249 399 225 382 c 0
 193 360 166 334 156 301 c 1
 153 265 153 176 153 110 c 0
 153 96 153 83 153 72 c 0
 153 61 153 51 154 44 c 2
 154 7 l 1
 95 7 l 1xee
 95 467 l 1
 164 467 l 1
 164 416 l 1
 172 423 182 428 190 435 c 0
 226 457 260 469 294 469 c 0
 328 469 363 458 399 435 c 0
 465 392 497 328 500 243 c 1
 498 164 498 85 496 7 c 1
 435 3 l 1xf6
505 638 m 1
 512 638 l 2
 527 638 541 620 541 612 c 0
 541 586 487 515 400 515 c 0
 366 515 339 524 306 546 c 0
 252 582 223 599 195 599 c 0
 166 599 140 576 87 528 c 1
 80 520 l 1
 54 563 l 1
 60 566 l 1
 116 620 155 645 196 645 c 0
 233 645 271 625 327 588 c 0
 347 575 376 564 398 564 c 0
 461 564 498 621 505 638 c 1
EndSplineSet
Validated: 1
EndChar

StartChar: ograve
Encoding: 242 242 171
Width: 524
VWidth: 926
GlyphClass: 2
Flags: W
HStem: -3 63<190.731 325.141> 411 61<200.865 327.925>
VStem: 54 68<131.926 330.292> 405 63<140.33 331.475>
LayerCount: 2
Fore
SplineSet
156 437 m 0
 192 459 227 472 261 472 c 0
 295 472 330 460 366 437 c 0
 435 393 468 326 468 236 c 0
 468 146 436 78 366 34 c 0
 328 10 290 -3 252 -3 c 0
 219 -3 183 7 149 29 c 0
 81 73 54 141 54 228 c 0
 54 322 85 389 156 437 c 0
335 88 m 0
 383 121 405 168 405 236 c 0
 405 302 383 352 335 385 c 0
 311 402 288 411 264 411 c 0
 240 411 218 402 194 385 c 0
 143 351 122 301 122 231 c 0
 122 166 139 117 187 84 c 0
 211 67 234 60 257 60 c 0
 283 60 309 70 335 88 c 0
128 666 m 1
 205 666 l 1
 277 518 l 1
 245 518 l 1
 128 666 l 1
EndSplineSet
Validated: 1
EndChar

StartChar: oacute
Encoding: 243 243 172
Width: 524
VWidth: 934
GlyphClass: 2
Flags: W
HStem: 3 63<190.731 325.141> 416 62<196.161 329.87>
VStem: 54 68<138.606 337.385> 405 63<146.702 337.847>
LayerCount: 2
Fore
SplineSet
156 444 m 0
 192 466 227 478 261 478 c 0
 295 478 330 467 366 444 c 0
 435 400 468 332 468 242 c 0
 468 152 436 85 366 41 c 0
 328 17 290 3 252 3 c 0
 219 3 183 15 149 37 c 0
 81 81 54 148 54 235 c 0
 54 329 85 396 156 444 c 0
335 94 m 0
 383 127 405 175 405 243 c 0
 405 309 383 358 335 391 c 0
 311 408 288 416 264 416 c 0
 240 416 218 410 194 393 c 0
 143 359 122 307 122 237 c 0
 122 172 139 123 187 90 c 0
 211 73 234 66 257 66 c 0
 283 66 309 76 335 94 c 0
408 661 m 1
 261 524 l 1
 224 534 l 1
 338 692 l 1
 408 661 l 1
EndSplineSet
Validated: 1
EndChar

StartChar: ocircumflex
Encoding: 244 244 173
Width: 524
VWidth: 907
GlyphClass: 2
Flags: W
HStem: -23 62<194.04 321.531> 390 61<197.546 329.87>
VStem: 54 68<112.287 310.653> 405 63<120.999 311.509>
LayerCount: 2
Fore
SplineSet
156 418 m 0
 192 440 227 451 261 451 c 0
 295 451 330 439 366 416 c 0
 435 372 468 306 468 216 c 0
 468 126 436 59 366 15 c 0
 328 -9 290 -23 252 -23 c 0
 219 -23 183 -12 149 10 c 0
 81 54 54 120 54 207 c 0
 54 301 85 370 156 418 c 0
335 69 m 0
 383 102 405 149 405 217 c 0
 405 283 383 332 335 365 c 0
 311 382 288 390 264 390 c 0
 240 390 218 383 194 366 c 0
 143 332 122 282 122 212 c 0
 122 147 139 98 187 65 c 0
 211 48 234 39 257 39 c 0
 283 39 309 51 335 69 c 0
218 740 m 1
 302 740 l 1
 435 497 l 1
 367 500 l 1
 269 688 l 1
 255 690 l 1
 153 502 l 1
 87 498 l 1
 218 740 l 1
EndSplineSet
Validated: 1
EndChar

StartChar: otilde
Encoding: 245 245 174
Width: 596
VWidth: 921
GlyphClass: 2
Flags: W
HStem: -10 64<227.848 361.51> 405 61<234.771 364.401> 512 49<329.365 461.795> 595 46<143.469 256.358>
VStem: 90 68<125.926 324.385> 442 61<135.643 324.566> 505 36<606.502 630.889>
LayerCount: 2
Fore
SplineSet
194 431 m 0
 230 453 263 466 297 466 c 0
 331 466 365 454 401 431 c 0
 470 387 503 320 503 230 c 0
 503 140 471 72 401 28 c 0
 363 4 325 -10 287 -10 c 0
 254 -10 219 2 185 24 c 0
 117 68 90 135 90 222 c 0
 90 316 123 383 194 431 c 0
371 82 m 0
 419 115 442 163 442 231 c 0
 442 297 419 346 371 379 c 0
 347 396 325 405 301 405 c 0
 277 405 254 397 230 380 c 0
 179 346 158 294 158 224 c 0
 158 159 176 111 224 78 c 0
 248 61 269 54 292 54 c 0
 318 54 345 64 371 82 c 0
195 595 m 0
 167 595 128 566 80 518 c 1
 54 558 l 1
 60 563 l 1
 116 617 155 641 196 641 c 0
 233 641 271 621 327 584 c 0
 347 571 376 561 398 561 c 0
 461 561 498 617 505 634 c 1
 512 634 l 2
 527 634 541 617 541 609 c 0
 541 583 487 512 400 512 c 0
 366 512 339 520 306 542 c 0
 252 578 223 595 195 595 c 0
EndSplineSet
Validated: 1
EndChar

StartChar: odieresis
Encoding: 246 246 175
Width: 524
VWidth: 912
GlyphClass: 2
Flags: W
HStem: -18 64<190.731 325.141> 395 61<197.546 331.258> 502 103<89.6249 174.664 351.657 431.164>
VStem: 54 68<117.926 316.292> 78 107<513.951 594.186> 338 106<516.299 597.779> 405 63<126.33 317.306>
LayerCount: 2
Fore
SplineSet
156 423 m 0xf2
 192 445 227 456 261 456 c 0
 295 456 330 445 366 422 c 0
 435 378 468 312 468 222 c 0
 468 132 436 64 366 20 c 0
 328 -4 290 -18 252 -18 c 0
 219 -18 183 -7 149 15 c 0
 81 59 54 127 54 214 c 0
 54 308 85 375 156 423 c 0xf2
335 74 m 0
 383 107 405 154 405 222 c 0
 405 288 383 338 335 371 c 0
 311 388 288 395 264 395 c 0
 240 395 218 388 194 371 c 0
 143 337 122 287 122 217 c 0
 122 152 139 103 187 70 c 0
 211 53 234 46 257 46 c 0
 283 46 309 56 335 74 c 0
129 605 m 0
 157 605 185 585 185 553 c 0
 185 522 160 502 133 502 c 0
 105 502 78 525 78 556 c 0xe8
 78 587 102 605 129 605 c 0
389 609 m 0
 417 609 444 588 444 556 c 0
 444 525 418 507 391 507 c 0
 363 507 338 527 338 558 c 0xe4
 338 589 362 609 389 609 c 0
EndSplineSet
Validated: 1
EndChar

StartChar: divide
Encoding: 247 247 176
Width: 542
VWidth: 902
GlyphClass: 2
Flags: W
HStem: 139 107<230.052 311.34> 293 66<54 486> 400 103<225.005 308.34>
VStem: 219 102<148.735 235.664 411.616 491.303>
LayerCount: 2
Fore
SplineSet
54 359 m 1
 486 359 l 1
 486 293 l 1
 54 293 l 1
 54 359 l 1
219 190 m 0
 219 218 239 246 271 246 c 0
 302 246 321 219 321 192 c 0
 321 164 300 139 269 139 c 0
 238 139 219 163 219 190 c 0
216 450 m 0
 216 478 235 503 267 503 c 0
 298 503 318 478 318 451 c 0
 318 423 297 400 266 400 c 0
 235 400 216 423 216 450 c 0
EndSplineSet
Validated: 1
EndChar

StartChar: ugrave
Encoding: 249 249 177
Width: 521
VWidth: 920
GlyphClass: 2
Flags: W
HStem: -8 56<194.897 326.254>
VStem: 56 61<124.669 439> 394 71<-8 42 110.555 227.03> 399 58<227.03 444>
LayerCount: 2
Fore
SplineSet
123 643 m 1xc0
 201 643 l 1
 274 493 l 1
 242 496 l 1
 123 643 l 1xc0
457 445 m 1xd0
 460 294 462 147 465 -8 c 1
 394 -8 l 1
 394 42 l 1xe0
 358 13 310 -14 262 -14 c 0
 229 -14 194 -3 160 19 c 0
 92 61 61 123 56 206 c 1
 56 282 54 363 54 439 c 1
 117 441 l 1
 117 207 l 2
 120 146 142 104 190 73 c 0
 214 56 238 48 260 48 c 0
 284 48 308 56 332 74 c 0
 363 96 390 125 400 158 c 1
 402 184 403 232 403 280 c 0
 403 319 402 377 399 406 c 0
 399 419 399 431 399 444 c 1
 457 445 l 1xd0
EndSplineSet
Validated: 1
EndChar

StartChar: uacute
Encoding: 250 250 178
Width: 521
VWidth: 929
GlyphClass: 2
Flags: W
HStem: -3 61<193.53 325.766>
VStem: 56 61<136.083 447> 394 71<2 51 121.218 236.506> 399 58<229.5 452>
LayerCount: 2
Fore
SplineSet
457 454 m 1xd0
 460 303 462 157 465 2 c 1
 394 0 l 1
 394 51 l 1xe0
 358 22 310 -3 262 -3 c 0
 229 -3 194 6 160 28 c 0
 92 70 61 131 56 214 c 1
 56 290 54 371 54 447 c 1
 117 450 l 1
 117 216 l 2
 120 155 142 113 190 82 c 0
 214 65 238 58 260 58 c 0
 323 58 385 120 400 168 c 1
 402 194 403 243 403 291 c 0
 403 330 402 387 399 416 c 0
 399 429 399 439 399 452 c 1
 457 454 l 1xd0
391 649 m 1
 245 510 l 1
 208 520 l 1
 322 678 l 1
 391 649 l 1
EndSplineSet
Validated: 1
EndChar

StartChar: ucircumflex
Encoding: 251 251 179
Width: 521
VWidth: 957
GlyphClass: 2
Flags: W
HStem: 23 61<196.826 326.254>
VStem: 56 61<164.083 476> 394 71<29 79 147.508 264.03> 399 58<264.03 481>
LayerCount: 2
Fore
SplineSet
215 790 m 1xc0
 298 790 l 1
 432 547 l 1
 363 549 l 1
 265 738 l 1
 251 740 l 1
 149 551 l 1
 83 549 l 1
 215 790 l 1xc0
457 482 m 1xd0
 460 331 462 184 465 29 c 1
 394 28 l 1
 394 79 l 1xe0
 358 50 310 23 262 23 c 0
 229 23 194 34 160 56 c 0
 92 98 61 159 56 242 c 1
 56 318 54 400 54 476 c 1
 117 478 l 1
 117 243 l 2
 120 182 142 141 190 110 c 0
 214 93 238 84 260 84 c 0
 284 84 308 92 332 110 c 0
 363 132 390 163 400 196 c 1
 402 222 403 270 403 318 c 0
 403 357 402 415 399 444 c 0
 399 457 399 468 399 481 c 1
 457 482 l 1xd0
EndSplineSet
Validated: 1
EndChar

StartChar: udieresis
Encoding: 252 252 180
Width: 521
VWidth: 912
GlyphClass: 2
Flags: W
HStem: -17 56<194.897 325.766> 503 104<78.6214 163.19 340.259 421.164>
VStem: 56 61<116.195 431> 67 107<514.538 595.779> 327 107<517.387 598.592> 394 71<-17 34 102.986 218.03> 399 58<218.03 436>
LayerCount: 2
Fore
SplineSet
457 436 m 1xe2
 460 285 462 138 465 -17 c 1
 394 -17 l 1
 394 34 l 1xc4
 358 5 310 -22 262 -22 c 0
 229 -22 194 -10 160 12 c 0
 92 54 61 114 56 197 c 1
 56 273 54 355 54 431 c 1
 117 432 l 1
 117 199 l 2
 120 138 142 95 190 64 c 0
 214 47 238 39 260 39 c 0
 323 39 385 102 400 150 c 1
 402 176 403 225 403 273 c 0
 403 312 402 369 399 398 c 0
 399 411 399 423 399 436 c 1
 457 436 l 1xe2
119 607 m 0
 147 607 174 586 174 554 c 0
 174 523 148 503 121 503 c 0
 93 503 67 527 67 558 c 0xd0
 67 589 92 607 119 607 c 0
379 609 m 0
 407 609 434 590 434 558 c 0
 434 527 408 507 381 507 c 0
 353 507 327 528 327 559 c 0xc8
 327 590 352 609 379 609 c 0
EndSplineSet
Validated: 1
EndChar

StartChar: yacute
Encoding: 253 253 181
Width: 601
VWidth: 842
GlyphClass: 2
Flags: W
LayerCount: 2
Fore
SplineSet
218 -371 m 1
 194 -369 170 -369 146 -367 c 1
 274 -73 l 1
 54 386 l 1
 116 386 l 1
 306 -7 l 1
 485 388 l 1
 546 388 l 1
 340 -73 l 1
 218 -371 l 1
460 576 m 1
 312 439 l 1
 276 447 l 1
 391 607 l 1
 460 576 l 1
EndSplineSet
Validated: 1
EndChar

StartChar: ydieresis
Encoding: 255 255 182
Width: 601
VWidth: 826
GlyphClass: 2
Flags: W
HStem: 436 102<121.735 208.664 384.023 464.303>
VStem: 112 107<445.66 526.948> 372 104<448.66 531.995>
LayerCount: 2
Fore
SplineSet
218 -386 m 1
 146 -384 l 1
 274 -89 l 1
 54 370 l 1
 116 370 l 1
 306 -23 l 1
 485 371 l 1
 546 371 l 1
 340 -88 l 1
 218 -386 l 1
163 538 m 0
 191 538 219 518 219 486 c 0
 219 455 192 436 165 436 c 0
 137 436 112 457 112 488 c 0
 112 519 136 538 163 538 c 0
423 541 m 0
 451 541 476 522 476 490 c 0
 476 459 451 439 424 439 c 0
 396 439 372 460 372 491 c 0
 372 522 396 541 423 541 c 0
EndSplineSet
Validated: 1
EndChar

StartChar: Amacron
Encoding: 256 256 183
Width: 575
VWidth: 883
GlyphClass: 2
Flags: W
HStem: 212 53<196 376> 648 52<97 480>
LayerCount: 2
Fore
SplineSet
286 556 m 1
 196 265 l 1
 376 265 l 1
 286 556 l 1
465 2 m 1
 391 212 l 1
 177 212 l 1
 108 0 l 1
 54 0 l 1
 257 610 l 1
 318 610 l 1
 519 2 l 1
 465 2 l 1
97 700 m 1
 480 700 l 1
 480 648 l 1
 97 648 l 1
 97 700 l 1
EndSplineSet
Validated: 1
EndChar

StartChar: amacron
Encoding: 257 257 184
Width: 509
VWidth: 850
GlyphClass: 2
Flags: W
HStem: -7 55<184.731 315.433> 415 54<194.171 316.944> 515 66<70 454>
VStem: 54 54<131.444 325.84> 393 47<-8 63 132.351 335.892 406 462>
LayerCount: 2
Fore
SplineSet
257 415 m 0
 233 415 206 403 180 384 c 0
 132 348 108 300 108 230 c 0
 108 160 132 109 180 73 c 0
 203 56 227 48 250 48 c 0
 273 48 297 56 320 73 c 0
 371 109 393 161 393 235 c 0
 393 303 373 354 325 388 c 0
 301 406 279 415 257 415 c 0
393 63 m 1
 361 31 302 -7 253 -7 c 0
 221 -7 187 5 154 28 c 0
 86 72 54 140 54 230 c 0
 54 320 87 387 155 431 c 0
 191 455 225 469 261 469 c 0
 293 469 325 458 358 436 c 0
 371 428 383 416 393 406 c 1
 393 464 l 1
 440 462 l 1
 440 -10 l 1
 393 -8 l 1
 393 63 l 1
70 581 m 1
 454 581 l 1
 454 515 l 1
 70 515 l 1
 70 581 l 1
EndSplineSet
Validated: 1
EndChar

StartChar: Cacute
Encoding: 262 262 185
Width: 587
VWidth: 915
GlyphClass: 2
Flags: W
HStem: -8 45<242.23 432.243> 548 44<243.864 426.912>
VStem: 54 68<158.825 403.594>
LayerCount: 2
Fore
SplineSet
505 99 m 1
 517 91 531 78 531 64 c 2
 531 59 l 2
 529 57 529 58 527 56 c 0
 483 24 376 -8 325 -8 c 2
 321 -8 l 2
 278 -8 235 3 189 29 c 0
 95 82 54 160 54 265 c 0
 54 381 93 498 192 552 c 0
 240 578 284 592 327 592 c 0
 395 592 485 551 529 512 c 1
 521 505 511 498 503 493 c 1
 485 506 459 521 420 533 c 1
 391 547 360 548 332 548 c 0
 295 548 259 537 223 515 c 0
 148 467 122 362 122 268 c 0
 122 183 153 113 223 69 c 0
 257 49 292 37 328 37 c 2
 335 37 l 2
 386 37 470 66 502 94 c 1
 505 99 l 1
474 738 m 1
 327 629 l 1
 291 636 l 1
 405 762 l 1
 474 738 l 1
EndSplineSet
Validated: 1
EndChar

StartChar: cacute
Encoding: 263 263 186
Width: 461
VWidth: 883
GlyphClass: 2
Flags: W
HStem: -10 54<186.145 310.96> 411 55<191.534 313.644>
VStem: 54 60<119.882 327.112> 297 108<311.47 393.53>
LayerCount: 2
Fore
SplineSet
328 76 m 1
 341 74 355 56 355 39 c 0
 355 34 353 31 350 28 c 0
 313 4 279 -10 243 -10 c 0
 211 -10 181 2 149 24 c 0
 83 68 54 135 54 222 c 0
 54 317 85 383 155 431 c 0
 188 453 220 466 252 466 c 0
 303 466 370 428 398 391 c 0
 403 386 405 379 405 371 c 0
 405 366 404 361 404 354 c 0
 404 332 401 321 383 311 c 0
 373 306 362 301 352 301 c 0
 344 301 333 304 323 309 c 0
 303 319 297 334 297 354 c 0
 297 372 303 384 315 394 c 1
 295 406 275 411 256 411 c 0
 233 411 210 404 187 386 c 0
 136 350 114 298 114 224 c 0
 114 156 132 104 180 70 c 0
 203 53 226 44 248 44 c 0
 275 44 299 58 328 76 c 1
399 649 m 1
 252 512 l 1
 215 522 l 1
 330 680 l 1
 399 649 l 1
EndSplineSet
Validated: 1
EndChar

StartChar: Ccircumflex
Encoding: 264 264 187
Width: 587
VWidth: 939
GlyphClass: 2
Flags: W
HStem: 7 46<240.62 428.625> 564 43<242.798 426.912>
VStem: 54 68<175.628 420.523>
LayerCount: 2
Fore
SplineSet
505 114 m 1
 517 106 531 93 531 79 c 2
 531 74 l 2
 529 72 529 75 527 73 c 0
 483 41 376 7 325 7 c 2
 321 7 l 2
 278 7 235 18 189 44 c 0
 95 97 54 193 54 298 c 0
 54 414 93 515 192 569 c 0
 240 595 284 607 327 607 c 0
 395 607 485 567 529 528 c 1
 521 521 511 513 503 508 c 1
 485 521 459 536 420 548 c 1
 391 562 360 564 332 564 c 0
 295 564 259 554 223 532 c 0
 148 484 122 377 122 283 c 0
 122 198 153 128 223 84 c 0
 257 64 292 53 328 53 c 2
 335 53 l 2
 386 53 470 82 502 110 c 1
 505 114 l 1
284 838 m 1
 368 838 l 1
 502 644 l 1
 434 645 l 1
 335 796 l 1
 321 797 l 1
 219 646 l 1
 153 645 l 1
 284 838 l 1
EndSplineSet
Validated: 1
EndChar

StartChar: ccircumflex
Encoding: 265 265 188
Width: 483
VWidth: 907
GlyphClass: 2
Flags: W
HStem: -10 54<186.553 312.433> 411 53<191.082 313.643>
VStem: 54 59<122.143 327.713> 297 107<311.435 392.53>
LayerCount: 2
Fore
SplineSet
328 75 m 1
 341 73 355 56 355 39 c 0
 355 34 353 30 350 27 c 0
 313 3 279 -10 243 -10 c 0
 211 -10 180 1 148 23 c 0
 82 67 54 134 54 221 c 0
 54 316 85 383 155 431 c 0
 188 453 220 464 252 464 c 0
 303 464 370 427 398 390 c 0
 403 385 404 378 404 370 c 0
 404 365 404 361 404 354 c 0
 404 332 401 319 383 309 c 0
 373 304 362 301 352 301 c 0
 344 301 333 304 323 309 c 0
 303 319 297 334 297 354 c 0
 297 372 303 383 315 393 c 1
 295 405 274 411 255 411 c 0
 232 411 208 403 185 385 c 0
 134 349 113 298 113 224 c 0
 113 156 132 104 180 70 c 0
 203 53 226 44 248 44 c 0
 275 44 299 57 328 75 c 1
209 752 m 1
 292 752 l 1
 427 510 l 1
 358 513 l 1
 260 701 l 1
 246 702 l 1
 144 513 l 1
 77 512 l 1
 209 752 l 1
EndSplineSet
Validated: 1
EndChar

StartChar: Cdotaccent
Encoding: 266 266 189
Width: 587
VWidth: 893
GlyphClass: 2
Flags: W
HStem: -10 46<242.23 432.243> 546 44<243.864 426.912> 626 85<283.33 371.276>
VStem: 54 68<159.475 402.036> 276 102<633.973 703.195>
LayerCount: 2
Fore
SplineSet
505 97 m 1
 517 89 531 77 531 63 c 2
 531 56 l 2
 529 54 529 56 527 54 c 0
 483 22 376 -10 325 -10 c 2
 321 -10 l 2
 278 -10 235 2 189 28 c 0
 95 81 54 158 54 263 c 0
 54 379 93 497 192 551 c 0
 240 577 284 590 327 590 c 0
 395 590 485 549 529 510 c 1
 521 503 511 497 503 492 c 1
 485 505 459 518 420 530 c 1
 391 544 360 546 332 546 c 0
 295 546 259 535 223 513 c 0
 148 465 122 361 122 267 c 0
 122 182 153 112 223 68 c 0
 257 48 292 36 328 36 c 2
 335 36 l 2
 386 36 470 66 502 94 c 2
 505 97 l 1
276 666 m 0
 276 689 295 711 327 711 c 0
 358 711 378 690 378 668 c 0
 378 645 356 626 325 626 c 0
 294 626 276 644 276 666 c 0
EndSplineSet
Validated: 1
EndChar

StartChar: cdotaccent
Encoding: 267 267 190
Width: 461
VWidth: 861
GlyphClass: 2
Flags: W
HStem: -5 54<186.145 309.49> 416 53<191.534 313.644> 515 105<210.235 292.23>
VStem: 54 60<126.494 332.327> 201 102<525.471 610.93> 297 108<316.435 399.529>
LayerCount: 2
Fore
SplineSet
328 82 m 1xf4
 341 80 355 61 355 44 c 0
 355 39 353 35 350 32 c 0
 313 8 279 -5 243 -5 c 0
 211 -5 181 6 149 28 c 0
 83 72 54 140 54 227 c 0
 54 322 85 388 155 436 c 0
 188 458 220 469 252 469 c 0
 303 469 370 432 398 395 c 0
 403 390 405 384 405 376 c 0
 405 371 404 367 404 360 c 0
 404 338 401 324 383 314 c 0
 373 309 362 306 352 306 c 0
 344 306 333 309 323 314 c 0
 303 324 297 339 297 359 c 0
 297 377 303 390 315 400 c 1
 295 412 275 416 256 416 c 0
 233 416 210 409 187 391 c 0
 136 355 114 304 114 230 c 0
 114 162 132 109 180 75 c 0
 203 58 226 49 248 49 c 0
 275 49 299 64 328 82 c 1xf4
201 568 m 0xf8
 201 596 220 620 252 620 c 0
 283 620 303 596 303 569 c 0
 303 541 281 515 250 515 c 0
 219 515 201 541 201 568 c 0xf8
EndSplineSet
Validated: 1
EndChar

StartChar: Ccaron
Encoding: 268 268 191
Width: 587
VWidth: 939
GlyphClass: 2
Flags: W
HStem: -5 46<242.23 428.625> 552 43<242.798 427.784>
VStem: 54 68<162.825 408.193>
LayerCount: 2
Fore
SplineSet
505 102 m 1
 517 94 531 82 531 68 c 2
 531 63 l 2
 529 61 529 63 527 61 c 0
 483 29 376 -5 325 -5 c 2
 321 -5 l 2
 278 -5 235 7 189 33 c 0
 95 86 54 164 54 269 c 0
 54 385 93 504 192 558 c 0
 240 584 284 595 327 595 c 0
 395 595 485 556 529 517 c 1
 521 510 511 502 503 497 c 1
 485 510 459 525 420 537 c 1
 391 551 360 552 332 552 c 0
 295 552 259 542 223 520 c 0
 148 472 122 366 122 272 c 0
 122 187 153 117 223 73 c 0
 257 53 292 41 328 41 c 2
 335 41 l 2
 386 41 470 71 502 99 c 2
 505 102 l 1
284 632 m 1
 153 824 l 1
 219 823 l 1
 321 672 l 1
 335 673 l 1
 434 824 l 1
 502 826 l 1
 368 632 l 1
 284 632 l 1
EndSplineSet
Validated: 1
EndChar

StartChar: ccaron
Encoding: 269 269 192
Width: 483
VWidth: 907
GlyphClass: 2
Flags: W
HStem: -10 54<186.553 312.433> 411 53<191.082 313.643>
VStem: 54 59<122.143 327.713> 297 107<311.435 392.53>
LayerCount: 2
Fore
SplineSet
328 75 m 1
 341 73 355 56 355 39 c 0
 355 34 353 30 350 27 c 0
 313 3 279 -10 243 -10 c 0
 211 -10 180 1 148 23 c 0
 82 67 54 134 54 221 c 0
 54 316 85 383 155 431 c 0
 188 453 220 464 252 464 c 0
 303 464 370 427 398 390 c 0
 403 385 404 378 404 370 c 0
 404 365 404 361 404 354 c 0
 404 332 401 319 383 309 c 0
 373 304 362 301 352 301 c 0
 344 301 333 304 323 309 c 0
 303 319 297 334 297 354 c 0
 297 372 303 383 315 393 c 1
 295 405 274 411 255 411 c 0
 232 411 208 403 185 385 c 0
 134 349 113 298 113 224 c 0
 113 156 132 104 180 70 c 0
 203 53 226 44 248 44 c 0
 275 44 299 57 328 75 c 1
209 510 m 1
 77 751 l 1
 144 748 l 1
 246 561 l 1
 260 563 l 1
 358 751 l 1
 427 752 l 1
 292 510 l 1
 209 510 l 1
EndSplineSet
Validated: 1
EndChar

StartChar: Dcaron
Encoding: 270 270 193
Width: 618
VWidth: 943
GlyphClass: 2
Flags: W
HStem: -2 45<128.894 371.356> 553 54<119.926 362.343>
VStem: 54 69<48.0967 82 85 553> 495 67<172.703 420.07>
LayerCount: 2
Fore
SplineSet
56 604 m 1
 89 607 125 607 158 607 c 0
 206 607 248 606 272 604 c 0
 318 601 366 590 414 561 c 0
 513 505 562 423 562 309 c 0
 560 192 515 68 447 36 c 0
 388 4 279 -2 192 -2 c 2
 54 -2 l 1
 56 604 l 1
226 553 m 2
 126 553 l 2
 121 553 119 546 119 538 c 0
 119 530 119 519 119 507 c 0
 119 410 123 164 123 100 c 2
 123 85 l 1
 119 83 l 1
 124 82 l 1
 124 79 l 2
 124 72 123 66 123 59 c 0
 123 56 121 50 128 48 c 0
 147 45 170 43 190 43 c 0
 219 43 248 45 267 48 c 0
 315 55 366 54 405 80 c 0
 479 128 495 217 495 311 c 0
 495 405 457 474 383 522 c 0
 347 545 264 551 226 553 c 2
218 641 m 1
 85 842 l 1
 151 840 l 1
 253 690 l 1
 267 691 l 1
 366 840 l 1
 434 843 l 1
 301 641 l 1
 218 641 l 1
EndSplineSet
Validated: 1
EndChar

StartChar: dcaron
Encoding: 271 271 194
Width: 664
VWidth: 907
GlyphClass: 2
Flags: W
HStem: -8 54<183.35 312.916> 413 55<193.79 317.11>
VStem: 54 54<129.625 324.01> 393 49<-8 61 132.79 331.613 405 750> 529 79<629.842 746.086> 547 57<587.131 706.624>
LayerCount: 2
Fore
SplineSet
256 413 m 0xf0
 232 413 206 401 180 382 c 0
 132 346 108 298 108 228 c 0
 108 158 131 107 179 71 c 0
 202 54 227 46 250 46 c 0
 273 46 295 54 318 71 c 0
 369 107 391 159 391 233 c 0
 391 301 373 352 325 386 c 0
 301 404 278 413 256 413 c 0xf0
261 468 m 0
 307 468 362 436 393 405 c 1
 393 750 l 1
 442 750 l 1
 442 -8 l 1
 393 -8 l 1
 393 61 l 1
 361 29 301 -8 252 -8 c 0
 220 -8 187 4 154 27 c 0
 86 71 54 138 54 228 c 0
 54 318 86 386 154 430 c 0
 190 454 225 468 261 468 c 0
573 750 m 2
 593 750 605 726 608 716 c 2
 608 707 l 2xf8
 608 699 607 689 604 682 c 0xf4
 602 614 573 556 529 503 c 1xf8
 511 529 l 1
 531 562 547 593 547 629 c 0xf4
 547 647 543 663 536 683 c 0
 529 691 529 699 529 707 c 0xf8
 529 735 546 750 568 750 c 2
 573 750 l 2
EndSplineSet
Validated: 1
EndChar

StartChar: Emacron
Encoding: 274 274 195
Width: 496
VWidth: 888
GlyphClass: 2
Flags: W
HStem: -3 47<134 414> 293 47<134 420> 558 47<136 414> 646 54<54 440>
VStem: 73 61<-5 -3 44 293 340 558>
LayerCount: 2
Fore
SplineSet
72 604 m 1
 107 604 l 2
 114 604 119 603 126 605 c 2
 413 605 l 1
 414 598 414 591 414 583 c 0
 414 575 414 566 414 558 c 1
 136 558 l 1
 136 553 l 2
 136 484 134 413 134 344 c 2
 134 340 l 1
 419 340 l 1
 420 333 420 326 420 318 c 0
 420 310 420 301 420 293 c 1
 134 293 l 1
 134 44 l 1
 413 44 l 1
 414 37 414 30 414 22 c 0
 414 14 414 5 414 -3 c 1
 134 -3 l 1
 134 -5 l 1
 73 -5 l 1
 72 604 l 1
54 700 m 1
 440 700 l 1
 440 646 l 1
 54 646 l 1
 54 700 l 1
EndSplineSet
Validated: 1
EndChar

StartChar: emacron
Encoding: 275 275 196
Width: 506
VWidth: 898
GlyphClass: 2
Flags: W
HStem: -20 54<188.235 336.822> 191 62<116 394> 403 53<190.708 317.464> 502 66<60 445>
VStem: 56 60<253 322.972>
LayerCount: 2
Fore
SplineSet
116 253 m 1
 394 253 l 1
 386 307 366 347 325 376 c 0
 301 394 278 403 255 403 c 0
 232 403 209 395 185 377 c 0
 144 348 123 307 116 253 c 1
450 224 m 0
 450 215 451 208 451 201 c 0
 451 198 451 194 450 191 c 2
 114 191 l 1
 119 135 139 92 180 61 c 0
 204 43 251 34 274 34 c 0
 298 34 324 46 350 64 c 0
 353 66 357 66 360 66 c 0
 373 66 389 52 389 37 c 0
 389 30 384 23 376 18 c 0
 339 -6 305 -20 269 -20 c 0
 237 -20 180 -8 148 14 c 0
 88 55 59 114 54 189 c 0
 54 211 54 231 54 253 c 1
 56 253 l 1
 64 327 95 383 154 422 c 0
 187 444 219 456 252 456 c 0
 285 456 317 445 350 422 c 0
 409 383 441 328 449 257 c 1
 449 252 l 2
 451 247 450 236 450 224 c 0
60 568 m 1
 445 568 l 1
 445 502 l 1
 60 502 l 1
 60 568 l 1
EndSplineSet
Validated: 1
EndChar

StartChar: Edotaccent
Encoding: 278 278 197
Width: 460
VWidth: 951
GlyphClass: 2
Flags: W
HStem: 0 48<117 396.799> 298 47<118 404> 563 46<119 396.731> 646 86<208.33 295.669>
VStem: 56 61<-2 0 48 298 345 563> 201 102<654.481 724.451>
LayerCount: 2
Fore
SplineSet
396 48 m 1
 398 34 398 17 398 0 c 1
 116 0 l 1
 116 -2 l 1
 56 -2 l 1
 54 609 l 1
 57 609 60 610 63 610 c 0
 71 610 79 608 89 608 c 0
 92 608 96 609 100 609 c 0
 199 609 297 609 396 609 c 1
 398 595 398 580 398 563 c 1
 119 563 l 1
 119 558 l 2
 119 489 118 418 118 349 c 2
 118 345 l 1
 403 345 l 1
 404 338 404 331 404 323 c 0
 404 315 404 306 404 298 c 1
 117 298 l 1
 117 48 l 1
 396 48 l 1
201 687 m 0
 201 710 220 732 252 732 c 0
 283 732 303 712 303 690 c 0
 303 667 281 646 250 646 c 0
 219 646 201 665 201 687 c 0
EndSplineSet
Validated: 1
EndChar

StartChar: edotaccent
Encoding: 279 279 198
Width: 506
VWidth: 912
GlyphClass: 2
Flags: W
HStem: -8 56<186.928 340.312> 204 64<116 394> 416 53<190.708 319.344> 515 105<210.917 292.979>
VStem: 56 60<268 337.699> 201 102<525.475 610.666>
LayerCount: 2
Fore
SplineSet
116 268 m 1
 394 268 l 1
 386 322 366 361 325 390 c 0
 301 408 278 416 255 416 c 0
 232 416 209 408 185 390 c 0
 144 361 123 322 116 268 c 1
450 237 m 0
 450 228 451 221 451 214 c 0
 451 211 451 207 450 204 c 2
 114 204 l 1
 119 148 139 105 180 74 c 0
 204 56 251 48 274 48 c 0
 298 48 324 58 350 76 c 0
 353 78 357 80 360 80 c 0
 373 80 389 64 389 49 c 0
 389 42 384 36 376 31 c 0
 339 7 305 -8 269 -8 c 0
 237 -8 180 6 148 28 c 0
 88 69 59 127 54 202 c 0
 54 224 54 246 54 268 c 1
 56 268 l 1
 64 342 95 397 154 436 c 0
 187 458 219 469 252 469 c 0
 285 469 317 458 350 435 c 0
 409 396 441 340 449 269 c 1
 449 264 l 2
 451 259 450 249 450 237 c 0
201 566 m 0
 201 594 220 620 252 620 c 0
 283 620 303 595 303 568 c 0
 303 540 281 515 250 515 c 0
 219 515 201 539 201 566 c 0
EndSplineSet
Validated: 1
EndChar

StartChar: Ecaron
Encoding: 282 282 199
Width: 484
VWidth: 946
GlyphClass: 2
Flags: W
HStem: -2 48<117 396.799> 294 49<118 404> 561 48<119 396.799>
VStem: 57 61<-3 -2 46 294 343 561>
LayerCount: 2
Fore
SplineSet
54 607 m 1
 88 607 l 2
 95 607 102 607 109 609 c 2
 396 609 l 1
 398 595 398 578 398 561 c 1
 119 561 l 1
 119 556 l 2
 119 487 118 416 118 347 c 2
 118 343 l 1
 403 343 l 1
 404 336 404 328 404 320 c 0
 404 312 404 302 404 294 c 1
 118 294 l 1
 117 46 l 1
 396 46 l 1
 398 32 398 15 398 -2 c 1
 116 -2 l 1
 116 -3 l 1
 57 -3 l 1
 54 607 l 1
210 645 m 1
 78 838 l 1
 145 836 l 1
 246 685 l 1
 261 686 l 1
 359 836 l 1
 428 839 l 1
 292 645 l 1
 210 645 l 1
EndSplineSet
Validated: 1
EndChar

StartChar: ecaron
Encoding: 283 283 200
Width: 506
VWidth: 907
GlyphClass: 2
Flags: W
HStem: -13 55<188.235 338.87> 199 63<116 394> 411 53<190.708 317.464>
VStem: 56 60<262 331.699>
LayerCount: 2
Fore
SplineSet
116 262 m 1
 394 262 l 1
 386 316 366 355 325 384 c 0
 301 402 278 411 255 411 c 0
 232 411 209 403 185 385 c 0
 144 356 123 316 116 262 c 1
450 232 m 0
 450 223 451 216 451 209 c 0
 451 206 451 202 450 199 c 2
 114 199 l 1
 119 143 139 100 180 69 c 0
 204 51 251 42 274 42 c 0
 298 42 324 53 350 71 c 0
 353 73 357 74 360 74 c 0
 373 74 389 59 389 44 c 0
 389 37 384 31 376 26 c 0
 339 2 305 -13 269 -13 c 0
 237 -13 180 1 148 23 c 0
 88 64 59 121 54 196 c 0
 54 218 54 240 54 262 c 1
 56 262 l 1
 64 336 95 391 154 430 c 0
 187 452 219 464 252 464 c 0
 285 464 317 453 350 430 c 0
 409 391 441 335 449 264 c 1
 449 258 l 2
 451 253 450 244 450 232 c 0
209 510 m 1
 77 751 l 1
 144 748 l 1
 246 559 l 1
 260 563 l 1
 358 750 l 1
 427 752 l 1
 292 510 l 1
 209 510 l 1
EndSplineSet
Validated: 1
EndChar

StartChar: Gcircumflex
Encoding: 284 284 201
Width: 598
VWidth: 938
GlyphClass: 2
Flags: W
HStem: -8 50<242.23 435.868> 202 46<332 480> 553 44<251.771 434.873>
VStem: 54 69<163.483 401.744> 480 62<73.2592 202>
LayerCount: 2
Fore
SplineSet
335 42 m 2
 374 42 441 62 480 82 c 1
 480 202 l 1
 332 202 l 1
 332 248 l 1
 542 248 l 1
 542 76 l 1
 498 17 410 -8 352 -8 c 0
 342 -8 330 -5 322 -3 c 0
 279 -3 235 8 189 34 c 0
 95 87 54 164 54 269 c 0
 54 385 101 504 200 558 c 0
 248 584 292 597 335 597 c 0
 403 597 492 557 536 518 c 1
 528 508 522 496 514 488 c 1
 495 503 469 526 428 538 c 1
 399 552 366 553 338 553 c 0
 301 553 267 542 231 520 c 0
 156 472 123 367 123 273 c 0
 123 188 153 118 223 74 c 0
 257 54 292 42 328 42 c 2
 335 42 l 2
292 828 m 1
 376 828 l 1
 510 634 l 1
 440 635 l 1
 343 785 l 1
 327 787 l 1
 226 636 l 1
 160 635 l 1
 292 828 l 1
EndSplineSet
Validated: 1
EndChar

StartChar: gcircumflex
Encoding: 285 285 202
Width: 559
VWidth: 801
GlyphClass: 2
Flags: W
HStem: -381 48<169.223 327.635> -53 50<171.936 339.785> 27 53<148.631 288.504> 393 49<153.455 291.531> 762 20G<182.778 289.385>
VStem: 12 65<146.531 319.914> 27 58<-261.81 -132.012> 94 54<-30.3467 36.701> 367 62<153.716 320.446> 412 64<-262.237 -118.764>
LayerCount: 2
Fore
SplineSet
195 782 m 1xf940
 277 782 l 1
 412 564 l 1
 343 566 l 1
 246 729 l 1
 230 731 l 1
 128 569 l 1
 63 566 l 1
 195 782 l 1xf940
148 37 m 1
 151 32 153 27 153 22 c 0
 153 14 148 27 148 15 c 2
 148 3 l 2
 148 -7 148 -17 143 -31 c 1
 181 -14 216 -3 253 -3 c 0
 290 -3 328 -14 366 -32 c 0
 441 -68 476 -120 476 -191 c 0
 476 -264 439 -314 364 -350 c 0
 323 -369 283 -381 242 -381 c 0
 205 -381 170 -372 133 -354 c 0
 59 -318 27 -266 27 -197 c 0xfb40
 27 -146 44 -106 77 -73 c 1
 78 -73 l 1
 93 -40 94 -25 94 3 c 0
 94 40 82 49 68 83 c 1
 68 83 70 82 68 84 c 0
 27 122 12 171 12 230 c 0
 12 314 46 372 117 413 c 0
 151 433 185 442 219 442 c 0
 255 442 291 431 327 411 c 0
 329 414 373 502 383 522 c 1
 459 522 l 1
 373 376 l 1
 410 339 429 295 429 236 c 0xfd80
 429 157 393 99 323 60 c 0
 282 38 248 27 210 27 c 0
 190 27 167 30 148 37 c 1
256 -53 m 0
 166 -53 85 -124 85 -199 c 0
 85 -250 119 -286 172 -313 c 0
 198 -326 222 -333 248 -333 c 0
 276 -333 304 -323 333 -309 c 0
 387 -282 412 -244 412 -190 c 0
 412 -136 386 -98 333 -71 c 0
 307 -58 282 -53 256 -53 c 0
151 370 m 0
 100 339 77 296 77 233 c 0
 77 175 97 130 145 102 c 0
 169 88 192 80 216 80 c 0
 242 80 267 88 294 105 c 0
 342 134 367 175 367 236 c 0xfd80
 367 296 344 340 296 369 c 0
 272 383 248 393 224 393 c 0
 200 393 175 385 151 370 c 0
EndSplineSet
Validated: 1
EndChar

StartChar: Gdotaccent
Encoding: 288 288 203
Width: 598
VWidth: 893
GlyphClass: 2
Flags: W
HStem: -8 47<242.23 432.58> 201 45<332 480> 552 43<254.494 433.95> 632 85<290.492 378.669>
VStem: 54 69<161.325 399.79> 284 102<640.763 709.512> 480 62<72.26 201>
LayerCount: 2
Fore
SplineSet
335 39 m 2
 374 39 441 60 480 80 c 1
 480 201 l 1
 332 201 l 1
 332 246 l 1
 542 246 l 1
 542 75 l 1
 498 16 410 -8 352 -8 c 0
 342 -8 330 -9 322 -7 c 0
 279 -7 235 6 189 32 c 0
 95 85 54 163 54 268 c 0
 54 384 101 502 200 556 c 0
 248 582 292 595 335 595 c 0
 403 595 492 554 536 515 c 1
 528 505 522 495 514 487 c 1
 495 502 469 525 428 537 c 1
 399 551 366 552 338 552 c 0
 301 552 267 540 231 518 c 0
 156 470 123 364 123 270 c 0
 123 185 153 115 223 71 c 0
 257 51 292 39 328 39 c 2
 335 39 l 2
284 673 m 0
 284 696 303 717 335 717 c 0
 366 717 386 697 386 675 c 0
 386 652 363 632 332 632 c 0
 301 632 284 651 284 673 c 0
EndSplineSet
Validated: 1
EndChar

StartChar: gdotaccent
Encoding: 289 289 204
Width: 559
VWidth: 744
GlyphClass: 2
Flags: W
HStem: -436 48<198.802 356.943> -107 48<198.219 364.781> -10 56<174.751 293.646> 367 53<176.668 295.614> 493 106<181.51 262.846>
VStem: 54 58<-315.084 -185.541 108.357 295.893> 121 53<-84.3467 1.76418> 172 102<504.264 589.613> 360 54<116.987 298.919> 439 64<-318.854 -173.764>
LayerCount: 2
Fore
SplineSet
174 2 m 1xfec0
 177 -3 177 -10 177 -15 c 0
 177 -23 174 -27 174 -39 c 2
 174 -51 l 2
 174 -61 174 -71 169 -85 c 1
 207 -68 244 -59 281 -59 c 0
 318 -59 355 -69 393 -87 c 0
 468 -123 503 -175 503 -246 c 0
 503 -319 466 -369 391 -405 c 0
 350 -424 310 -436 269 -436 c 0
 232 -436 196 -428 159 -410 c 0
 85 -374 54 -321 54 -252 c 0
 54 -201 71 -161 104 -128 c 1
 106 -128 l 1
 121 -95 121 -79 121 -51 c 0
 121 -14 118 12 106 48 c 1
 106 48 108 47 106 49 c 0
 72 88 57 139 57 199 c 0
 57 286 85 347 146 389 c 0
 175 409 206 420 235 420 c 0
 266 420 295 406 326 386 c 0
 328 389 366 478 374 500 c 1
 439 500 l 1
 366 350 l 1
 398 312 414 266 414 206 c 0
 414 124 383 65 323 24 c 0
 289 1 259 -10 226 -10 c 0
 208 -10 191 -5 174 2 c 1xfec0
282 -107 m 0
 192 -107 112 -178 112 -253 c 0
 112 -304 146 -340 199 -367 c 0
 225 -380 250 -388 276 -388 c 0
 304 -388 331 -379 360 -365 c 0
 414 -338 439 -299 439 -245 c 0
 439 -191 413 -153 360 -126 c 0
 334 -113 308 -107 282 -107 c 0
175 344 m 0
 132 312 113 267 113 202 c 0
 113 143 129 97 170 68 c 0
 190 54 211 46 231 46 c 0
 253 46 275 54 298 71 c 0
 339 102 360 144 360 207 c 0
 360 268 340 312 299 343 c 0
 279 357 258 367 238 367 c 0
 218 367 195 359 175 344 c 0
172 546 m 0xfdc0
 172 574 191 599 223 599 c 0
 254 599 274 574 274 547 c 0
 274 519 251 493 220 493 c 0
 189 493 172 519 172 546 c 0xfdc0
EndSplineSet
Validated: 1
EndChar

StartChar: Idotaccent
Encoding: 304 304 205
Width: 292
VWidth: 962
GlyphClass: 2
Flags: W
HStem: 2 42<57 116 179 235> 687 37<66 118 177 233> 799 106<109.408 190.979>
VStem: 99 102<809.475 895.35> 116 63<44 687>
LayerCount: 2
Fore
SplineSet
236 44 m 1xe8
 235 2 l 1
 184 3 l 1
 54 2 l 1
 57 44 l 1
 116 44 l 1
 118 687 l 1
 66 687 l 1
 66 724 l 1
 233 724 l 1
 233 688 l 1
 177 687 l 1
 179 44 l 1
 236 44 l 1xe8
99 850 m 0xf0
 99 878 118 905 150 905 c 0
 181 905 201 879 201 852 c 0
 201 824 179 799 148 799 c 0
 117 799 99 823 99 850 c 0xf0
EndSplineSet
Validated: 1
EndChar

StartChar: dotlessi
Encoding: 305 305 206
Width: 167
VWidth: 816
GlyphClass: 2
Flags: W
VStem: 54 55<-5 454>
LayerCount: 2
Fore
SplineSet
112 454 m 1
 109 -5 l 1
 54 -5 l 1
 54 456 l 1
 112 454 l 1
EndSplineSet
Validated: 1
EndChar

StartChar: IJ
Encoding: 306 306 207
Width: 677
VWidth: 910
GlyphClass: 2
Flags: W
HStem: -14 57<350.945 486.446> -8 42<56 114 177 235> 677 37<66 117 175 231>
VStem: 114 63<34 677> 559 60<108.621 740.66>
LayerCount: 2
Fore
SplineSet
236 34 m 1x78
 235 -8 l 1
 182 -8 l 1
 54 -8 l 1
 56 34 l 1
 114 34 l 1
 117 677 l 1
 66 677 l 1
 66 714 l 1
 231 714 l 1
 231 678 l 1
 175 677 l 1
 177 34 l 1
 236 34 l 1x78
619 136 m 1
 591 49 534 -6 419 -14 c 0
 376 -14 335 1 287 33 c 0
 251 57 240 77 240 90 c 0
 240 100 247 107 264 107 c 0
 279 107 299 101 321 84 c 0
 357 57 391 43 425 43 c 2
 430 43 l 2xb8
 478 43 531 97 559 134 c 1
 559 742 l 1
 581 742 605 742 622 740 c 1
 619 136 l 1
EndSplineSet
Validated: 1
EndChar

StartChar: ij
Encoding: 307 307 208
Width: 360
VWidth: 819
GlyphClass: 2
Flags: W
HStem: -201 21G<158 202> 556 100<63.0102 141.606 216.015 294.541>
VStem: 54 97<565.735 646.982> 73 55<-7 452> 208 96<565.735 647.352> 226 58<-79.0341 452>
LayerCount: 2
Fore
SplineSet
131 452 m 1xd0
 128 -7 l 1
 73 -7 l 1
 73 454 l 1
 131 452 l 1xd0
54 605 m 0xe0
 54 632 75 656 104 656 c 0
 132 656 151 633 151 607 c 0
 151 580 129 556 100 556 c 0
 72 556 54 579 54 605 c 0xe0
158 -182 m 1
 195 -128 221 -71 226 -7 c 0
 228 46 228 100 228 153 c 0
 228 247 226 343 226 437 c 2
 226 454 l 1
 284 452 l 1
 284 388 l 2xc4
 284 294 284 117 281 -7 c 0
 279 -77 224 -150 180 -201 c 1
 158 -182 l 1
208 605 m 0xc8
 208 632 226 656 255 656 c 0
 283 656 304 633 304 607 c 0
 304 580 282 556 253 556 c 0
 225 556 208 579 208 605 c 0xc8
EndSplineSet
Validated: 1
EndChar

StartChar: Jcircumflex
Encoding: 308 308 209
Width: 606
VWidth: 938
GlyphClass: 2
Flags: W
HStem: -10 46<156.582 310.828>
VStem: 376 59<91.0318 593.998>
LayerCount: 2
Fore
SplineSet
435 110 m 1
 407 40 350 -3 235 -10 c 0
 192 -10 151 1 103 27 c 0
 67 46 54 63 54 73 c 0
 54 81 63 87 80 87 c 0
 95 87 116 82 138 68 c 0
 174 46 208 36 242 36 c 2
 247 36 l 2
 295 36 348 80 376 109 c 1
 376 594 l 1
 387 594 398 594 409 594 c 0
 420 594 431 594 439 593 c 1
 435 110 l 1
332 826 m 1
 417 826 l 1
 551 632 l 1
 481 634 l 1
 383 784 l 1
 368 785 l 1
 267 635 l 1
 201 632 l 1
 332 826 l 1
EndSplineSet
Validated: 1
EndChar

StartChar: jcircumflex
Encoding: 309 309 210
Width: 460
VWidth: 780
GlyphClass: 2
Flags: W
VStem: 202 56<-39.8148 388>
LayerCount: 2
Fore
SplineSet
133 -120 m 1
 170 -77 196 -31 201 20 c 0
 202 41 202 62 202 84 c 0
 202 106 202 127 202 148 c 0
 202 223 201 300 201 375 c 2
 201 389 l 1
 258 388 l 1
 258 335 l 2
 258 305 258 264 258 220 c 0
 258 154 258 79 256 20 c 0
 254 -36 199 -94 155 -135 c 1
 133 -120 l 1
185 620 m 1
 270 620 l 1
 404 426 l 1
 335 427 l 1
 236 578 l 1
 223 579 l 1
 121 428 l 1
 54 427 l 1
 185 620 l 1
EndSplineSet
Validated: 1
EndChar

StartChar: uni0237
Encoding: 567 567 211
Width: 236
VWidth: 752
GlyphClass: 2
Flags: W
HStem: -204 21G<54 100>
VStem: 123 57<-85.4708 449>
LayerCount: 2
Fore
SplineSet
54 -186 m 1
 91 -132 118 -74 123 -10 c 0
 124 16 124 43 124 70 c 0
 124 97 124 124 124 150 c 0
 124 244 123 340 123 434 c 2
 123 450 l 1
 180 449 l 1
 180 384 l 2
 180 330 181 250 181 168 c 0
 181 106 180 43 179 -10 c 0
 177 -80 122 -153 78 -204 c 1
 54 -186 l 1
EndSplineSet
Validated: 1
EndChar

StartChar: gravecomb
Encoding: 768 768 212
Width: 262
VWidth: 1104
GlyphClass: 2
Flags: W
HStem: 777 148
VStem: 54 152
LayerCount: 2
Fore
SplineSet
54 925 m 1
 134 925 l 1
 206 777 l 1
 174 779 l 1
 54 925 l 1
EndSplineSet
Validated: 1
EndChar

StartChar: acutecomb
Encoding: 769 769 213
Width: 262
VWidth: 1104
GlyphClass: 2
Flags: W
HStem: 779 146
VStem: 54 152
LayerCount: 2
Fore
SplineSet
206 925 m 1
 88 779 l 1
 54 777 l 1
 128 925 l 1
 206 925 l 1
EndSplineSet
Validated: 1
EndChar

StartChar: tildecomb
Encoding: 771 771 214
Width: 461
VWidth: 1106
GlyphClass: 2
Flags: W
HStem: 798 44<248.176 352.46> 870 40<116.759 201.448>
VStem: 379 26<879.823 901.123>
LayerCount: 2
Fore
SplineSet
379 904 m 1
 384 904 l 2
 394 904 405 890 405 882 c 0
 405 860 366 798 303 798 c 0
 279 798 260 805 236 824 c 0
 198 855 176 870 156 870 c 0
 134 870 114 851 77 809 c 1
 73 803 l 1
 54 839 l 1
 58 843 l 2
 99 889 127 910 156 910 c 0
 183 910 213 892 252 860 c 0
 267 850 286 842 303 842 c 0
 347 842 376 890 379 904 c 1
EndSplineSet
Validated: 1
EndChar

StartChar: uni0308
Encoding: 776 776 215
Width: 475
VWidth: 1106
GlyphClass: 2
Flags: W
HStem: 803 102<64.0732 151.664 327.023 407.303>
VStem: 54 108<813.387 893.948> 315 104<815.66 898.995>
LayerCount: 2
Fore
SplineSet
106 905 m 0
 134 905 162 885 162 853 c 0
 162 822 135 803 108 803 c 0
 80 803 54 824 54 855 c 0
 54 886 79 905 106 905 c 0
366 908 m 0
 394 908 419 889 419 857 c 0
 419 826 394 806 367 806 c 0
 339 806 315 827 315 858 c 0
 315 889 339 908 366 908 c 0
EndSplineSet
Validated: 1
EndChar

StartChar: uni030A
Encoding: 778 778 216
Width: 259
VWidth: 1109
GlyphClass: 2
Flags: W
HStem: 792 27<98.6758 156.615> 905 28<99.1454 160.319>
VStem: 54 36<824.572 898.709> 170 34<828.862 897.618>
LayerCount: 2
Fore
SplineSet
54 862 m 0
 54 900 86 933 129 933 c 0
 171 933 204 900 204 864 c 0
 204 826 169 792 126 792 c 0
 84 792 54 825 54 862 c 0
128 819 m 0
 151 819 170 842 170 864 c 0
 170 886 155 905 129 905 c 0
 103 905 90 885 90 862 c 0
 90 838 102 819 128 819 c 0
EndSplineSet
Validated: 1
EndChar

StartChar: uni030B
Encoding: 779 779 217
Width: 243
VWidth: 1110
GlyphClass: 2
Flags: W
HStem: 798 137
VStem: 54 133
LayerCount: 2
Fore
SplineSet
134 935 m 1
 77 798 l 1
 54 798 l 1
 106 935 l 1
 134 935 l 1
187 935 m 1
 131 798 l 1
 107 798 l 1
 159 935 l 1
 187 935 l 1
EndSplineSet
Validated: 1
EndChar

StartChar: tonos
Encoding: 900 900 218
Width: 213
VWidth: 1096
GlyphClass: 2
Flags: W
HStem: 741 179
VStem: 54 102
LayerCount: 2
Fore
SplineSet
156 901 m 1
 92 741 l 1
 54 751 l 1
 122 920 l 1
 156 901 l 1
EndSplineSet
Validated: 1
EndChar

StartChar: dieresistonos
Encoding: 901 901 219
Width: 407
VWidth: 1163
GlyphClass: 2
Flags: W
HStem: 859 103<65.2639 151.98 259.76 337.788>
VStem: 54 108<870.154 951.186> 246 106<874.387 955.592>
LayerCount: 2
Fore
SplineSet
279 1119 m 1
 221 984 l 1
 185 994 l 1
 245 1137 l 1
 279 1119 l 1
107 962 m 0
 135 962 162 942 162 910 c 0
 162 879 135 859 108 859 c 0
 80 859 54 882 54 913 c 0
 54 944 80 962 107 962 c 0
297 966 m 0
 325 966 352 947 352 915 c 0
 352 884 325 864 298 864 c 0
 270 864 246 885 246 916 c 0
 246 947 270 966 297 966 c 0
EndSplineSet
Validated: 1
EndChar

StartChar: Alphatonos
Encoding: 902 902 220
Width: 575
VWidth: 918
GlyphClass: 2
Flags: W
HStem: 265 67<196 376>
LayerCount: 2
Fore
SplineSet
286 685 m 1
 196 332 l 1
 376 332 l 1
 286 685 l 1
465 0 m 1
 391 267 l 1
 177 265 l 1
 108 -2 l 1
 54 -2 l 1
 257 753 l 1
 318 753 l 1
 519 0 l 1
 465 0 l 1
211 756 m 1
 145 595 l 1
 108 604 l 1
 175 773 l 1
 211 756 l 1
EndSplineSet
Validated: 1
EndChar

StartChar: anoteleia
Encoding: 903 903 221
Width: 213
VWidth: 907
GlyphClass: 2
Flags: W
HStem: 306 105<64.078 145.676>
VStem: 54 102<316.475 401.297>
LayerCount: 2
Fore
SplineSet
54 357 m 0
 54 385 74 411 106 411 c 0
 137 411 156 386 156 359 c 0
 156 331 134 306 103 306 c 0
 72 306 54 330 54 357 c 0
EndSplineSet
Validated: 1
EndChar

StartChar: Epsilontonos
Encoding: 904 904 222
Width: 608
VWidth: 923
GlyphClass: 2
Flags: W
HStem: 7 58<256 551.99> 354 61<257 542> 686 60<258 546.987>
VStem: 195 61<5 7 65 354 415 686>
LayerCount: 2
Fore
SplineSet
156 773 m 1
 92 612 l 1
 54 622 l 1
 122 789 l 1
 156 773 l 1
194 743 m 1
 209 745 230 743 248 746 c 2
 546 746 l 1
 547 737 547 727 547 717 c 0
 547 707 547 696 547 686 c 1
 258 686 l 1
 258 681 l 2
 258 594 257 507 257 420 c 2
 257 415 l 1
 542 415 l 1
 543 409 543 403 543 396 c 0
 543 382 542 367 542 354 c 1
 256 354 l 1
 256 65 l 1
 551 65 l 1
 552 56 552 47 552 37 c 0
 552 27 552 17 552 7 c 1
 255 7 l 1
 255 5 l 1
 195 5 l 1
 194 743 l 1
EndSplineSet
Validated: 1
EndChar

StartChar: Etatonos
Encoding: 905 905 223
Width: 717
VWidth: 913
GlyphClass: 2
Flags: W
HStem: 332 73<256 597>
VStem: 194 62<507.474 726> 202 53<-3 216.152> 597 61<189.429 333 405 727> 604 57<-2 333>
LayerCount: 2
Fore
SplineSet
156 736 m 1x80
 92 575 l 1
 54 585 l 1
 122 752 l 1
 156 736 l 1x80
202 -3 m 1xb0
 200 250 196 474 194 726 c 1
 252 726 l 1
 252 719 l 2
 252 635 256 503 256 420 c 2
 256 405 l 1
 597 405 l 1
 593 728 l 1
 653 727 l 1
 653 722 l 2
 653 637 658 520 658 436 c 2
 658 381 l 2xd0
 658 259 661 60 661 0 c 2
 661 -2 l 1
 604 -2 l 1x88
 597 333 l 1
 584 332 568 332 550 332 c 0
 532 332 514 332 496 332 c 2
 255 332 l 1
 255 314 l 2
 255 205 261 118 261 13 c 2
 261 -3 l 1
 202 -3 l 1xb0
EndSplineSet
Validated: 1
EndChar

StartChar: Iotatonos
Encoding: 906 906 224
Width: 394
VWidth: 918
GlyphClass: 2
Flags: W
HStem: -2 44<156 216 279 337> 646 37<168 220 277 335>
VStem: 216 63<42 646>
LayerCount: 2
Fore
SplineSet
156 751 m 1
 92 590 l 1
 54 600 l 1
 122 768 l 1
 156 751 l 1
338 42 m 1
 337 -2 l 1
 284 0 l 1
 155 -2 l 1
 156 42 l 1
 216 42 l 1
 220 646 l 1
 168 646 l 1
 168 683 l 1
 335 683 l 1
 335 648 l 1
 277 646 l 1
 279 42 l 1
 338 42 l 1
EndSplineSet
Validated: 1
EndChar

StartChar: Omicrontonos
Encoding: 908 908 225
Width: 739
VWidth: 915
GlyphClass: 2
Flags: W
HStem: -2 70<309.604 468.976> 691 65<321.498 473.981>
VStem: 104 70<233.568 514.825> 622 62<243.037 516.153>
LayerCount: 2
Fore
SplineSet
170 741 m 1
 92 597 l 1
 54 607 l 1
 134 757 l 1
 170 741 l 1
104 366 m 0
 104 522 151 628 253 702 c 0
 301 738 348 756 394 756 c 0
 440 756 486 738 534 701 c 0
 633 630 684 525 684 379 c 0
 684 231 636 133 536 60 c 0
 482 21 430 -2 381 -2 c 0
 337 -2 291 17 243 53 c 0
 146 124 104 226 104 366 c 0
389 68 m 0
 430 68 471 85 510 117 c 0
 584 177 622 261 622 380 c 0
 622 497 584 585 510 645 c 0
 473 674 437 691 399 691 c 0
 361 691 323 675 286 646 c 0
 210 583 174 495 174 371 c 0
 174 257 208 169 279 110 c 0
 316 81 352 68 389 68 c 0
EndSplineSet
Validated: 1
EndChar

StartChar: Upsilontonos
Encoding: 910 910 226
Width: 677
VWidth: 916
GlyphClass: 2
Flags: W
VStem: 357 62<2 325>
LayerCount: 2
Fore
SplineSet
150 743 m 1
 92 605 l 1
 54 615 l 1
 114 760 l 1
 150 743 l 1
418 326 m 1
 419 2 l 1
 357 2 l 1
 354 325 l 1
 159 687 l 1
 226 687 l 1
 384 408 l 1
 548 690 l 1
 622 691 l 1
 418 326 l 1
EndSplineSet
Validated: 1
EndChar

StartChar: Omegatonos
Encoding: 911 911 227
Width: 776
VWidth: 916
GlyphClass: 2
Flags: W
HStem: 3 153<321.072 366 473 524.588> 3 68<155.125 289 539 720> 677 54<333.409 507.312>
VStem: 121 69<301.225 511.554> 289 77<76 124.166> 473 66<71 124.906> 650 61<302.089 533.111>
LayerCount: 2
Fore
SplineSet
185 734 m 1x3e
 92 588 l 1
 54 598 l 1
 151 752 l 1
 185 734 l 1x3e
539 71 m 1x7e
 720 75 l 1
 720 3 l 1x7e
 473 3 l 5
 469 156 l 5
 617 193 645 320 650 415 c 1
 650 432 l 2
 650 521 607 590 536 638 c 0
 499 664 461 677 422 677 c 0
 383 677 343 665 306 639 c 0
 228 586 195 498 190 394 c 1
 190 385 l 2
 190 288 278 189 366 153 c 1
 366 3 l 1xbe
 136 5 l 1
 136 79 l 1
 289 76 l 1
 289 99 l 2
 289 102 289 107 287 125 c 1
 188 185 121 282 121 401 c 0
 121 532 169 623 274 686 c 0
 323 717 369 731 417 731 c 0
 465 731 512 716 561 685 c 0
 661 625 711 537 711 413 c 0
 711 288 641 153 539 125 c 0
 536 123 536 120 536 115 c 0
 536 105 539 89 539 75 c 0
 539 73 539 73 539 71 c 1x7e
EndSplineSet
Validated: 1
EndChar

StartChar: Alpha
Encoding: 913 913 228
Width: 575
VWidth: 912
GlyphClass: 2
Flags: W
HStem: 258 67<196 376>
LayerCount: 2
Fore
SplineSet
286 680 m 1
 196 325 l 1
 376 325 l 1
 286 680 l 1
465 -5 m 1
 391 260 l 1
 177 258 l 1
 108 -8 l 1
 54 -8 l 1
 257 748 l 1
 318 748 l 1
 519 -5 l 1
 465 -5 l 1
EndSplineSet
Validated: 1
EndChar

StartChar: Beta
Encoding: 914 914 229
Width: 532
VWidth: 908
GlyphClass: 2
Flags: W
HStem: -19 56<108.717 367.519> 335 59<106.625 337.751> 688 57<101.561 334.524>
VStem: 54 52<191.5 333.769 401.106 676.714> 400 59<444.117 621.212> 423 53<95.8157 258.019>
LayerCount: 2
Fore
SplineSet
228 -19 m 0xf4
 138 -19 63 -4 60 -2 c 2
 57 -2 l 1
 54 381 l 1
 56 381 l 1
 54 722 l 1
 62 724 133 745 223 745 c 0
 277 745 334 735 373 706 c 0
 427 665 459 617 459 553 c 0xf8
 459 545 459 533 457 525 c 0
 445 438 435 414 398 382 c 0
 385 372 364 369 349 364 c 1
 423 335 476 263 476 184 c 0
 476 90 436 30 399 12 c 0
 351 -12 287 -19 228 -19 c 0xf4
399 533 m 0
 401 540 400 546 400 553 c 0
 400 599 376 635 335 666 c 0
 309 684 275 688 238 688 c 0
 179 688 118 675 100 672 c 1
 102 405 l 1
 117 403 162 394 215 394 c 0
 266 394 322 401 359 428 c 0
 405 461 391 465 399 533 c 0
358 304 m 1
 319 328 251 335 195 335 c 0
 154 335 119 334 106 332 c 1
 108 51 l 1
 126 48 187 37 250 37 c 0
 355 37 407 55 422 165 c 0
 424 173 423 179 423 186 c 0xf4
 423 234 400 271 358 304 c 1
EndSplineSet
Validated: 1
EndChar

StartChar: Gamma
Encoding: 915 915 230
Width: 580
VWidth: 901
GlyphClass: 2
Flags: W
HStem: 639 67<122 523.474>
VStem: 54 65<-19 640>
LayerCount: 2
Fore
SplineSet
524 704 m 2
 524 682 524 656 522 639 c 1
 388 639 256 640 122 640 c 1
 119 -18 l 1
 119 -19 l 1
 54 -19 l 1
 57 706 l 1
 90 706 122 705 155 705 c 0
 244 705 334 707 423 707 c 0
 456 707 488 706 521 706 c 2
 524 706 l 1
 524 704 l 2
EndSplineSet
Validated: 1
EndChar

StartChar: Delta
Encoding: 916 916 231
Width: 757
VWidth: 911
GlyphClass: 2
Flags: W
HStem: -14 78<156 598>
LayerCount: 2
Fore
SplineSet
598 66 m 1
 369 609 l 1
 156 64 l 1
 598 66 l 1
363 752 m 1
 700 -12 l 1
 129 -14 l 1
 54 -14 l 1
 363 752 l 1
EndSplineSet
Validated: 1
EndChar

StartChar: Epsilon
Encoding: 917 917 232
Width: 468
VWidth: 910
GlyphClass: 2
Flags: W
HStem: 0 59<116 410.66> 345 60<117 401.66> 677 59<118 406.66>
VStem: 54 63<59 345 405 677>
LayerCount: 2
Fore
SplineSet
410 59 m 5
 412 41 412 20 412 0 c 5
 293 0 175 0 56 0 c 5
 54 734 l 1
 406 736 l 1
 408 718 408 697 408 677 c 1
 118 677 l 1
 118 671 l 2
 118 584 117 498 117 411 c 2
 117 405 l 1
 401 405 l 1
 403 387 403 365 403 345 c 1
 117 345 l 1
 116 59 l 5
 410 59 l 5
EndSplineSet
Validated: 1
EndChar

StartChar: Zeta
Encoding: 918 918 233
Width: 606
VWidth: 913
GlyphClass: 2
Flags: W
HStem: -2 67<159 549> 686 62<58 425>
LayerCount: 2
Fore
SplineSet
54 -2 m 1
 425 686 l 1
 404 686 l 2
 292 688 174 689 58 691 c 1
 58 751 l 1
 536 748 l 1
 281 267 l 1
 159 65 l 1
 180 65 l 6
 551 63 l 5
 549 -2 l 1
 384 -2 219 -2 54 -2 c 1
EndSplineSet
Validated: 1
EndChar

StartChar: Eta
Encoding: 919 919 234
Width: 573
VWidth: 916
GlyphClass: 2
Flags: W
HStem: 364 72<117 456>
VStem: 54 63<-3 365 436 757> 456 61<0 366 439 758>
LayerCount: 2
Fore
SplineSet
56 -3 m 1
 54 758 l 1
 113 757 l 1
 113 752 l 2
 113 668 117 534 117 451 c 2
 117 436 l 1
 456 439 l 1
 455 762 l 1
 514 758 l 1
 514 753 l 2
 514 668 517 553 517 469 c 2
 517 440 l 2
 515 321 515 68 515 3 c 2
 515 0 l 1
 457 0 l 1
 456 366 l 1
 424 364 376 364 337 364 c 0
 311 364 288 364 276 364 c 2
 116 365 l 5
 114 -3 l 5
 56 -3 l 1
EndSplineSet
Validated: 1
EndChar

StartChar: Theta
Encoding: 920 920 235
Width: 689
VWidth: 910
GlyphClass: 2
Flags: W
HStem: -13 67<264.728 417.517> 288 152<185 230 450 496> 680 63<272.64 421.819>
VStem: 54 70<221.51 502.825> 185 45<288 338 394 440> 450 46<288 338 394 440> 572 61<230.97 504.02>
LayerCount: 2
Fore
SplineSet
185 440 m 1
 230 440 l 1
 230 394 l 1
 450 394 l 1
 450 440 l 1
 496 440 l 1
 496 288 l 1
 450 288 l 1
 450 338 l 1
 230 338 l 1
 230 288 l 1
 185 288 l 1
 185 338 l 1
 185 394 l 1
 185 440 l 1
340 54 m 0
 381 54 422 73 461 105 c 0
 535 165 572 250 572 369 c 0
 572 486 535 572 461 632 c 0
 424 661 387 680 349 680 c 0
 311 680 273 663 236 634 c 0
 160 571 124 483 124 359 c 0
 124 245 159 158 230 99 c 0
 267 70 303 54 340 54 c 0
54 354 m 0
 54 510 102 616 204 690 c 0
 252 726 298 743 344 743 c 0
 390 743 437 727 485 690 c 0
 584 619 633 512 633 366 c 0
 633 218 586 121 486 48 c 0
 432 9 381 -13 332 -13 c 0
 288 -13 243 3 195 39 c 0
 98 110 54 214 54 354 c 0
EndSplineSet
Validated: 1
EndChar

StartChar: Iota
Encoding: 921 921 236
Width: 292
VWidth: 902
GlyphClass: 2
Flags: W
HStem: -17 44<57 116 179 235> 670 36<66 118 177 233>
VStem: 116 63<27 670>
LayerCount: 2
Fore
SplineSet
236 27 m 1
 235 -17 l 1
 184 -15 l 1
 54 -17 l 1
 57 27 l 1
 116 27 l 1
 118 670 l 1
 66 670 l 1
 66 706 l 1
 233 706 l 1
 233 671 l 1
 177 670 l 1
 179 27 l 1
 236 27 l 1
EndSplineSet
Validated: 1
EndChar

StartChar: Kappa
Encoding: 922 922 237
Width: 493
VWidth: 913
GlyphClass: 2
Flags: W
VStem: 54 59<-2 301 450 746.995>
LayerCount: 2
Fore
SplineSet
56 747 m 1
 66 747 76 747 86 747 c 0
 96 747 105 747 113 746 c 1
 111 450 l 1
 368 747 l 1
 432 748 l 1
 140 377 l 1
 437 -3 l 1
 424 -3 l 2
 404 -1 380 0 366 0 c 1
 113 301 l 1
 113 -2 l 1
 54 -2 l 1
 56 747 l 1
EndSplineSet
Validated: 1
EndChar

StartChar: Lambda
Encoding: 923 923 238
Width: 616
VWidth: 912
GlyphClass: 2
Flags: W
VStem: 54 65<-7 14.2249>
LayerCount: 2
Fore
SplineSet
119 -7 m 1
 54 -7 l 1
 303 748 l 1
 561 -5 l 1
 496 -5 l 1
 303 585 l 1
 119 -7 l 1
EndSplineSet
Validated: 1
EndChar

StartChar: Mu
Encoding: 924 924 239
Width: 731
VWidth: 906
GlyphClass: 2
Flags: W
VStem: 54 64<487.812 653> 62 59<-12 201.324> 607 68<-10 673>
LayerCount: 2
Fore
SplineSet
675 437 m 2xa0
 673 327 672 51 670 -10 c 1
 607 -10 l 1
 607 33 l 2
 607 145 609 78 609 233 c 0
 609 307 609 431 607 648 c 2
 607 673 l 1
 372 171 l 1
 116 653 l 1
 116 629 l 2
 118 581 118 523 118 479 c 0
 118 465 117 452 117 442 c 0
 117 432 118 423 118 411 c 0xa0
 118 301 121 123 121 13 c 2
 121 -12 l 1
 62 -13 l 1x60
 60 223 56 479 54 711 c 1
 71 713 90 714 113 714 c 0
 126 714 140 713 148 711 c 1
 367 283 l 1
 562 716 l 1
 673 721 l 1
 673 714 l 2
 673 639 675 527 675 452 c 2
 675 437 l 2xa0
EndSplineSet
Validated: 1
EndChar

StartChar: Nu
Encoding: 925 925 240
Width: 573
VWidth: 916
GlyphClass: 2
Flags: W
VStem: 54 57<-3 625> 456 59<139.5 758>
LayerCount: 2
Fore
SplineSet
56 -3 m 5
 54 758 l 5
 116 757 l 1
 117 755 l 1
 165 672 248 510 287 440 c 0
 330 362 400 235 454 143 c 2
 468 120 l 1
 465 146 l 2
 460 211 459 291 456 365 c 2
 455 762 l 1
 514 758 l 1
 514 753 l 2
 514 668 517 531 517 447 c 0
 517 444 516 445 516 440 c 0
 515 382 515 287 515 200 c 0
 515 113 515 33 515 5 c 2
 515 0 l 1
 473 0 l 1
 471 3 l 1
 362 184 230 424 123 605 c 1
 112 625 l 1
 112 604 l 2
 111 572 111 539 111 508 c 0
 111 477 111 449 111 426 c 2
 111 410 l 2
 111 294 114 124 114 8 c 2
 114 -3 l 1
 56 -3 l 5
EndSplineSet
Validated: 1
EndChar

StartChar: Xi
Encoding: 926 926 241
Width: 532
VWidth: 907
GlyphClass: 2
Flags: W
HStem: 36 83<54 476> 332 83<139 376> 600 83<54 476>
LayerCount: 2
Fore
SplineSet
139 332 m 1
 139 415 l 1
 376 415 l 1
 376 332 l 1
 139 332 l 1
54 600 m 1
 54 683 l 1
 476 683 l 1
 476 600 l 1
 54 600 l 1
54 36 m 1
 54 119 l 1
 476 119 l 1
 476 36 l 1
 54 36 l 1
EndSplineSet
Validated: 1
EndChar

StartChar: Omicron
Encoding: 927 927 242
Width: 689
VWidth: 910
GlyphClass: 2
Flags: W
HStem: -13 67<264.728 417.517> 680 63<272.64 421.819>
VStem: 54 70<221.51 502.825> 572 61<230.97 504.02>
LayerCount: 2
Fore
SplineSet
54 354 m 0
 54 510 102 616 204 690 c 0
 252 726 298 743 344 743 c 0
 390 743 437 727 485 690 c 0
 584 619 633 512 633 366 c 0
 633 218 586 121 486 48 c 0
 432 9 381 -13 332 -13 c 0
 288 -13 243 3 195 39 c 0
 98 110 54 214 54 354 c 0
340 54 m 0
 381 54 422 73 461 105 c 0
 535 165 572 250 572 369 c 0
 572 486 535 572 461 632 c 0
 424 661 387 680 349 680 c 0
 311 680 273 663 236 634 c 0
 160 571 124 483 124 359 c 0
 124 245 159 158 230 99 c 0
 267 70 303 54 340 54 c 0
EndSplineSet
Validated: 1
EndChar

StartChar: Pi
Encoding: 928 928 243
Width: 794
VWidth: 898
GlyphClass: 2
Flags: W
HStem: 645 54<54.8522 199 257 553 612 736.573>
VStem: 204 58<-26.8003 645> 558 59<-30.9088 646>
LayerCount: 2
Fore
SplineSet
199 645 m 1
 83 644 l 2
 66 644 54 657 54 671 c 0
 54 685 66 697 83 697 c 2
 215 699 l 2
 220 701 223 701 226 701 c 0
 229 701 237 701 240 699 c 2
 709 701 l 2
 724 701 738 689 738 675 c 0
 738 661 726 648 709 648 c 2
 612 646 l 1
 617 -5 l 2
 617 -19 605 -32 588 -32 c 0
 571 -32 558 -19 558 -5 c 2
 553 650 l 1
 257 649 l 1
 262 -2 l 2
 262 -16 252 -28 235 -28 c 0
 218 -28 204 -16 204 -2 c 2
 199 645 l 1
EndSplineSet
Validated: 1
EndChar

StartChar: Rho
Encoding: 929 929 244
Width: 506
VWidth: 913
GlyphClass: 2
Flags: W
HStem: 282 63<188.455 313.166> 706 49<193.852 320.901>
VStem: 58 58<-7 360 420.72 623.718> 399 51<432.695 622.468>
LayerCount: 2
Fore
SplineSet
326 375 m 0
 374 409 399 458 399 527 c 0
 399 595 375 646 327 680 c 0
 304 697 281 706 257 706 c 0
 233 706 210 697 187 680 c 0
 136 644 116 593 116 522 c 0
 116 456 134 405 182 371 c 0
 205 354 228 345 251 345 c 0
 277 345 300 357 326 375 c 0
255 755 m 0
 287 755 317 744 350 721 c 0
 416 677 450 610 450 520 c 0
 450 430 418 364 350 320 c 0
 314 296 280 282 246 282 c 0
 215 282 183 294 151 316 c 0
 141 324 139 329 129 339 c 2
 116 360 l 1
 113 -8 l 1
 54 -7 l 1
 58 609 l 1
 63 622 88 689 119 709 c 1
 152 753 222 755 255 755 c 0
EndSplineSet
Validated: 1
EndChar

StartChar: Sigma
Encoding: 931 931 245
Width: 693
VWidth: 893
GlyphClass: 2
Flags: W
HStem: -24 51<138 636.29> 612 51<140 593> 619 51<140 620.516>
LayerCount: 2
Fore
SplineSet
140 612 m 1xc0
 389 362 l 2
 394 357 396 351 396 344 c 0
 396 337 392 331 389 326 c 2
 138 27 l 1
 613 32 l 2
 627 32 638 21 638 7 c 0
 638 -7 627 -20 613 -20 c 2
 82 -24 l 2
 67 -24 56 -11 56 2 c 0
 56 7 59 13 62 18 c 2
 335 342 l 1
 61 620 l 2
 56 625 54 631 54 636 c 0
 54 649 61 663 78 663 c 2xc0
 593 670 l 2
 607 670 621 658 621 644 c 0
 621 630 609 619 595 619 c 2xa0
 140 612 l 1xc0
EndSplineSet
Validated: 1
EndChar

StartChar: Tau
Encoding: 932 932 246
Width: 656
VWidth: 901
GlyphClass: 2
Flags: W
HStem: 639 62<54 297 359 598.731>
VStem: 297 62<-20 639>
LayerCount: 2
Fore
SplineSet
54 702 m 1
 104 701 155 701 205 701 c 2
 600 701 l 1
 600 681 600 654 598 639 c 1
 359 639 l 1
 359 638 l 1
 357 -20 l 1
 294 -20 l 1
 296 201 295 419 297 638 c 2
 297 639 l 1
 54 639 l 1
 54 702 l 1
EndSplineSet
Validated: 1
EndChar

StartChar: Upsilon
Encoding: 933 933 247
Width: 573
VWidth: 913
GlyphClass: 2
Flags: W
VStem: 252 63<-3 323>
LayerCount: 2
Fore
SplineSet
313 324 m 1
 315 -3 l 1
 252 -3 l 1
 251 323 l 1
 54 746 l 1
 122 746 l 1
 281 405 l 1
 444 748 l 1
 517 750 l 1
 313 324 l 1
EndSplineSet
Validated: 1
EndChar

StartChar: Phi
Encoding: 934 934 248
Width: 689
VWidth: 920
GlyphClass: 2
Flags: W
HStem: 8 52<219 456> 134 50<241.573 312 372 438.964> 622 46<252.367 315 372 441.863> 722 53<228 316 372 465>
VStem: 54 70<298.293 497.855> 312 60<63 135.394 184 620 665.093 722> 572 61<304.659 498.398>
LayerCount: 2
Fore
SplineSet
219 8 m 1
 219 60 l 1
 456 60 l 1
 456 8 l 1
 219 8 l 1
54 393 m 0
 54 503 102 577 204 630 c 0
 243 650 280 663 316 666 c 1
 316 722 l 1
 228 722 l 1
 228 775 l 1
 465 775 l 1
 465 722 l 1
 372 722 l 1
 372 668 l 1
 409 665 446 650 485 630 c 0
 584 579 633 506 633 401 c 0
 633 296 586 226 486 175 c 0
 447 155 409 141 372 134 c 1
 372 61 l 1
 312 63 l 1
 312 133 l 1
 273 136 236 146 195 168 c 0
 98 219 54 293 54 393 c 0
372 184 m 1
 403 189 432 200 461 217 c 0
 535 259 572 317 572 401 c 0
 572 484 535 547 461 590 c 0
 432 607 403 619 372 622 c 1
 372 184 l 1
315 620 m 1
 288 615 262 607 236 592 c 0
 160 549 124 482 124 395 c 0
 124 315 159 253 230 212 c 0
 258 195 285 185 313 182 c 1
 315 620 l 1
EndSplineSet
Validated: 1
EndChar

StartChar: Chi
Encoding: 935 935 249
Width: 578
VWidth: 905
GlyphClass: 2
Flags: W
LayerCount: 2
Fore
SplineSet
522 -13 m 1
 455 -13 l 1
 292 314 l 1
 133 -13 l 1
 58 -13 l 1
 257 355 l 1
 54 716 l 1
 122 716 l 1
 287 427 l 1
 445 717 l 1
 519 719 l 1
 326 350 l 1
 522 -13 l 1
EndSplineSet
Validated: 1
EndChar

StartChar: Psi
Encoding: 936 936 250
Width: 609
VWidth: 915
GlyphClass: 2
Flags: W
HStem: -7 66<174 266 332 423> 194 80<332 400.291> 201 77<210.264 267> 697 63<180 270 332 423>
VStem: 54 67<541 577.997> 60 68<569.007 617> 270 62<59 198.172 278 697 760 762> 483 70<386.368 615> 548 6<571 579>
LayerCount: 2
Fore
SplineSet
267 201 m 1xb3
 229 208 184 220 162 240 c 0
 79 308 64 408 56 541 c 1
 54 563 l 1
 54 580 l 2
 54 597 53 607 53 612 c 0
 53 614 53 615 54 615 c 0xbb
 56 615 58 569 60 569 c 0
 61 569 61 570 61 572 c 0
 61 577 60 587 60 604 c 2
 60 622 l 1
 128 617 l 1
 128 607 l 2xb6
 128 578 128 569 126 569 c 0
 124 569 124 578 122 578 c 0
 120 578 121 574 121 561 c 2
 121 554 l 2
 124 447 131 365 194 311 c 0
 214 292 247 285 269 278 c 1xba
 270 697 l 1
 180 697 l 1
 180 760 l 1
 270 760 l 1
 270 763 l 1
 332 762 l 1
 332 760 l 1
 423 760 l 1
 423 697 l 1
 332 697 l 1
 332 274 l 1
 360 277 391 284 414 306 c 0
 455 345 469 407 483 466 c 1
 483 468 l 2
 485 476 485 479 485 479 c 1
 485 479 482 464 480 464 c 0
 479 464 479 465 479 468 c 0
 479 473 480 483 480 502 c 0
 480 555 483 535 483 549 c 0xdb
 483 552 482 559 480 571 c 2
 478 615 l 1
 548 615 l 1xd280
 550 571 549 559 551 559 c 0
 553 559 551 580 553 580 c 0xd3
 554 580 554 579 554 575 c 0xd280
 554 568 553 551 553 518 c 0
 553 484 548 449 546 415 c 1
 517 285 457 222 332 194 c 1xd3
 332 59 l 1
 423 59 l 1
 423 -7 l 1
 174 -7 l 1
 174 59 l 1
 266 59 l 1
 267 201 l 1xb3
EndSplineSet
Validated: 1
EndChar

StartChar: uni03A9
Encoding: 937 937 251
Width: 708
VWidth: 907
GlyphClass: 2
Flags: W
HStem: -3 56<56 223 468 653> 665 54<267.073 440.575>
VStem: 54 57<294.763 485.8> 223 73<53 111.156> 403 65<53 104.906> 583 61<282.972 521.111>
LayerCount: 2
Fore
SplineSet
468 53 m 1
 653 54 l 1
 653 -3 l 1
 405 -3 l 1
 403 20 403 33 403 42 c 0
 403 48 403 53 403 60 c 0
 403 74 403 93 403 144 c 1
 551 181 578 306 583 401 c 1
 583 420 l 2
 583 509 540 578 469 626 c 0
 432 652 393 665 354 665 c 0
 315 665 277 653 240 627 c 0
 162 574 116 485 111 381 c 1
 111 374 l 2
 111 277 210 177 298 141 c 1
 296 119 296 97 296 77 c 0
 296 64 296 52 296 41 c 0
 296 28 296 16 296 8 c 0
 296 0 295 -3 297 -3 c 1
 56 -5 l 1
 56 49 l 1
 223 53 l 1
 223 60 221 62 221 65 c 0
 221 72 223 70 223 73 c 0
 223 76 222 94 220 112 c 1
 121 172 54 271 54 390 c 0
 54 521 103 610 208 673 c 0
 257 704 302 719 350 719 c 0
 398 719 446 704 495 673 c 0
 595 613 644 525 644 401 c 0
 644 276 572 133 470 105 c 0
 467 103 468 101 468 94 c 2
 468 53 l 1
EndSplineSet
Validated: 1
EndChar

StartChar: alpha
Encoding: 945 945 252
Width: 674
VWidth: 810
GlyphClass: 2
Flags: W
HStem: -26 53<160.458 336.479> 364 47<210.524 383.57>
VStem: 54 55<84.8392 271.081> 553 54<303.871 444>
LayerCount: 2
Fore
SplineSet
500 224 m 0
 498 226 500 224 500 226 c 0
 452 299 390 364 301 364 c 0
 267 364 228 353 185 330 c 0
 137 304 109 243 109 177 c 0
 109 149 114 121 126 94 c 0
 148 45 182 27 241 27 c 0
 360 27 446 115 500 224 c 0
618 8 m 1
 600 3 584 -7 566 -10 c 0
 563 -8 561 -10 559 -7 c 0
 539 49 545 110 530 161 c 1
 470 62 375 -26 242 -26 c 0
 225 -26 208 -25 190 -22 c 0
 130 -12 96 31 73 79 c 0
 60 108 54 143 54 176 c 0
 54 252 89 332 164 374 c 0
 215 402 261 411 302 411 c 0
 401 411 474 346 525 282 c 1
 544 341 553 395 553 434 c 2
 553 444 l 1
 564 444 l 1
 595 445 l 1
 607 445 l 1
 607 434 l 2
 607 376 593 302 562 228 c 0
 562 226 561 228 561 226 c 0
 563 224 561 226 561 224 c 0
 597 154 587 77 609 14 c 1
 618 8 l 1
EndSplineSet
Validated: 1
EndChar

StartChar: beta
Encoding: 946 946 253
Width: 517
VWidth: 816
GlyphClass: 2
Flags: W
HStem: -22 50<167.472 318.172> 408 48<108 298.094> 681 50<122.413 293.795>
VStem: 54 50<-268 -55.6414 463.501 661.551> 62 50<-262.456 354.345> 344 50<496.644 635.57> 412 49<136.396 321.339>
LayerCount: 2
Fore
SplineSet
104 646 m 1xf6
 104 632 104 620 104 607 c 0
 104 561 103 529 103 490 c 0
 103 480 103 469 103 456 c 1
 187 456 l 2
 296 459 344 484 344 568 c 0
 344 607 332 632 308 650 c 0
 282 670 245 681 208 681 c 0
 167 681 127 668 104 646 c 1xf6
146 61 m 1
 179 41 214 28 243 28 c 2
 245 28 l 2
 339 28 412 128 412 233 c 0
 412 323 360 408 194 408 c 2
 108 408 l 1
 110 291 112 192 112 90 c 0
 112 -17 111 -130 108 -270 c 1
 56 -270 l 1
 58 -268 l 1
 61 -128 62 -13 62 97 c 0xee
 62 284 57 466 54 660 c 2
 54 665 l 1
 83 709 146 731 206 731 c 0
 306 731 394 677 394 573 c 0
 394 502 366 463 313 440 c 1
 418 403 461 318 461 231 c 0
 461 205 457 181 450 155 c 0
 424 65 351 -22 246 -22 c 0
 195 -22 151 -4 119 20 c 1
 117 20 l 1
 118 23 l 1
 122 26 l 1
 140 53 l 1
 144 60 l 1
 145 61 l 1
 146 61 l 1
EndSplineSet
Validated: 1
EndChar

StartChar: gamma
Encoding: 947 947 254
Width: 517
VWidth: 851
GlyphClass: 2
Flags: W
HStem: -178 54<301.236 356.093>
VStem: 216 65<-119.145 13.8364> 368 55<-115.413 36.8279> 408 53<215.628 451.345>
LayerCount: 2
Fore
SplineSet
54 211 m 1xe0
 62 226 70 242 78 257 c 1
 88 252 l 2
 162 215 264 177 335 119 c 1
 376 173 408 242 408 337 c 0
 408 426 375 518 281 561 c 2
 274 564 l 1
 262 569 l 1
 272 586 284 600 292 617 c 1
 302 612 313 609 323 604 c 0
 425 553 461 449 461 350 c 0xd0
 461 236 420 158 376 95 c 1
 393 66 423 3 423 -48 c 0
 423 -96 396 -178 322 -178 c 2
 303 -178 l 2
 286 -178 273 -168 261 -163 c 0
 230 -146 216 -108 216 -69 c 0
 216 -33 228 2 247 29 c 0
 255 39 270 68 294 88 c 1
 229 139 132 177 54 211 c 1xe0
322 -124 m 2
 361 -124 368 -77 368 -48 c 0xe0
 368 -17 350 32 337 56 c 1
 305 19 281 -4 281 -58 c 0
 281 -90 293 -114 301 -119 c 0
 306 -122 313 -124 321 -124 c 2
 322 -124 l 2
EndSplineSet
Validated: 1
EndChar

StartChar: delta
Encoding: 948 948 255
Width: 553
VWidth: 897
GlyphClass: 2
Flags: W
HStem: -32 52<198.422 363.096> 648 51<216.326 387.856>
VStem: 54 55<99.8884 232.837> 70 53<456.16 566.381> 445 51<96.2213 197.476>
LayerCount: 2
Fore
SplineSet
399 222 m 0xe8
 363 249 309 275 256 303 c 1
 255 306 l 1
 250 308 l 1
 250 311 l 1
 247 309 241 310 238 308 c 0
 139 274 109 214 109 166 c 0
 109 151 112 138 117 125 c 0
 140 66 210 20 281 20 c 0
 335 20 375 44 406 75 c 0
 409 78 410 81 413 84 c 0
 435 108 445 129 445 148 c 0
 445 174 428 196 399 222 c 0xe8
201 337 m 1
 143 376 70 428 70 510 c 0
 70 547 90 588 134 632 c 1
 188 678 241 699 297 699 c 0
 329 699 360 693 393 681 c 1
 394 681 l 1
 401 678 l 1
 406 677 l 1
 412 675 l 1
 409 672 404 669 399 666 c 0
 391 653 385 644 383 627 c 1
 356 637 321 648 294 648 c 0
 255 648 218 634 174 597 c 0
 148 575 123 545 123 508 c 0
 123 452 194 405 282 352 c 1
 350 316 394 296 437 260 c 0
 466 231 496 190 496 146 c 0
 496 107 477 63 424 19 c 0
 388 -12 339 -32 279 -32 c 0
 184 -32 102 27 70 97 c 0xd8
 62 116 54 143 54 166 c 0
 54 232 97 298 201 337 c 1
EndSplineSet
Validated: 1
EndChar

StartChar: epsilon
Encoding: 949 949 256
Width: 610
VWidth: 833
GlyphClass: 2
Flags: W
HStem: -12 49<188.896 443.316> 253 48<210.665 442.752> 260 48<324.071 488> 464 49<195.355 441.654>
VStem: 54 59<84.8523 187.627> 70 58<325.471 415.705>
LayerCount: 2
Fore
SplineSet
554 59 m 1xd8
 488 11 402 -12 315 -12 c 0
 237 -12 161 6 103 42 c 0
 76 59 54 95 54 134 c 0xd8
 54 167 75 203 97 223 c 0
 114 240 139 255 168 268 c 1
 90 288 70 329 70 372 c 0
 70 380 70 392 72 400 c 0
 84 469 197 513 318 513 c 0
 391 513 442 498 498 474 c 1
 469 432 l 1
 421 452 378 464 318 464 c 0
 213 464 134 420 129 391 c 0
 127 383 128 375 128 367 c 0
 128 336 138 311 252 303 c 0
 270 301 290 301 313 301 c 0xd4
 352 306 397 308 445 308 c 2
 488 308 l 1
 490 260 l 1
 481 260 l 1xb4
 421 255 366 253 322 253 c 2
 317 253 l 2
 297 250 276 248 261 245 c 0
 197 232 159 212 139 192 c 0
 119 173 113 153 113 135 c 0
 113 113 123 93 133 85 c 0
 135 83 136 84 138 82 c 0
 186 54 249 37 315 37 c 0
 386 37 462 56 516 95 c 1
 554 59 l 1xd8
EndSplineSet
Validated: 1
EndChar

StartChar: zeta
Encoding: 950 950 257
Width: 581
VWidth: 714
GlyphClass: 2
Flags: W
HStem: 615 51<56 401> 622 48<57 417>
VStem: 80 59<66.815 232.821> 468 57<-240.054 -114.889>
LayerCount: 2
Fore
SplineSet
185 -505 m 1028x30
185 -505 m 2
 185 -503 185 -504 185 -502 c 1
 184 -502 l 1
 186 -500 183 -500 185 -498 c 0
 323 -414 468 -311 468 -191 c 0
 468 -169 465 -148 457 -124 c 0
 443 -80 121 -82 107 53 c 0
 105 60 97 67 94 70 c 0
 86 84 80 103 80 126 c 0
 80 272 258 572 406 620 c 1
 417 624 l 1
 405 622 l 1
 401 622 l 1x70
 57 615 l 1
 56 615 l 1xb0
 56 622 l 1x70
 54 645 l 1
 54 666 l 1
 57 666 l 1xb0
 464 670 l 1
 466 670 l 1x70
 465 620 l 1
 429 596 381 550 332 496 c 0
 238 391 139 245 139 136 c 0
 139 99 149 67 177 41 c 0
 348 -119 507 -22 524 -134 c 0
 526 -141 525 -148 525 -155 c 0
 525 -290 339 -450 205 -532 c 1
 202 -533 l 1
 199 -525 197 -523 194 -518 c 2
 185 -505 l 2
EndSplineSet
Validated: 1
EndChar

StartChar: eta
Encoding: 951 951 258
Width: 502
VWidth: 691
GlyphClass: 2
Flags: W
HStem: 370 55<183.429 314.828>
VStem: 54 63<366 422> 54 52<-22 293.769> 391 55<-374 289.981>
LayerCount: 2
Fore
SplineSet
107 13 m 1024x90
117 366 m 1xd0
 146 395 203 425 247 425 c 0
 280 425 314 413 347 390 c 0
 412 347 443 286 446 201 c 5
 444 -374 l 5
 389 -375 l 1
 389 -316 391 155 391 175 c 2
 391 201 l 2
 388 265 369 311 321 344 c 0
 297 362 274 370 250 370 c 0
 186 370 124 307 109 258 c 1
 106 221 106 147 106 79 c 0
 106 65 106 52 106 41 c 0
 106 30 106 20 107 13 c 2
 107 -22 l 1
 54 -22 l 1xb0
 54 422 l 1
 117 422 l 1
 117 366 l 1xd0
EndSplineSet
Validated: 1
EndChar

StartChar: theta
Encoding: 952 952 259
Width: 489
VWidth: 883
GlyphClass: 2
Flags: W
HStem: -48 74<189.989 292.545> 269 68<109 381> 595 71<194.152 300.968>
VStem: 54 55<144.657 269 337 457.527> 381 53<153 269 337 344>
LayerCount: 2
Fore
SplineSet
109 348 m 0
 109 345 109 340 109 337 c 1
 381 337 l 1
 381 344 l 1
 379 348 l 1
 371 417 357 511 320 554 c 0
 298 580 274 595 248 595 c 0
 222 595 197 581 175 554 c 0
 138 511 117 418 109 348 c 0
381 257 m 0
 381 260 381 266 381 269 c 1
 107 269 l 1
 107 267 107 267 107 265 c 2
 108 260 l 1
 108 257 l 1
 115 181 135 110 172 66 c 0
 194 40 217 26 241 26 c 0
 269 26 294 45 318 73 c 0
 356 116 373 182 381 257 c 0
434 320 m 0
 434 181 397 76 332 8 c 0
 299 -28 267 -48 236 -48 c 0
 209 -48 180 -33 151 0 c 0
 87 66 54 168 54 301 c 0
 54 446 91 549 159 619 c 0
 190 652 218 666 245 666 c 0
 273 666 301 650 332 617 c 0
 398 549 434 459 434 320 c 0
EndSplineSet
Validated: 1
EndChar

StartChar: iota
Encoding: 953 953 260
Width: 302
VWidth: 793
GlyphClass: 2
Flags: W
HStem: -8 49<126.505 243>
VStem: 54 53<60.4038 276.285>
LayerCount: 2
Fore
SplineSet
187 -8 m 0
 87 -8 54 50 54 134 c 0
 54 216 84 314 97 389 c 1
 97 390 l 1
 99 390 l 1
 150 389 l 1
 149 386 l 1
 134 291 107 195 107 129 c 0
 107 73 126 41 190 41 c 0
 204 41 225 43 243 46 c 1
 243 38 l 1
 246 -3 l 1
 226 -6 204 -8 187 -8 c 0
EndSplineSet
Validated: 1
EndChar

StartChar: kappa
Encoding: 954 954 261
Width: 432
VWidth: 911
GlyphClass: 2
Flags: W
HStem: 374 44<280.567 351.614>
VStem: 60 47<-5 156 255 437>
LayerCount: 2
Fore
SplineSet
118 204 m 1
 372 -8 l 1
 302 -3 l 1
 107 156 l 1
 111 -5 l 1
 60 -5 l 1
 54 437 l 1
 106 437 l 1
 107 255 l 1
 136 342 253 396 347 418 c 1
 376 374 l 1
 318 369 222 360 118 204 c 1
EndSplineSet
Validated: 1
EndChar

StartChar: lambda
Encoding: 955 955 262
Width: 465
VWidth: 986
GlyphClass: 2
Flags: W
LayerCount: 2
Fore
SplineSet
409 -8 m 1
 359 -10 l 1
 359 -8 l 1
 357 -8 l 1
 253 265 l 1
 107 -10 l 1
 54 -10 l 1
 225 326 l 1
 100 666 l 1
 153 666 l 1
 182 598 409 -8 409 -8 c 1
EndSplineSet
Validated: 1
EndChar

StartChar: uni03BC
Encoding: 956 956 263
Width: 532
VWidth: 798
GlyphClass: 2
Flags: W
HStem: -10 54<182.637 309.287>
VStem: 54 50<159.235 381.394> 58 54<-337 48 110 277.75 281.8 382> 389 55<-14.6851 62.6704 124.789 377>
LayerCount: 2
Fore
SplineSet
107 349 m 1028x90
112 48 m 1xb0
 112 -337 l 1
 58 -345 l 1xb0
 54 384 l 1
 108 382 l 1
 108 369 107 360 107 348 c 0
 104 319 104 319 104 280 c 0xd0
 104 232 104 184 106 158 c 1
 116 124 146 93 175 71 c 0
 199 53 223 44 247 44 c 0
 269 44 292 53 316 70 c 0
 362 102 386 144 389 207 c 2
 389 380 l 1
 445 377 l 1
 445 302 444 281 444 206 c 0
 444 201 440 193 442 186 c 0
 444 176 444 166 444 156 c 0
 444 132 440 107 440 83 c 0
 440 44 447 4 476 -29 c 1
 422 -31 l 1
 402 -12 389 10 389 39 c 0
 389 47 389 56 391 63 c 1
 374 49 362 35 342 22 c 0
 309 0 275 -10 243 -10 c 0
 199 -10 151 15 117 44 c 2
 113 48 l 1
 112 48 l 1xb0
EndSplineSet
Validated: 1
EndChar

StartChar: nu
Encoding: 957 957 264
Width: 499
VWidth: 907
GlyphClass: 2
Flags: W
VStem: 383 61<185.81 410.892>
LayerCount: 2
Fore
SplineSet
444 296 m 0
 444 148 355 42 256 -12 c 1
 189 -12 l 1
 181 66 176 138 156 207 c 0
 138 270 102 328 54 369 c 1
 88 416 l 1
 124 378 153 336 177 288 c 0
 206 232 226 176 226 100 c 0
 226 81 226 61 223 43 c 1
 312 80 383 172 383 294 c 0
 383 338 375 383 357 422 c 1
 418 422 l 1
 435 383 444 339 444 296 c 0
EndSplineSet
Validated: 1
EndChar

StartChar: xi
Encoding: 958 958 265
Width: 537
VWidth: 816
GlyphClass: 2
Flags: W
HStem: 586 52<56 187.538 478 478>
VStem: 93 40<426.49 483.81> 107 39<65.1718 140.606> 439 41<-225.189 -79.926>
LayerCount: 2
Fore
SplineSet
478 348 m 2xd0
 478 346 478 347 478 345 c 0
 475 338 472 331 469 324 c 1
 475 308 l 1
 476 306 l 1
 478 303 l 1
 475 303 l 1
 474 301 l 1
 471 301 l 1
 236 247 146 148 146 94 c 2
 146 88 l 1
 154 14 433 19 466 -75 c 0
 474 -101 480 -126 480 -150 c 0
 480 -278 354 -373 211 -451 c 1
 206 -454 l 1
 205 -452 l 1
 204 -452 l 1
 201 -447 199 -444 196 -439 c 2
 187 -426 l 1
 187 -425 l 1
 185 -422 l 1
 185 -421 l 2
 187 -419 187 -420 189 -418 c 0
 329 -342 439 -257 439 -150 c 0
 439 -130 436 -110 428 -88 c 0
 415 -52 121 -43 107 82 c 0
 105 87 107 90 107 95 c 0xb0
 107 185 199 267 369 323 c 1
 235 347 93 349 93 454 c 0
 93 514 186 563 296 599 c 1
 61 586 l 1
 56 586 l 1
 56 595 l 1
 54 615 l 1
 54 638 l 1
 61 638 l 1
 473 640 l 1
 478 640 l 1
 478 639 l 1
 480 598 l 1
 480 593 l 1
 481 590 l 1
 478 590 l 1
 476 589 l 1
 188 533 133 480 133 454 c 0
 133 400 269 406 473 350 c 1
 475 349 l 1
 476 349 l 1
 478 348 l 2xd0
EndSplineSet
Validated: 1
EndChar

StartChar: omicron
Encoding: 959 959 266
Width: 516
VWidth: 913
GlyphClass: 2
Flags: W
HStem: -18 60<187.517 322.019> 400 57<195.131 325.282>
VStem: 54 64<115.235 318.936> 401 59<123.701 320.363>
LayerCount: 2
Fore
SplineSet
54 214 m 0
 54 308 86 375 156 423 c 0
 190 445 224 457 257 457 c 0
 290 457 325 446 359 423 c 0
 427 379 460 312 460 222 c 0
 460 132 427 64 358 20 c 0
 321 -4 285 -18 248 -18 c 0
 215 -18 182 -5 149 17 c 0
 83 61 54 127 54 214 c 0
253 42 m 0
 279 42 306 52 332 70 c 0
 380 104 401 154 401 223 c 0
 401 291 380 340 332 374 c 0
 308 391 284 400 260 400 c 0
 236 400 214 392 190 375 c 0
 139 339 118 288 118 217 c 0
 118 151 136 99 184 66 c 0
 208 49 230 42 253 42 c 0
EndSplineSet
Validated: 1
EndChar

StartChar: pi
Encoding: 960 960 267
Width: 606
VWidth: 895
GlyphClass: 2
Flags: W
HStem: 329 50<54.5879 141 195 401 455 550.581>
VStem: 141 54<-21.3748 329> 401 54<-24.7604 330>
LayerCount: 2
Fore
SplineSet
141 329 m 1
 139 329 l 1
 82 328 l 2
 67 328 54 338 54 352 c 0
 54 366 67 377 82 377 c 2
 155 379 l 1
 156 379 l 2
 161 381 165 380 168 380 c 0
 171 380 176 381 179 379 c 2
 522 380 l 2
 536 380 551 368 551 355 c 0
 551 341 539 330 524 330 c 0
 501 330 478 330 455 330 c 1
 455 328 l 1
 460 -3 l 2
 460 -17 448 -27 434 -27 c 0
 419 -27 406 -16 406 -3 c 2
 401 333 l 1
 401 334 l 1
 399 334 l 1
 197 333 l 1
 195 333 l 1
 195 330 l 1
 200 2 l 2
 200 -12 188 -24 174 -24 c 0
 159 -24 146 -11 146 2 c 2
 141 326 l 1
 141 329 l 1
EndSplineSet
Validated: 1
EndChar

StartChar: rho
Encoding: 961 961 268
Width: 498
VWidth: 816
GlyphClass: 2
Flags: W
HStem: -23 60<185.607 311.174> 405 45<191.019 313.815>
VStem: 58 54<-311 60 116.955 321.504> 394 48<124.286 319.911>
LayerCount: 2
Fore
SplineSet
247 37 m 0
 273 37 296 48 322 66 c 0
 370 102 394 152 394 222 c 0
 394 292 371 341 323 377 c 0
 300 394 277 405 253 405 c 0
 229 405 207 396 184 379 c 0
 133 343 112 291 112 217 c 0
 112 151 131 99 179 63 c 0
 202 46 224 37 247 37 c 0
251 450 m 0
 283 450 312 439 344 416 c 0
 410 372 442 306 442 216 c 0
 442 126 409 59 343 15 c 0
 309 -9 275 -23 242 -23 c 0
 213 -23 182 -10 151 12 c 0
 141 20 138 23 128 33 c 2
 116 54 l 1
 112 60 l 1
 112 54 l 1
 109 -314 l 1
 54 -311 l 1
 58 306 l 1
 63 320 89 385 118 405 c 1
 150 448 219 450 251 450 c 0
EndSplineSet
Validated: 1
EndChar

StartChar: sigma1
Encoding: 962 962 269
Width: 462
VWidth: 781
GlyphClass: 2
Flags: W
HStem: 328 49<199.808 321.209>
VStem: 65 54<44.9372 240.048> 281 42<-240.454 -126.792> 302 104<228.548 308.62>
LayerCount: 2
Fore
SplineSet
57 -464 m 1028xc0
322 309 m 1
 303 322 279 328 260 328 c 0
 237 328 215 319 192 301 c 0
 143 264 119 211 119 136 c 0
 119 107 123 80 131 56 c 1
 133 54 l 2
 136 52 138 50 140 43 c 0
 140 40 140 37 140 34 c 0
 154 6 180 -22 209 -36 c 0
 243 -51 287 -63 302 -83 c 0xd0
 316 -101 323 -129 323 -155 c 0
 323 -269 192 -421 77 -491 c 1
 75 -492 l 2
 73 -490 75 -494 73 -492 c 2
 73 -491 l 1
 72 -491 l 1
 69 -486 68 -482 65 -477 c 2
 57 -464 l 1
 56 -462 l 1
 54 -461 l 1
 54 -457 l 1
 59 -454 63 -453 68 -450 c 0
 180 -379 281 -262 281 -177 c 0xe0
 281 -160 277 -145 269 -131 c 0
 256 -111 238 -122 230 -100 c 0
 228 -98 230 -99 228 -97 c 0
 202 -92 175 -77 149 -60 c 0
 131 -50 113 -35 100 -8 c 0
 76 30 65 79 65 133 c 0
 65 230 94 295 163 343 c 0
 195 365 226 377 257 377 c 0
 305 377 373 340 400 303 c 0
 405 298 406 292 406 284 c 0
 406 279 405 276 405 269 c 0
 405 247 404 235 386 227 c 0
 376 222 363 217 355 217 c 0
 347 217 338 221 328 226 c 0
 309 236 302 249 302 268 c 0xd0
 302 286 309 301 322 309 c 1
EndSplineSet
Validated: 1
EndChar

StartChar: sigma
Encoding: 963 963 270
Width: 618
VWidth: 892
GlyphClass: 2
Flags: W
HStem: -5 49<181.523 340.519> 389 51<179.899 349.096 399 558>
VStem: 54 48<129.021 308.285> 422 52<129.963 311.743>
LayerCount: 2
Fore
SplineSet
422 369 m 1028
126 125 m 0
 157 71 201 44 261 44 c 0
 322 44 367 72 398 126 c 0
 415 154 422 208 422 236 c 0
 422 262 414 288 399 314 c 0
 368 367 325 389 266 389 c 0
 202 389 154 364 123 308 c 0
 108 282 102 257 102 230 c 0
 102 203 109 151 126 125 c 0
264 -5 m 2
 189 -5 113 52 80 100 c 0
 57 132 54 197 54 233 c 0
 54 269 67 343 104 379 c 1
 121 411 179 435 189 440 c 1
 558 442 l 1
 562 390 l 1
 406 389 l 1
 399 389 l 1
 413 375 432 361 442 344 c 0
 461 310 474 275 474 242 c 0
 474 205 462 142 440 104 c 0
 402 30 346 -2 267 -5 c 2
 264 -5 l 2
EndSplineSet
Validated: 1
EndChar

StartChar: tau
Encoding: 964 964 271
Width: 417
VWidth: 903
GlyphClass: 2
Flags: W
HStem: -15 47<210.258 323> 349 57<54 179 226 362>
VStem: 144 46<51.0028 271.036> 179 47<240.199 349> 327 5<-15 -11.907>
LayerCount: 2
Fore
SplineSet
327 -15 m 1xc8
 327 -12 l 2
 329 -10 332 -9 332 -12 c 2
 332 -15 l 1
 327 -15 l 1xc8
271 -15 m 0
 176 -15 144 43 144 126 c 0xe8
 144 195 166 278 179 348 c 1
 179 349 l 1
 54 349 l 1
 54 406 l 1
 362 406 l 1
 362 349 l 1
 226 349 l 1
 226 348 l 1xd8
 212 263 190 181 190 121 c 0xe8
 190 65 208 32 272 32 c 0
 286 32 305 34 323 37 c 1
 323 31 l 1
 327 -10 l 1
 307 -13 288 -15 271 -15 c 0
EndSplineSet
Validated: 1
EndChar

StartChar: upsilon
Encoding: 965 965 272
Width: 530
VWidth: 903
GlyphClass: 2
Flags: W
HStem: -18 55<229.339 356.347>
VStem: 95 55<117.312 396.625> 418 56<110.566 324.229>
LayerCount: 2
Fore
SplineSet
95 199 m 1028
292 37 m 0
 381 37 418 131 418 214 c 0
 418 294 391 376 368 400 c 1
 371 408 402 427 410 432 c 1
 428 396 474 293 474 189 c 0
 474 133 459 79 422 37 c 0
 385 -4 340 -18 296 -18 c 0
 264 -18 229 -8 196 14 c 0
 131 55 100 114 95 197 c 0
 95 221 97 247 97 273 c 0
 97 327 90 382 54 428 c 1
 109 430 l 1
 148 391 150 270 150 217 c 2
 150 199 l 2
 153 136 177 95 223 63 c 0
 247 46 270 37 292 37 c 0
EndSplineSet
Validated: 1
EndChar

StartChar: phi
Encoding: 966 966 273
Width: 498
VWidth: 913
GlyphClass: 2
Flags: W
HStem: -17 51<246.093 309.426> 406 50<185.944 266>
VStem: 54 55<113.468 321.714> 276 44<454 476.537> 393 49<119.749 312.298>
LayerCount: 2
Fore
SplineSet
265 400 m 2
 265 402 265 401 265 403 c 2
 266 405 l 1
 261 405 l 1
 261 406 l 1
 251 406 l 2
 227 406 204 398 180 380 c 0
 129 343 109 291 109 217 c 0
 109 142 135 77 194 48 c 1
 196 48 l 2
 198 46 197 48 199 46 c 1
 201 48 199 47 201 49 c 0
 201 51 201 52 201 54 c 2
 265 400 l 2
247 42 m 1
 247 40 247 39 247 37 c 2
 246 33 l 1
 248 35 249 32 251 34 c 2
 253 34 l 2
 275 37 300 47 322 64 c 0
 370 98 393 148 393 217 c 0
 393 285 370 335 322 371 c 0
 320 373 317 374 315 376 c 2
 313 376 l 1
 311 379 l 1
 309 377 310 376 308 374 c 2
 308 370 l 1
 248 42 l 1
 247 42 l 1
323 436 m 1
 402 397 442 321 442 222 c 0
 442 130 412 64 344 20 c 0
 308 -4 275 -17 242 -17 c 2
 236 -17 l 1
 236 -19 l 1
 236 -20 l 1
 236 -22 l 1
 189 -264 l 1
 138 -252 l 1
 189 -13 l 1
 190 -13 l 1
 190 -8 l 2
 188 -6 187 -5 185 -5 c 0
 171 0 160 7 146 15 c 0
 81 59 54 127 54 214 c 0
 54 311 85 377 154 425 c 0
 187 447 218 457 250 457 c 0
 257 457 262 458 269 456 c 2
 271 456 l 1
 272 456 l 1
 276 454 l 1
 276 459 l 1
 276 461 l 1
 276 462 l 1
 326 706 l 1
 374 695 l 1
 320 444 l 1
 320 442 l 2
 318 440 320 442 318 440 c 1
 322 436 l 1
 323 436 l 1
EndSplineSet
Validated: 1
EndChar

StartChar: chi
Encoding: 967 967 274
Width: 590
VWidth: 827
GlyphClass: 2
Flags: W
HStem: 303 57<110.169 151.781>
VStem: 54 33<187.013 262.174> 128 37<-353.954 -345> 495 39<-256.934 -171.144>
LayerCount: 2
Fore
SplineSet
148 -354 m 0
 135 -354 128 -347 128 -335 c 0
 128 -332 126 -331 128 -328 c 2
 261 32 l 1
 207 190 157 296 128 303 c 0
 118 303 101 277 87 187 c 1
 87 186 l 2
 84 181 70 187 70 187 c 1
 70 187 54 205 54 219 c 0
 54 295 89 347 106 355 c 0
 111 358 116 360 121 360 c 0
 175 360 235 217 289 78 c 1
 379 354 l 2
 382 361 391 364 399 364 c 0
 411 364 418 352 418 344 c 0
 418 341 417 341 415 338 c 2
 313 19 l 1
 376 -137 432 -286 455 -299 c 1
 462 -292 482 -257 495 -186 c 0
 498 -176 507 -170 515 -170 c 0
 517 -170 517 -171 519 -171 c 0
 527 -174 534 -181 534 -191 c 0
 534 -193 534 -194 534 -196 c 0
 521 -269 497 -347 456 -347 c 0
 453 -347 452 -349 449 -347 c 0
 386 -333 337 -173 289 -39 c 1
 165 -345 l 2
 162 -352 156 -354 148 -354 c 0
EndSplineSet
Validated: 1
EndChar

StartChar: psi
Encoding: 968 968 275
Width: 483
VWidth: 901
GlyphClass: 2
Flags: W
HStem: -15 56<261 318.817>
VStem: 54 46<119.321 408> 205 56<-165 -15 42 544> 371 47<282.687 406> 373 54<102.808 374.912>
LayerCount: 2
Fore
SplineSet
54 262 m 1024xe0
427 226 m 0xe8
 427 83 374 11 262 -15 c 1
 261 -15 l 1
 261 -165 l 1
 204 -165 l 1
 205 -12 l 1
 205 -8 l 1
 202 -8 l 1
 85 14 62 117 54 242 c 0
 54 254 54 263 54 275 c 0
 54 351 58 321 58 396 c 2
 58 411 l 1
 106 408 l 1
 106 400 l 2
 106 340 100 296 100 260 c 2
 100 253 l 2
 103 173 110 111 158 69 c 0
 175 54 187 47 205 42 c 1
 205 46 l 1
 209 546 l 1
 261 544 l 1
 260 43 l 1
 260 41 l 1
 262 41 l 2
 284 43 305 47 323 65 c 0
 356 94 368 143 378 186 c 1
 378 197 l 1
 373 197 l 1
 373 212 l 2
 373 232 373 257 373 281 c 0xe8
 373 317 373 353 371 376 c 2
 368 406 l 1
 418 408 l 1xf0
 420 298 427 346 427 226 c 0xe8
EndSplineSet
Validated: 1
EndChar

StartChar: omega
Encoding: 969 969 276
Width: 749
VWidth: 906
GlyphClass: 2
Flags: W
HStem: -13 51<161.803 311.806 445.932 582.323>
VStem: 54 45<111.349 263.089> 350 50<86.2031 205.869> 646 48<107.512 281.678>
LayerCount: 2
Fore
SplineSet
155 309 m 1024
400 146 m 1
 408 85 447 38 512 38 c 0
 595 38 646 110 646 197 c 0
 646 257 617 319 554 352 c 0
 549 354 545 356 542 359 c 2
 546 370 l 1
 547 381 l 1
 557 410 l 1
 563 416 l 1
 566 413 l 2
 569 411 579 411 582 408 c 0
 656 364 694 280 694 197 c 0
 694 166 688 137 678 109 c 0
 670 83 662 58 644 39 c 0
 612 6 561 -13 510 -13 c 0
 466 -13 422 1 393 33 c 0
 388 38 381 48 378 53 c 1
 378 49 l 1
 346 5 295 -14 242 -14 c 0
 189 -14 138 5 109 29 c 0
 107 32 106 35 104 38 c 0
 71 87 54 140 54 189 c 0
 54 249 79 307 123 360 c 0
 137 378 155 393 175 410 c 1
 177 410 l 1
 182 416 l 1
 185 418 l 1
 188 415 192 411 195 408 c 0
 202 395 209 383 214 366 c 1
 210 362 l 1
 188 347 169 326 155 309 c 0
 121 275 99 228 99 189 c 0
 99 153 115 115 144 74 c 1
 166 51 200 36 241 36 c 0
 294 36 338 66 348 125 c 0
 350 132 348 136 350 143 c 2
 350 144 l 2
 352 168 352 183 354 207 c 0
 357 207 363 207 366 207 c 2
 378 207 l 1
 386 207 l 1
 386 209 l 1
 388 209 386 207 388 207 c 2
 389 207 l 1
 393 207 l 1
 396 183 400 151 400 148 c 2
 400 146 l 1
EndSplineSet
Validated: 1
EndChar

StartChar: fraction
Encoding: 8260 8260 277
Width: 641
VWidth: 910
GlyphClass: 2
Flags: W
LayerCount: 2
Fore
SplineSet
54 -8 m 1
 522 740 l 1
 585 737 l 1
 118 -8 l 1
 54 -8 l 1
EndSplineSet
Validated: 1
EndChar

StartChar: uni20DD
Encoding: 8413 8413 278
Width: 751
VWidth: 915
GlyphClass: 2
Flags: W
HStem: 3 55<273.908 450.082> 696 59<286.215 462.38>
VStem: 54 59<235.434 509.102> 634 61<247.424 510.956>
LayerCount: 2
Fore
SplineSet
536 700 m 0
 643 629 695 525 695 382 c 0
 695 238 645 135 536 64 c 0
 477 25 419 3 360 3 c 0
 307 3 257 20 204 56 c 0
 99 126 54 234 54 370 c 0
 54 520 105 627 215 701 c 0
 269 737 320 755 374 755 c 0
 428 755 482 736 536 700 c 0
505 650 m 0
 462 679 417 696 374 696 c 0
 331 696 288 680 245 651 c 0
 153 588 113 499 113 370 c 0
 113 253 150 162 235 102 c 0
 278 73 320 58 362 58 c 0
 408 58 455 77 503 110 c 0
 592 171 634 256 634 380 c 0
 634 501 592 589 505 650 c 0
EndSplineSet
Validated: 1
EndChar

StartChar: universal
Encoding: 8704 8704 279
Width: 575
VWidth: 915
GlyphClass: 2
Flags: W
HStem: 427 66<196 376>
LayerCount: 2
Fore
SplineSet
286 65 m 1
 376 427 l 1
 196 427 l 1
 286 65 l 1
465 757 m 1
 519 757 l 1
 318 -3 l 1
 257 -3 l 1
 54 758 l 1
 108 758 l 1
 177 493 l 1
 391 492 l 1
 465 757 l 1
EndSplineSet
Validated: 1
EndChar

StartChar: uni2201
Encoding: 8705 8705 280
Width: 526
VWidth: 912
GlyphClass: 2
Flags: W
HStem: -5 58<209.472 361.455> 686 60<219.875 369.786>
VStem: 54 68<140.597 592.383> 420 50<120.875 163>
LayerCount: 2
Fore
SplineSet
287 53 m 2
 299 53 l 2
 357 53 415 110 420 163 c 1
 424 168 l 1
 440 168 l 2
 457 168 470 168 470 155 c 2
 462 116 l 2
 465 113 459 116 457 114 c 0
 455 53 363 -7 297 -7 c 0
 292 -7 287 -7 282 -5 c 2
 279 -5 l 2
 236 -5 192 10 146 42 c 0
 58 105 54 206 54 326 c 2
 54 375 l 2
 54 510 56 632 150 697 c 0
 198 729 243 746 286 746 c 2
 296 746 l 2
 385 746 466 664 466 590 c 0
 466 585 467 580 465 575 c 0
 462 572 455 571 448 571 c 0
 445 571 442 571 439 571 c 0
 433 571 427 571 424 568 c 1
 416 596 404 644 371 673 c 1
 345 686 326 686 307 686 c 2
 291 686 l 2
 254 686 218 667 182 640 c 0
 129 599 122 534 122 459 c 0
 122 426 123 390 123 354 c 0
 123 325 122 297 122 270 c 0
 122 197 129 135 180 94 c 0
 214 68 251 53 287 53 c 2
EndSplineSet
Validated: 1
EndChar

StartChar: partialdiff
Encoding: 8706 8706 281
Width: 565
VWidth: 901
GlyphClass: 2
Flags: W
HStem: -13 56<190.516 355.381> 339 57<201.43 376.209> 641 55<168.765 327.632>
VStem: 54 46<518.161 573.228> 68 49<104.003 264.469> 461 49<313.234 496.328>
LayerCount: 2
Fore
SplineSet
457 237 m 1xec
 444 254 431 271 413 291 c 0
 379 324 334 339 291 339 c 0
 248 339 196 323 164 291 c 1
 135 273 117 230 117 184 c 2
 117 173 l 2
 120 125 139 93 170 75 c 1
 172 75 l 1
 204 55 240 43 276 43 c 0
 386 43 442 140 457 237 c 1xec
510 309 m 2
 510 153 446 -13 276 -13 c 0
 232 -13 185 0 146 27 c 0
 98 55 71 105 68 171 c 0
 68 176 68 179 68 184 c 0xec
 68 247 92 307 136 339 c 1
 179 376 237 396 291 396 c 0
 347 396 403 376 447 332 c 0
 454 325 455 321 462 313 c 1
 461 318 461 323 461 328 c 0
 461 336 462 346 462 354 c 0
 462 359 462 364 461 369 c 0
 458 412 455 453 442 490 c 0
 418 558 363 610 297 634 c 0
 279 639 264 641 247 641 c 0
 244 641 239 640 236 640 c 0
 176 637 126 600 100 536 c 0
 97 526 88 520 80 518 c 2
 78 518 l 2
 64 518 54 532 54 547 c 0xf4
 54 550 54 555 56 558 c 0
 88 641 155 696 245 696 c 0
 267 696 289 693 313 686 c 0
 392 657 456 591 485 508 c 0
 505 445 507 395 510 325 c 2
 510 309 l 2
EndSplineSet
Validated: 1
EndChar

StartChar: existential
Encoding: 8707 8707 282
Width: 462
VWidth: 879
GlyphClass: 2
Flags: W
HStem: -7 51<61.0005 344> 304 51<55.2014 343> 584 48<61 342>
VStem: 343 63<44 304 355 584>
LayerCount: 2
Fore
SplineSet
62 44 m 1
 344 44 l 1
 343 304 l 1
 54 304 l 1
 54 321 54 341 56 355 c 1
 343 355 l 1
 343 360 l 2
 343 433 342 506 342 579 c 2
 342 584 l 1
 61 584 l 1
 61 592 61 601 61 610 c 0
 61 619 61 627 62 634 c 5
 406 632 l 5
 405 -7 l 1
 290 -7 176 -7 61 -7 c 1
 61 1 61 11 61 20 c 0
 61 29 61 37 62 44 c 1
EndSplineSet
Validated: 1
EndChar

StartChar: uni2204
Encoding: 8708 8708 283
Width: 462
VWidth: 879
GlyphClass: 2
Flags: W
HStem: -7 50<61.0005 129 204 344> 304 51<55.2014 190 265 343> 583 51<61.0005 247 320 342>
VStem: 343 63<-8 -7 43 304 355 583>
LayerCount: 2
Fore
SplineSet
352 634 m 2
 370 631 391 633 406 631 c 1
 405 -8 l 1
 344 -8 l 1
 344 -7 l 1
 194 -7 l 1
 174 -94 l 1
 111 -94 l 1
 129 -7 l 1
 61 -7 l 1
 61 1 61 10 61 19 c 0
 61 28 61 36 62 43 c 1
 140 43 l 1
 190 304 l 1
 54 304 l 1
 54 321 54 341 56 355 c 1
 201 355 l 1
 247 583 l 1
 61 583 l 1
 61 591 61 601 61 610 c 0
 61 619 61 627 62 634 c 1
 256 634 l 1
 276 719 l 1
 337 717 l 1
 320 634 l 1
 352 634 l 2
265 355 m 1
 343 355 l 1
 343 360 l 2
 343 433 342 506 342 579 c 2
 342 583 l 1
 310 583 l 1
 265 355 l 1
204 43 m 1
 344 43 l 1
 343 304 l 1
 255 304 l 1
 204 43 l 1
EndSplineSet
Validated: 1
EndChar

StartChar: emptyset
Encoding: 8709 8709 284
Width: 666
VWidth: 915
GlyphClass: 2
Flags: W
HStem: 56 46<310.219 407.221> 638 49<243.899 358>
VStem: 54 50<241.65 488.281> 558 52<252.902 487.776>
LayerCount: 2
Fore
SplineSet
358 636 m 1
 350 638 340 638 332 638 c 0
 294 638 257 628 219 602 c 0
 140 549 104 474 104 365 c 0
 104 266 135 191 209 140 c 0
 222 132 237 124 250 117 c 1
 358 636 l 1
417 617 m 1
 310 102 l 1
 313 102 318 102 321 102 c 0
 360 102 403 117 445 145 c 0
 523 196 558 268 558 372 c 0
 558 486 507 571 417 617 c 1
427 666 m 1
 542 613 610 514 610 375 c 0
 610 254 565 167 471 107 c 0
 420 74 371 56 320 56 c 0
 313 56 308 56 301 58 c 1
 289 5 l 1
 225 5 l 1
 240 71 l 1
 222 79 203 87 184 100 c 0
 94 159 54 250 54 365 c 0
 54 491 97 580 194 643 c 0
 242 672 284 687 332 687 c 0
 345 687 355 686 368 683 c 1
 383 748 l 1
 445 747 l 1
 427 666 l 1
EndSplineSet
Validated: 1
EndChar

StartChar: uni2206
Encoding: 8710 8710 285
Width: 757
VWidth: 877
GlyphClass: 2
Flags: W
HStem: -8 66<156 598>
LayerCount: 2
Fore
SplineSet
598 59 m 1
 369 498 l 1
 156 58 l 1
 598 59 l 1
369 636 m 1
 700 -5 l 1
 129 -8 l 1
 54 -8 l 1
 369 636 l 1
EndSplineSet
Validated: 1
EndChar

StartChar: gradient
Encoding: 8711 8711 286
Width: 757
VWidth: 877
GlyphClass: 2
Flags: W
HStem: 539 65<156 598>
LayerCount: 2
Fore
SplineSet
598 538 m 1
 156 539 l 1
 369 99 l 1
 598 538 l 1
369 -39 m 1
 54 604 l 1
 129 604 l 1
 700 604 l 1
 369 -39 l 1
EndSplineSet
Validated: 1
EndChar

StartChar: element
Encoding: 8712 8712 287
Width: 525
VWidth: 911
GlyphClass: 2
Flags: W
HStem: 0 54<280.528 462> 343 58<114 469> 676 55<257.912 449>
VStem: 55 59<225.656 343 400 505.851>
LayerCount: 2
Fore
SplineSet
463 1 m 5
 420 0 l 4
 355 0 254 9 203 53 c 1
 98 123 55 230 55 366 c 0
 55 516 105 623 215 697 c 0
 264 729 373 731 431 731 c 0
 437 731 444 731 449 731 c 1
 449 676 l 1
 446 676 443 676 440 676 c 0
 392 676 284 675 244 648 c 0
 161 590 121 510 114 400 c 1
 146 401 179 401 212 401 c 0
 265 401 318 400 371 400 c 0
 404 400 437 400 469 401 c 1
 469 345 l 1
 114 343 l 1
 119 236 154 155 234 99 c 0
 283 62 370 54 424 54 c 0
 462 54 l 0
 463 1 l 5
EndSplineSet
Validated: 1
EndChar

StartChar: notelement
Encoding: 8713 8713 288
Width: 544
VWidth: 918
GlyphClass: 2
Flags: W
HStem: 42 52<282.855 484.726> 42 1<485 487.718> 360 53<117 246 318 488> 671 51<379 451.983>
VStem: 54 62<254.487 360 413 508>
LayerCount: 2
Fore
SplineSet
246 360 m 1x38
 203 360 159 360 116 360 c 1
 119 277 147 211 206 162 c 1
 246 360 l 1x38
304 660 m 1
 284 655 266 648 253 640 c 0
 165 587 124 515 117 413 c 1
 255 413 l 1
 304 660 l 1
488 43 m 1x78
 482 42 475 42 466 42 c 0
 457 42 447 42 437 42 c 0
 383 42 308 47 252 70 c 1
 240 2 l 1
 174 2 l 1
 195 104 l 1
 96 169 54 262 54 382 c 0
 54 521 107 618 223 686 c 0
 247 700 279 709 315 716 c 1
 326 768 l 1
 388 767 l 1
 379 722 l 1
 407 725 432 727 450 727 c 0
 453 724 452 715 452 707 c 2
 452 688 l 2
 452 681 452 678 454 676 c 1
 434 676 401 674 368 671 c 1
 318 415 l 1
 374 415 432 415 488 415 c 1
 488 364 l 1
 428 364 368 362 308 362 c 1
 262 124 l 1
 315 98 391 94 440 94 c 0
 449 94 457 94 464 94 c 0xb8
 471 94 477 94 481 95 c 0
 489 95 485 43 488 43 c 1x78
440 692 m 1
 442 690 440 690 442 692 c 1
 440 692 l 1
EndSplineSet
Validated: 1
EndChar

StartChar: uni220A
Encoding: 8714 8714 289
Width: 524
VWidth: 911
GlyphClass: 2
Flags: W
HStem: 145 35<261.836 464.889> 145 1<465 467.717> 354 32<113 468> 558 34<259.755 434>
VStem: 54 59<285.459 354 386 450.957>
LayerCount: 2
Fore
SplineSet
468 146 m 1x78
 462 145 454 145 446 145 c 0
 438 145 429 145 419 145 c 0
 354 145 253 151 202 178 c 1
 97 220 54 285 54 367 c 0
 54 457 104 522 214 566 c 0
 268 588 378 592 432 592 c 0
 434 590 434 586 434 579 c 2
 434 570 l 2
 434 565 433 560 435 558 c 1
 391 558 286 554 243 536 c 0
 160 502 120 452 113 386 c 1
 230 388 351 387 468 389 c 1
 468 354 l 1
 113 354 l 1
 118 290 153 240 233 207 c 0
 282 185 369 180 423 180 c 0
 434 180 444 179 451 179 c 0
 455 179 458 179 461 180 c 0xb8
 468 180 465 146 468 146 c 1x78
EndSplineSet
Validated: 1
EndChar

StartChar: suchthat
Encoding: 8715 8715 290
Width: 524
VWidth: 911
GlyphClass: 2
Flags: W
HStem: -3 57<57.6743 242.472> -3 1<54.2827 57> 343 58<54 409> 686 55<88 243.291>
VStem: 409 59<225.656 343 400 505.851>
LayerCount: 2
Fore
SplineSet
54 -2 m 1x78
 57 -2 54 54 61 54 c 0
 64 53 67 53 71 53 c 0
 78 53 88 54 99 54 c 0
 153 54 240 62 289 99 c 0
 369 155 404 236 409 343 c 1
 54 345 l 1
 54 401 l 1
 86 400 119 400 152 400 c 0
 205 400 258 401 311 401 c 0
 344 401 377 401 409 400 c 1
 402 510 362 590 279 648 c 0
 236 677 132 686 88 686 c 5
 88 741 l 1
 142 741 254 733 308 697 c 0
 418 623 468 516 468 366 c 0
 468 230 425 123 320 53 c 1
 269 9 168 -3 103 -3 c 0
 93 -3 84 -3 76 -3 c 0xb8
 68 -3 60 -3 54 -2 c 1x78
EndSplineSet
Validated: 1
EndChar

